<svg width="100" height="20" viewBox="0 0 1000 208" fill="none" xmlns="http://www.w3.org/2000/svg">
<g clip-path="url(#clip0_1329_82072)">
<path d="M106.095 165.749L164.532 165.581C165.246 165.581 165.834 164.993 165.834 164.279L166.002 105.968C166.002 104.792 167.43 104.204 168.229 105.044L205.66 142.391C205.87 142.601 206.08 142.979 206.038 143.357L205.87 204.315C205.87 205.029 205.282 205.617 204.568 205.617L143.484 205.785C143.106 205.785 142.812 205.659 142.518 205.407L105.087 168.06C104.288 167.261 104.877 165.833 106.011 165.833L106.095 165.749Z" fill="white"/>
<path d="M38.1171 105.967L38.2852 164.278C38.2852 164.992 38.8733 165.58 39.5875 165.58L98.0241 165.748C99.2004 165.748 99.7886 167.134 98.9484 167.975L61.517 205.322C61.3069 205.532 60.9288 205.742 60.5507 205.7L-0.532579 205.532C-1.24676 205.532 -1.83491 204.944 -1.83491 204.23L-1.96094 143.314C-1.96094 142.936 -1.83491 142.642 -1.58284 142.348L35.8485 105.001C36.6468 104.203 38.0751 104.791 38.0751 105.925H38.1171V105.967Z" fill="white"/>
<path d="M98.0241 38.1171L39.5875 38.2851C38.8733 38.2851 38.2852 38.8733 38.2852 39.5875L38.1171 97.8981C38.1171 99.0744 36.6888 99.6625 35.8906 98.8223L-1.58284 61.4749C-1.7929 61.2649 -1.96094 60.8868 -1.96094 60.5507L-1.7929 -0.364574C-1.7929 -1.12076 -1.20475 -1.70891 -0.448558 -1.70891L60.5507 -1.87695C60.9288 -1.87695 61.2229 -1.75092 61.517 -1.49886L98.9484 35.8485C99.7466 36.6467 99.1584 38.0751 98.0241 38.0751V38.1171Z" fill="white"/>
<path d="M165.961 97.9401L165.793 39.6295C165.793 38.9153 165.205 38.3271 164.491 38.3271L106.054 38.1591C104.878 38.1591 104.29 36.7727 105.13 35.9325L142.561 -1.49886C142.771 -1.70891 143.149 -1.87695 143.527 -1.87695L204.611 -1.70891C205.325 -1.70891 205.913 -1.12076 205.913 -0.406584L206.081 60.5507C206.081 60.9288 205.955 61.2229 205.703 61.517L168.272 98.8643C167.473 99.6625 166.045 99.0744 166.045 97.9401H165.961Z" fill="#CDFE6C"/>
<g clip-path="url(#clip1_1329_82072)">
<path d="M575.884 107.572C581.707 115.217 584.677 123.971 584.677 133.636C584.677 145.717 580.479 155.739 571.883 164.374C563.288 173.009 553.187 177.168 540.987 177.168H464.062V150.47H540.987C545.621 150.47 549.622 148.807 552.91 145.479C556.197 142.192 557.9 138.191 557.9 133.596C557.9 129.001 556.158 124.961 552.83 121.713C549.582 118.544 545.582 116.92 541.026 116.92H487.631V89.9847H541.026C545.582 89.9847 549.503 88.4002 552.87 85.271C556.158 82.0625 557.9 77.9826 557.9 73.3878C557.9 68.7929 556.237 64.8318 552.91 61.4649C549.543 58.2168 545.542 56.4739 540.987 56.4739H464.062V29.8555H540.987C553.226 29.8555 563.288 34.0542 571.883 42.6498C580.479 51.3245 584.677 61.3461 584.677 73.3878C584.677 82.9736 581.707 91.7672 575.884 99.4517L574.101 101.749L572.755 103.532L574.101 105.314L575.884 107.572Z" fill="white"/>
<path d="M741.778 177.128L697.73 114.028L691.512 105.076L671.825 76.7151L670.795 75.2891L638.908 29.8555H606.586L656.892 101.828L658.08 103.492L656.892 105.156L606.586 177.168H638.908L671.825 130.269L674.202 126.862L676.578 130.269L709.495 177.168H741.817L741.778 177.128Z" fill="white"/>
<path d="M783.952 150.666H757.215V177.364H783.952V150.666Z" fill="white"/>
<path d="M996.23 29.8555V177.168H969.453V150.47H969.493V56.5532L969.453 29.8555H996.23Z" fill="white"/>
<path d="M441.324 112.718C437.68 106.262 432.689 100.993 426.431 97.072L423.777 95.3291L421.757 94.0615L422.628 91.8433L423.816 88.8725C425.757 83.8816 426.787 78.7322 426.787 73.4639C426.787 61.4618 422.589 51.4007 413.914 42.7655C405.199 34.0908 395.178 29.9316 383.097 29.9316H299.161V71.5626H299.082V152.567H325.819V117.075H403.14C407.695 117.075 411.616 118.699 414.944 121.868C418.35 125.116 420.014 129.117 420.014 133.752C420.014 138.386 418.35 142.308 415.023 145.635C411.696 148.923 407.655 150.626 403.1 150.626H299.122V177.323H403.06C415.142 177.323 425.203 173.204 433.838 164.569C442.513 156.052 446.712 145.952 446.712 133.791C446.712 126.265 444.889 119.214 441.245 112.877H441.285L441.324 112.718ZM394.94 85.3076C391.692 88.4764 387.691 90.0212 383.136 90.0212H326.017V56.5897H383.136C387.731 56.5897 391.771 58.2534 395.019 61.5807C398.307 64.8684 400.01 68.8691 400.01 73.4639C400.01 78.0588 398.307 82.1387 394.98 85.3472H394.94V85.3076Z" fill="white"/>
<path d="M855.8 104.522L854.334 108.443H897.431L907.611 135.141H844.154L843.402 137.003L828.072 177.208H799.434L855.721 29.8555H891.133L947.42 177.208H918.741L876.081 65.5448L873.427 58.4545L870.654 65.5448L855.8 104.482V104.522Z" fill="white"/>
<path d="M741.777 29.8105H709.495L682.797 67.8765L698.958 91.1677L741.738 29.8105H741.777Z" fill="#CDFE6C"/>
</g>
</g>
<defs>
<clipPath id="clip0_1329_82072">
<rect width="1000" height="207.843" fill="white"/>
</clipPath>
<clipPath id="clip1_1329_82072">
<rect width="697.15" height="147.55" fill="white" transform="translate(299.082 29.8105)"/>
</clipPath>
</defs>
</svg>
