<svg width="291" height="120" viewBox="0 0 291 120" fill="none" xmlns="http://www.w3.org/2000/svg">
<g style="mix-blend-mode:overlay">
<path fill-rule="evenodd" clip-rule="evenodd" d="M19.7354 -215.415L40.4443 -215.551L14.2687 -167.911L-10.8242 -167.786L19.7354 -215.415ZM62.9683 -215.699L42.1946 -215.562L16.0175 -167.92L41.175 -168.046L62.9683 -215.699ZM64.6541 -215.71L85.495 -215.846L68.084 -168.181L42.8596 -168.054L64.6541 -215.71ZM108.01 -215.994L87.1262 -215.857L69.7143 -168.189L94.9818 -168.315L108.01 -215.994ZM109.597 -216.005L130.518 -216.142L121.873 -168.45L96.5685 -168.323L109.597 -216.005ZM153.023 -216.289L132.073 -216.152L123.428 -168.457L148.761 -168.584L153.023 -216.289ZM154.558 -216.299L175.518 -216.437L175.639 -168.719L150.296 -168.592L154.558 -216.299ZM198.011 -216.584L177.046 -216.447L177.168 -168.726L202.517 -168.853L198.011 -216.584ZM199.546 -216.595L220.492 -216.732L229.382 -168.987L204.051 -168.861L199.546 -216.595ZM242.973 -216.879L222.045 -216.742L230.935 -168.995L256.247 -169.122L242.973 -216.879ZM244.557 -216.89L265.449 -217.027L283.106 -169.256L257.831 -169.13L244.557 -216.89ZM287.914 -217.174L267.074 -217.037L284.733 -169.264L309.957 -169.39L287.914 -217.174ZM289.592 -217.185L310.377 -217.321L336.804 -169.525L311.636 -169.399L289.592 -217.185ZM332.833 -217.469L312.118 -217.333L338.546 -169.533L363.645 -169.659L332.833 -217.469ZM333.249 -218.237L333.244 -219L19.3125 -216.941L19.3175 -216.176L18.6731 -216.59L-359.863 373.386L-359.219 373.8V374.562H714.8V373.798L715.442 373.385L333.89 -218.65L333.249 -218.237ZM713.397 373.033L682.586 325.226L612.108 325.238L638.534 373.033H713.397ZM681.601 323.698L650.79 275.89L584.836 275.914L611.263 323.709L681.601 323.698ZM649.806 274.362L618.993 226.552L557.564 226.588L583.991 274.386L649.806 274.362ZM618.009 225.024L587.199 177.218L530.293 177.266L556.719 225.06L618.009 225.024ZM586.214 175.691L555.402 127.881L503.021 127.94L529.449 175.738L586.214 175.691ZM554.418 126.353L523.608 78.5467L475.75 78.6176L502.176 126.412L554.418 126.353ZM522.624 77.0197L491.811 29.209L448.478 29.2917L474.906 77.0903L522.624 77.0197ZM490.827 27.6824L460.015 -20.1267L421.206 -20.0329L447.633 27.7648L490.827 27.6824ZM459.032 -21.6529L428.218 -69.4644L393.933 -69.3591L420.362 -21.5594L459.032 -21.6529ZM427.235 -70.9899L396.425 -118.796L366.663 -118.68L393.089 -70.885L427.235 -70.9899ZM395.443 -120.321L364.627 -168.135L339.389 -168.009L365.82 -120.205L395.443 -120.321ZM312.339 -167.874L337.647 -168L364.077 -120.199L334.385 -120.083L312.339 -167.874ZM335.089 -118.557L364.92 -118.673L391.346 -70.8797L357.131 -70.7746L335.089 -118.557ZM357.835 -69.2483L392.189 -69.3537L418.618 -21.5551L379.879 -21.4615L357.835 -69.2483ZM380.583 -19.9347L419.462 -20.0287L445.889 27.7681L402.626 27.8507L380.583 -19.9347ZM403.33 29.3778L446.733 29.295L473.161 77.0929L425.374 77.1636L403.33 29.3778ZM426.078 78.6911L474.005 78.6201L500.431 126.414L448.12 126.474L426.078 78.6911ZM448.825 128.001L501.275 127.942L527.703 175.74L470.868 175.787L448.825 128.001ZM471.573 177.315L528.548 177.267L554.973 225.061L493.614 225.097L471.573 177.315ZM494.319 226.625L555.818 226.589L582.245 274.386L516.362 274.41L494.319 226.625ZM517.067 275.939L583.09 275.915L609.516 323.71L539.109 323.722L517.067 275.939ZM539.815 325.25L610.361 325.238L636.787 373.033H561.857L539.815 325.25ZM310.66 -167.865L285.297 -167.739L302.957 -119.961L332.705 -120.076L310.66 -167.865ZM333.409 -118.551L303.521 -118.434L321.179 -70.6642L355.45 -70.7695L333.409 -118.551ZM356.154 -69.2431L321.743 -69.1375L339.402 -21.3636L378.197 -21.4574L356.154 -69.2431ZM378.901 -19.9306L339.966 -19.8365L357.625 27.9365L400.944 27.8539L378.901 -19.9306ZM401.649 29.381L358.19 29.4639L375.848 77.237L423.692 77.1661L401.649 29.381ZM424.396 78.6936L376.413 78.7646L394.07 126.535L446.438 126.476L424.396 78.6936ZM447.143 128.003L394.635 128.063L412.294 175.836L469.186 175.789L447.143 128.003ZM469.89 177.317L412.859 177.364L430.516 225.134L491.932 225.098L469.89 177.317ZM492.636 226.626L431.081 226.662L448.739 274.435L514.679 274.411L492.636 226.626ZM515.384 275.939L449.304 275.963L466.962 323.734L537.426 323.722L515.384 275.939ZM538.131 325.25L467.527 325.262L485.184 373.033H560.173L538.131 325.25ZM258.255 -167.603L283.67 -167.73L301.33 -119.954L271.531 -119.838L258.255 -167.603ZM271.956 -118.312L301.894 -118.428L319.551 -70.6593L285.229 -70.5539L271.956 -118.312ZM285.654 -69.0267L320.115 -69.1325L337.774 -21.3597L298.928 -21.2658L285.654 -69.0267ZM299.353 -19.7383L338.338 -19.8326L355.997 27.9396L312.627 28.0224L299.353 -19.7383ZM313.052 29.5501L356.561 29.4671L374.219 77.2394L326.326 77.3103L313.052 29.5501ZM326.751 78.8382L374.784 78.7671L392.441 126.537L340.025 126.596L326.751 78.8382ZM340.449 128.124L393.006 128.065L410.665 175.838L353.724 175.885L340.449 128.124ZM354.149 177.414L411.229 177.366L428.886 225.135L367.422 225.17L354.149 177.414ZM367.847 226.699L429.451 226.663L447.11 274.435L381.121 274.459L367.847 226.699ZM381.546 275.988L447.675 275.964L465.332 323.734L394.82 323.746L381.546 275.988ZM395.245 325.275L465.897 325.263L483.555 373.033H408.519L395.245 325.275ZM256.671 -167.595L231.22 -167.468L240.11 -119.716L269.946 -119.832L256.671 -167.595ZM270.371 -118.305L240.395 -118.189L249.284 -70.4435L283.644 -70.549L270.371 -118.305ZM284.069 -69.0218L249.569 -68.9159L258.459 -21.1679L297.343 -21.2619L284.069 -69.0218ZM297.767 -19.7345L258.743 -19.6402L267.633 28.1083L311.042 28.0254L297.767 -19.7345ZM311.466 29.5531L267.918 29.6362L276.808 77.3836L324.74 77.3127L311.466 29.5531ZM325.165 78.8405L277.092 78.9117L285.982 126.658L338.439 126.598L325.165 78.8405ZM338.863 128.126L286.266 128.186L295.157 175.934L352.138 175.887L338.863 128.126ZM352.562 177.415L295.441 177.463L304.331 225.207L365.836 225.171L352.562 177.415ZM366.261 226.7L304.615 226.736L313.505 274.484L379.535 274.46L366.261 226.7ZM379.96 275.988L313.79 276.012L322.68 323.758L393.234 323.747L379.96 275.988ZM393.658 325.275L322.964 325.287L331.854 373.033H406.932L393.658 325.275ZM204.195 -167.333L229.666 -167.46L238.557 -119.71L208.702 -119.594L204.195 -167.333ZM208.846 -118.066L238.841 -118.183L247.73 -70.4388L213.351 -70.3332L208.846 -118.066ZM213.496 -68.8051L248.015 -68.9111L256.905 -21.1642L218.001 -21.0701L213.496 -68.8051ZM218.146 -19.542L257.189 -19.6364L266.079 28.1112L222.652 28.1941L218.146 -19.542ZM222.796 29.7223L266.364 29.6392L275.253 77.3859L227.302 77.4569L222.796 29.7223ZM227.446 78.9853L275.538 78.914L284.427 126.66L231.952 126.719L227.446 78.9853ZM232.096 128.247L284.712 128.188L293.602 175.936L236.602 175.984L232.096 128.247ZM236.746 177.512L293.887 177.464L302.776 225.208L241.252 225.244L236.746 177.512ZM241.396 226.772L303.06 226.736L311.951 274.484L245.902 274.508L241.396 226.772ZM246.046 276.037L312.235 276.013L321.125 323.759L250.552 323.771L246.046 276.037ZM250.696 325.299L321.409 325.287L330.299 373.033H255.202L250.696 325.299ZM202.661 -167.325L177.172 -167.198L177.293 -119.471L207.167 -119.588L202.661 -167.325ZM207.311 -118.06L177.297 -117.943L177.419 -70.2229L211.817 -70.3285L207.311 -118.06ZM211.961 -68.8004L177.423 -68.6944L177.545 -20.9723L216.466 -21.0664L211.961 -68.8004ZM216.611 -19.5383L177.549 -19.4439L177.67 28.2799L221.117 28.197L216.611 -19.5383ZM221.261 29.7252L177.674 29.8084L177.796 77.5302L225.767 77.4592L221.261 29.7252ZM225.911 78.9875L177.8 79.0588L177.922 126.78L230.416 126.721L225.911 78.9875ZM230.561 128.249L177.925 128.309L178.047 176.033L235.067 175.985L230.561 128.249ZM235.211 177.513L178.051 177.561L178.173 225.281L239.716 225.245L235.211 177.513ZM239.861 226.773L178.177 226.809L178.298 274.533L244.366 274.509L239.861 226.773ZM244.511 276.037L178.302 276.061L178.424 323.783L249.016 323.771L244.511 276.037ZM249.161 325.3L178.428 325.312L178.55 373.033H253.666L249.161 325.3ZM150.159 -167.063L175.643 -167.19L175.765 -119.466L145.897 -119.349L150.159 -167.063ZM145.76 -117.82L175.769 -117.937L175.891 -70.2182L141.498 -70.1126L145.76 -117.82ZM141.362 -68.5837L175.894 -68.6897L176.016 -20.9686L137.1 -20.8745L141.362 -68.5837ZM136.963 -19.3457L176.02 -19.4402L176.142 28.2828L132.701 28.3657L136.963 -19.3457ZM132.564 29.8945L176.146 29.8113L176.267 77.5325L128.302 77.6035L132.564 29.8945ZM128.165 79.1323L176.271 79.061L176.393 126.782L123.903 126.842L128.165 79.1323ZM123.767 128.37L176.397 128.311L176.519 176.034L119.504 176.082L123.767 128.37ZM119.368 177.61L176.523 177.562L176.644 225.282L115.106 225.318L119.368 177.61ZM114.969 226.846L176.648 226.81L176.77 274.533L110.707 274.557L114.969 226.846ZM110.57 276.086L176.774 276.062L176.896 323.783L106.308 323.795L110.57 276.086ZM106.172 325.324L176.899 325.312L177.021 373.033H101.909L106.172 325.324ZM148.624 -167.055L123.151 -166.928L114.504 -119.227L144.362 -119.343L148.624 -167.055ZM144.225 -117.814L114.227 -117.697L105.581 -70.0023L139.963 -70.1079L144.225 -117.814ZM139.827 -68.5789L105.304 -68.473L96.6582 -20.7768L135.565 -20.8708L139.827 -68.5789ZM135.428 -19.342L96.381 -19.2476L87.7346 28.4515L131.166 28.3687L135.428 -19.342ZM131.029 29.8974L87.4575 29.9806L78.8117 77.6768L126.767 77.6058L131.029 29.8974ZM126.631 79.1345L78.5345 79.2057L69.8885 126.903L122.368 126.844L126.631 79.1345ZM122.232 128.372L69.6114 128.432L60.9651 176.131L117.97 176.083L122.232 128.372ZM117.833 177.612L60.688 177.659L52.0424 225.354L113.571 225.319L117.833 177.612ZM113.435 226.847L51.7653 226.883L43.119 274.582L109.172 274.558L113.435 226.847ZM109.036 276.087L42.8419 276.111L34.196 323.808L104.774 323.796L109.036 276.087ZM104.637 325.324L33.9189 325.336L25.2729 373.033H100.375L104.637 325.324ZM96.1503 -166.792L121.596 -166.92L112.95 -119.221L83.1198 -119.105L96.1503 -166.792ZM82.7017 -117.575L112.672 -117.691L104.027 -69.9976L69.6725 -69.8921L82.7017 -117.575ZM69.2545 -68.3623L103.75 -68.4682L95.1041 -20.773L56.2252 -20.679L69.2545 -68.3623ZM55.8073 -19.1496L94.8269 -19.2439L86.1807 28.4545L42.777 28.5373L55.8073 -19.1496ZM42.3591 30.0666L85.9035 29.9835L77.2578 77.6791L29.3297 77.7501L42.3591 30.0666ZM28.9119 79.2792L76.9807 79.2081L68.3348 126.905L15.882 126.964L28.9119 79.2792ZM15.4643 128.493L68.0576 128.434L59.4115 176.132L2.43411 176.18L15.4643 128.493ZM2.01633 177.709L59.1344 177.661L50.4889 225.355L-11.0128 225.391L2.01633 177.709ZM-11.4305 226.92L50.2118 226.884L41.5655 274.583L-24.4608 274.607L-11.4305 226.92ZM-24.8784 276.135L41.2884 276.111L32.6425 323.808L-37.9081 323.82L-24.8784 276.135ZM-38.3258 325.349L32.3654 325.336L23.7195 373.033H-51.3556L-38.3258 325.349ZM94.5636 -166.785L69.1549 -166.657L51.7408 -118.983L81.5336 -119.099L94.5636 -166.785ZM81.1155 -117.569L51.1817 -117.452L33.7692 -69.7819L68.0867 -69.8872L81.1155 -117.569ZM67.6687 -68.3574L33.2102 -68.2516L15.7977 -20.5813L54.6396 -20.6752L67.6687 -68.3574ZM54.2217 -19.1457L15.2389 -19.0515L-2.17523 28.6231L41.1916 28.5404L54.2217 -19.1457ZM40.7737 30.0696L-2.73392 30.1527L-20.1466 77.8234L27.7446 77.7524L40.7737 30.0696ZM27.3267 79.2816L-20.7052 79.3527L-38.1188 127.026L14.297 126.966L27.3267 79.2816ZM13.8792 128.495L-38.6773 128.555L-56.0912 176.229L0.849213 176.181L13.8792 128.495ZM0.431458 177.71L-56.6497 177.758L-74.0622 225.428L-12.5976 225.392L0.431458 177.71ZM-13.0153 226.921L-74.6206 226.957L-92.0346 274.631L-26.0454 274.607L-13.0153 226.921ZM-26.4631 276.136L-92.593 276.16L-110.006 323.832L-39.4927 323.82L-26.4631 276.136ZM-39.9104 325.349L-110.565 325.361L-127.978 373.033H-52.9401L-39.9104 325.349ZM42.159 -166.522L67.5247 -166.649L50.1112 -118.976L20.3616 -118.861L42.159 -166.522ZM19.6613 -117.329L49.5521 -117.446L32.1401 -69.7769L-2.13425 -69.6716L19.6613 -117.329ZM-2.83429 -68.141L31.5811 -68.2466L14.1689 -20.5773L-24.6297 -20.4836L-2.83429 -68.141ZM-25.3295 -18.9534L13.6102 -19.0475L-3.80365 28.6262L-47.1271 28.7089L-25.3295 -18.9534ZM-47.8268 30.2387L-4.36234 30.1558L-21.7748 77.8258L-69.6224 77.8966L-47.8268 30.2387ZM-70.3219 79.4261L-22.3334 79.3551L-39.7467 127.028L-92.1189 127.087L-70.3219 79.4261ZM-92.8183 128.616L-40.3053 128.557L-57.719 176.23L-114.616 176.278L-92.8183 128.616ZM-115.315 177.807L-58.2775 177.759L-75.6898 225.429L-137.111 225.465L-115.315 177.807ZM-137.81 226.994L-76.2483 226.958L-93.6621 274.632L-159.607 274.656L-137.81 226.994ZM-160.306 276.184L-94.2205 276.16L-111.634 323.832L-182.103 323.844L-160.306 276.184ZM-182.802 325.373L-112.192 325.361L-129.605 373.033H-204.599L-182.802 325.373ZM40.4744 -166.514L15.1754 -166.387L-11.0053 -118.738L18.6778 -118.854L40.4744 -166.514ZM17.9775 -117.323L-11.8469 -117.207L-38.0256 -69.5614L-3.81738 -69.6665L17.9775 -117.323ZM-4.5174 -68.1358L-38.8668 -68.0303L-65.045 -20.3858L-26.3123 -20.4795L-4.5174 -68.1358ZM-27.0121 -18.9493L-65.886 -18.8553L-92.0672 28.7946L-48.8094 28.7121L-27.0121 -18.9493ZM-49.509 30.2419L-92.908 30.3247L-119.087 77.9699L-71.3043 77.8991L-49.509 30.2419ZM-72.0038 79.4286L-119.927 79.4996L-146.108 127.148L-93.8005 127.089L-72.0038 79.4286ZM-94.4999 128.618L-146.948 128.678L-173.129 176.327L-116.297 176.279L-94.4999 128.618ZM-116.996 177.808L-173.969 177.856L-200.148 225.502L-138.792 225.466L-116.996 177.808ZM-139.491 226.995L-200.988 227.031L-227.169 274.68L-161.288 274.656L-139.491 226.995ZM-161.987 276.185L-228.009 276.209L-254.189 323.857L-183.784 323.845L-161.987 276.185ZM-184.483 325.373L-255.029 325.385L-281.209 373.033H-206.28L-184.483 325.373ZM-11.808 -166.252L13.4266 -166.379L-12.753 -118.732L-42.3719 -118.616L-11.808 -166.252ZM-43.3551 -117.084L-13.5947 -117.2L-39.7725 -69.5561L-73.9169 -69.4512L-43.3551 -117.084ZM-74.8996 -67.9197L-40.6138 -68.025L-66.7914 -20.3816L-105.461 -20.2881L-74.8996 -67.9197ZM-106.443 -18.7573L-67.6323 -18.8511L-93.8131 28.798L-137.008 28.8804L-106.443 -18.7573ZM-137.99 30.4108L-94.6538 30.3281L-120.832 77.9725L-168.551 78.0431L-137.99 30.4108ZM-169.533 79.5731L-121.672 79.5022L-147.853 127.15L-200.097 127.21L-169.533 79.5731ZM-201.078 128.739L-148.693 128.68L-174.874 176.328L-231.643 176.376L-201.078 128.739ZM-232.624 177.905L-175.714 177.858L-201.892 225.503L-263.186 225.538L-232.624 177.905ZM-264.167 227.067L-202.732 227.032L-228.913 274.681L-294.732 274.705L-264.167 227.067ZM-295.713 276.234L-229.753 276.21L-255.933 323.857L-326.276 323.869L-295.713 276.234ZM-327.257 325.398L-256.773 325.386L-282.953 373.033H-357.821L-327.257 325.398Z" fill="url(#paint0_linear_356_21)"/>
</g>
<defs>
<linearGradient id="paint0_linear_356_21" x1="73.7793" y1="6.26436" x2="99.8766" y2="263.976" gradientUnits="userSpaceOnUse">
<stop offset="1" stop-color="white" stop-opacity="0.1"/>
</linearGradient>
</defs>
</svg>
