<svg width="266" height="120" viewBox="0 0 266 120" fill="none" xmlns="http://www.w3.org/2000/svg">
<g opacity="0.45">
<mask id="mask0_955_148556" style="mask-type:alpha" maskUnits="userSpaceOnUse" x="1" y="-161" width="412" height="397">
<rect x="1.04688" y="-160.469" width="411.56" height="395.9" fill="url(#paint0_radial_955_148556)"/>
</mask>
<g mask="url(#mask0_955_148556)">
<circle cx="9.48119" cy="3.75267" r="0.602283" fill="white" fill-opacity="0.28"/>
<circle cx="19.114" cy="3.75267" r="0.602283" fill="white" fill-opacity="0.28"/>
<circle cx="28.7507" cy="3.75267" r="0.602283" fill="white" fill-opacity="0.28"/>
<circle cx="38.3874" cy="3.75267" r="0.602283" fill="white" fill-opacity="0.28"/>
<circle cx="48.0242" cy="3.75267" r="0.602283" fill="white" fill-opacity="0.28"/>
<circle cx="57.6609" cy="3.75267" r="0.602283" fill="white" fill-opacity="0.28"/>
<circle cx="67.2976" cy="3.75267" r="0.602283" fill="white" fill-opacity="0.28"/>
<circle cx="76.9343" cy="3.75267" r="0.602283" fill="white" fill-opacity="0.28"/>
<circle cx="86.571" cy="3.75267" r="0.602283" fill="white" fill-opacity="0.28"/>
<circle cx="96.2077" cy="3.75267" r="0.602283" fill="white" fill-opacity="0.28"/>
<circle cx="105.844" cy="3.75267" r="0.602283" fill="white" fill-opacity="0.28"/>
<circle cx="115.481" cy="3.75267" r="0.602283" fill="white" fill-opacity="0.28"/>
<circle cx="125.118" cy="3.75267" r="0.602283" fill="white" fill-opacity="0.28"/>
<circle cx="134.755" cy="3.75267" r="0.602283" fill="white" fill-opacity="0.28"/>
<circle cx="144.391" cy="3.75267" r="0.602283" fill="white" fill-opacity="0.28"/>
<circle cx="154.028" cy="3.75267" r="0.602283" fill="white" fill-opacity="0.28"/>
<circle cx="163.665" cy="3.75267" r="0.602283" fill="white" fill-opacity="0.28"/>
<circle cx="173.301" cy="3.75267" r="0.602283" fill="white" fill-opacity="0.28"/>
<circle cx="182.938" cy="3.75267" r="0.602283" fill="white" fill-opacity="0.28"/>
<circle cx="192.575" cy="3.75267" r="0.602283" fill="white" fill-opacity="0.28"/>
<circle cx="202.212" cy="3.75267" r="0.602283" fill="white" fill-opacity="0.28"/>
<circle cx="211.844" cy="3.75267" r="0.602283" fill="white" fill-opacity="0.28"/>
<circle cx="221.481" cy="3.75267" r="0.602283" fill="white" fill-opacity="0.28"/>
<circle cx="231.118" cy="3.75267" r="0.602283" fill="white" fill-opacity="0.28"/>
<circle cx="240.755" cy="3.75267" r="0.602283" fill="white" fill-opacity="0.28"/>
<circle cx="250.391" cy="3.75267" r="0.602283" fill="white" fill-opacity="0.28"/>
<circle cx="260.028" cy="3.75267" r="0.602283" fill="white" fill-opacity="0.28"/>
<circle cx="9.48119" cy="13.3894" r="0.602283" fill="white" fill-opacity="0.28"/>
<circle cx="19.114" cy="13.3894" r="0.602283" fill="white" fill-opacity="0.28"/>
<circle cx="28.7507" cy="13.3894" r="0.602283" fill="white" fill-opacity="0.28"/>
<circle cx="38.3874" cy="13.3894" r="0.602283" fill="white" fill-opacity="0.28"/>
<circle cx="48.0242" cy="13.3894" r="0.602283" fill="white" fill-opacity="0.28"/>
<circle cx="57.6609" cy="13.3894" r="0.602283" fill="white" fill-opacity="0.28"/>
<circle cx="67.2976" cy="13.3894" r="0.602283" fill="white" fill-opacity="0.28"/>
<circle cx="76.9343" cy="13.3894" r="0.602283" fill="white" fill-opacity="0.28"/>
<circle cx="86.571" cy="13.3894" r="0.602283" fill="white" fill-opacity="0.28"/>
<circle cx="96.2077" cy="13.3894" r="0.602283" fill="white" fill-opacity="0.28"/>
<circle cx="105.844" cy="13.3894" r="0.602283" fill="white" fill-opacity="0.28"/>
<circle cx="115.481" cy="13.3894" r="0.602283" fill="white" fill-opacity="0.28"/>
<circle cx="125.118" cy="13.3894" r="0.602283" fill="white" fill-opacity="0.28"/>
<circle cx="134.755" cy="13.3894" r="0.602283" fill="white" fill-opacity="0.28"/>
<circle cx="144.391" cy="13.3894" r="0.602283" fill="white" fill-opacity="0.28"/>
<circle cx="154.028" cy="13.3894" r="0.602283" fill="white" fill-opacity="0.28"/>
<circle cx="163.665" cy="13.3894" r="0.602283" fill="white" fill-opacity="0.28"/>
<circle cx="173.301" cy="13.3894" r="0.602283" fill="white" fill-opacity="0.28"/>
<circle cx="182.938" cy="13.3894" r="0.602283" fill="white" fill-opacity="0.28"/>
<circle cx="192.575" cy="13.3894" r="0.602283" fill="white" fill-opacity="0.28"/>
<circle cx="202.212" cy="13.3894" r="0.602283" fill="white" fill-opacity="0.28"/>
<circle cx="211.844" cy="13.3894" r="0.602283" fill="white" fill-opacity="0.28"/>
<circle cx="221.481" cy="13.3894" r="0.602283" fill="white" fill-opacity="0.28"/>
<circle cx="231.118" cy="13.3894" r="0.602283" fill="white" fill-opacity="0.28"/>
<circle cx="240.755" cy="13.3894" r="0.602283" fill="white" fill-opacity="0.28"/>
<circle cx="250.391" cy="13.3894" r="0.602283" fill="white" fill-opacity="0.28"/>
<circle cx="260.028" cy="13.3894" r="0.602283" fill="white" fill-opacity="0.28"/>
<circle cx="9.48119" cy="23.0261" r="0.602283" fill="white" fill-opacity="0.28"/>
<circle cx="19.114" cy="23.0261" r="0.602283" fill="white" fill-opacity="0.28"/>
<circle cx="28.7507" cy="23.0261" r="0.602283" fill="white" fill-opacity="0.28"/>
<circle cx="38.3874" cy="23.0261" r="0.602283" fill="white" fill-opacity="0.28"/>
<circle cx="48.0242" cy="23.0261" r="0.602283" fill="white" fill-opacity="0.28"/>
<circle cx="57.6609" cy="23.0261" r="0.602283" fill="white" fill-opacity="0.28"/>
<circle cx="67.2976" cy="23.0261" r="0.602283" fill="white" fill-opacity="0.28"/>
<circle cx="76.9343" cy="23.0261" r="0.602283" fill="white" fill-opacity="0.28"/>
<circle cx="86.571" cy="23.0261" r="0.602283" fill="white" fill-opacity="0.28"/>
<circle cx="96.2077" cy="23.0261" r="0.602283" fill="white" fill-opacity="0.28"/>
<circle cx="105.844" cy="23.0261" r="0.602283" fill="white" fill-opacity="0.28"/>
<circle cx="115.481" cy="23.0261" r="0.602283" fill="white" fill-opacity="0.28"/>
<circle cx="125.118" cy="23.0261" r="0.602283" fill="white" fill-opacity="0.28"/>
<circle cx="134.755" cy="23.0261" r="0.602283" fill="white" fill-opacity="0.28"/>
<circle cx="144.391" cy="23.0261" r="0.602283" fill="white" fill-opacity="0.28"/>
<circle cx="154.028" cy="23.0261" r="0.602283" fill="white" fill-opacity="0.28"/>
<circle cx="163.665" cy="23.0261" r="0.602283" fill="white" fill-opacity="0.28"/>
<circle cx="173.301" cy="23.0261" r="0.602283" fill="white" fill-opacity="0.28"/>
<circle cx="182.938" cy="23.0261" r="0.602283" fill="white" fill-opacity="0.28"/>
<circle cx="192.575" cy="23.0261" r="0.602283" fill="white" fill-opacity="0.28"/>
<circle cx="202.212" cy="23.0261" r="0.602283" fill="white" fill-opacity="0.28"/>
<circle cx="211.844" cy="23.0261" r="0.602283" fill="white" fill-opacity="0.28"/>
<circle cx="221.481" cy="23.0261" r="0.602283" fill="white" fill-opacity="0.28"/>
<circle cx="231.118" cy="23.0261" r="0.602283" fill="white" fill-opacity="0.28"/>
<circle cx="240.755" cy="23.0261" r="0.602283" fill="white" fill-opacity="0.28"/>
<circle cx="250.391" cy="23.0261" r="0.602283" fill="white" fill-opacity="0.28"/>
<circle cx="260.028" cy="23.0261" r="0.602283" fill="white" fill-opacity="0.28"/>
<circle cx="9.48119" cy="32.6628" r="0.602283" fill="white" fill-opacity="0.28"/>
<circle cx="19.114" cy="32.6628" r="0.602283" fill="white" fill-opacity="0.28"/>
<circle cx="28.7507" cy="32.6628" r="0.602283" fill="white" fill-opacity="0.28"/>
<circle cx="38.3874" cy="32.6628" r="0.602283" fill="white" fill-opacity="0.28"/>
<circle cx="48.0242" cy="32.6628" r="0.602283" fill="white" fill-opacity="0.28"/>
<circle cx="57.6609" cy="32.6628" r="0.602283" fill="white" fill-opacity="0.28"/>
<circle cx="67.2976" cy="32.6628" r="0.602283" fill="white" fill-opacity="0.28"/>
<circle cx="76.9343" cy="32.6628" r="0.602283" fill="white" fill-opacity="0.28"/>
<circle cx="86.571" cy="32.6628" r="0.602283" fill="white" fill-opacity="0.28"/>
<circle cx="96.2077" cy="32.6628" r="0.602283" fill="white" fill-opacity="0.28"/>
<circle cx="105.844" cy="32.6628" r="0.602283" fill="white" fill-opacity="0.28"/>
<circle cx="115.481" cy="32.6628" r="0.602283" fill="white" fill-opacity="0.28"/>
<circle cx="125.118" cy="32.6628" r="0.602283" fill="white" fill-opacity="0.28"/>
<circle cx="134.755" cy="32.6628" r="0.602283" fill="white" fill-opacity="0.28"/>
<circle cx="144.391" cy="32.6628" r="0.602283" fill="white" fill-opacity="0.28"/>
<circle cx="154.028" cy="32.6628" r="0.602283" fill="white" fill-opacity="0.28"/>
<circle cx="163.665" cy="32.6628" r="0.602283" fill="white" fill-opacity="0.28"/>
<circle cx="173.301" cy="32.6628" r="0.602283" fill="white" fill-opacity="0.28"/>
<circle cx="182.938" cy="32.6628" r="0.602283" fill="white" fill-opacity="0.28"/>
<circle cx="192.575" cy="32.6628" r="0.602283" fill="white" fill-opacity="0.28"/>
<circle cx="202.212" cy="32.6628" r="0.602283" fill="white" fill-opacity="0.28"/>
<circle cx="211.844" cy="32.6628" r="0.602283" fill="white" fill-opacity="0.28"/>
<circle cx="221.481" cy="32.6628" r="0.602283" fill="white" fill-opacity="0.28"/>
<circle cx="231.118" cy="32.6628" r="0.602283" fill="white" fill-opacity="0.28"/>
<circle cx="240.755" cy="32.6628" r="0.602283" fill="white" fill-opacity="0.28"/>
<circle cx="250.391" cy="32.6628" r="0.602283" fill="white" fill-opacity="0.28"/>
<circle cx="260.028" cy="32.6628" r="0.602283" fill="white" fill-opacity="0.28"/>
<circle cx="9.48119" cy="42.2995" r="0.602283" fill="white" fill-opacity="0.28"/>
<circle cx="19.114" cy="42.2995" r="0.602283" fill="white" fill-opacity="0.28"/>
<circle cx="28.7507" cy="42.2995" r="0.602283" fill="white" fill-opacity="0.28"/>
<circle cx="38.3874" cy="42.2995" r="0.602283" fill="white" fill-opacity="0.28"/>
<circle cx="48.0242" cy="42.2995" r="0.602283" fill="white" fill-opacity="0.28"/>
<circle cx="57.6609" cy="42.2995" r="0.602283" fill="white" fill-opacity="0.28"/>
<circle cx="67.2976" cy="42.2995" r="0.602283" fill="white" fill-opacity="0.28"/>
<circle cx="76.9343" cy="42.2995" r="0.602283" fill="white" fill-opacity="0.28"/>
<circle cx="86.571" cy="42.2995" r="0.602283" fill="white" fill-opacity="0.28"/>
<circle cx="96.2077" cy="42.2995" r="0.602283" fill="white" fill-opacity="0.28"/>
<circle cx="105.844" cy="42.2995" r="0.602283" fill="white" fill-opacity="0.28"/>
<circle cx="115.481" cy="42.2995" r="0.602283" fill="white" fill-opacity="0.28"/>
<circle cx="125.118" cy="42.2995" r="0.602283" fill="white" fill-opacity="0.28"/>
<circle cx="134.755" cy="42.2995" r="0.602283" fill="white" fill-opacity="0.28"/>
<circle cx="144.391" cy="42.2995" r="0.602283" fill="white" fill-opacity="0.28"/>
<circle cx="154.028" cy="42.2995" r="0.602283" fill="white" fill-opacity="0.28"/>
<circle cx="163.665" cy="42.2995" r="0.602283" fill="white" fill-opacity="0.28"/>
<circle cx="173.301" cy="42.2995" r="0.602283" fill="white" fill-opacity="0.28"/>
<circle cx="182.938" cy="42.2995" r="0.602283" fill="white" fill-opacity="0.28"/>
<circle cx="192.575" cy="42.2995" r="0.602283" fill="white" fill-opacity="0.28"/>
<circle cx="202.212" cy="42.2995" r="0.602283" fill="white" fill-opacity="0.28"/>
<circle cx="211.844" cy="42.2995" r="0.602283" fill="white" fill-opacity="0.28"/>
<circle cx="221.481" cy="42.2995" r="0.602283" fill="white" fill-opacity="0.28"/>
<circle cx="231.118" cy="42.2995" r="0.602283" fill="white" fill-opacity="0.28"/>
<circle cx="240.755" cy="42.2995" r="0.602283" fill="white" fill-opacity="0.28"/>
<circle cx="250.391" cy="42.2995" r="0.602283" fill="white" fill-opacity="0.28"/>
<circle cx="260.028" cy="42.2995" r="0.602283" fill="white" fill-opacity="0.28"/>
<circle cx="9.48119" cy="51.9363" r="0.602283" fill="white" fill-opacity="0.28"/>
<circle cx="19.114" cy="51.9363" r="0.602283" fill="white" fill-opacity="0.28"/>
<circle cx="28.7507" cy="51.9363" r="0.602283" fill="white" fill-opacity="0.28"/>
<circle cx="38.3874" cy="51.9363" r="0.602283" fill="white" fill-opacity="0.28"/>
<circle cx="48.0242" cy="51.9363" r="0.602283" fill="white" fill-opacity="0.28"/>
<circle cx="57.6609" cy="51.9363" r="0.602283" fill="white" fill-opacity="0.28"/>
<circle cx="67.2976" cy="51.9363" r="0.602283" fill="white" fill-opacity="0.28"/>
<circle cx="76.9343" cy="51.9363" r="0.602283" fill="white" fill-opacity="0.28"/>
<circle cx="86.571" cy="51.9363" r="0.602283" fill="white" fill-opacity="0.28"/>
<circle cx="96.2077" cy="51.9363" r="0.602283" fill="white" fill-opacity="0.28"/>
<circle cx="105.844" cy="51.9363" r="0.602283" fill="white" fill-opacity="0.28"/>
<circle cx="115.481" cy="51.9363" r="0.602283" fill="white" fill-opacity="0.28"/>
<circle cx="125.118" cy="51.9363" r="0.602283" fill="white" fill-opacity="0.28"/>
<circle cx="134.755" cy="51.9363" r="0.602283" fill="white" fill-opacity="0.28"/>
<circle cx="144.391" cy="51.9363" r="0.602283" fill="white" fill-opacity="0.28"/>
<circle cx="154.028" cy="51.9363" r="0.602283" fill="white" fill-opacity="0.28"/>
<circle cx="163.665" cy="51.9363" r="0.602283" fill="white" fill-opacity="0.28"/>
<circle cx="173.301" cy="51.9363" r="0.602283" fill="white" fill-opacity="0.28"/>
<circle cx="182.938" cy="51.9363" r="0.602283" fill="white" fill-opacity="0.28"/>
<circle cx="192.575" cy="51.9363" r="0.602283" fill="white" fill-opacity="0.28"/>
<circle cx="202.212" cy="51.9363" r="0.602283" fill="white" fill-opacity="0.28"/>
<circle cx="211.844" cy="51.9363" r="0.602283" fill="white" fill-opacity="0.28"/>
<circle cx="221.481" cy="51.9363" r="0.602283" fill="white" fill-opacity="0.28"/>
<circle cx="231.118" cy="51.9363" r="0.602283" fill="white" fill-opacity="0.28"/>
<circle cx="240.755" cy="51.9363" r="0.602283" fill="white" fill-opacity="0.28"/>
<circle cx="250.391" cy="51.9363" r="0.602283" fill="white" fill-opacity="0.28"/>
<circle cx="260.028" cy="51.9363" r="0.602283" fill="white" fill-opacity="0.28"/>
<circle cx="9.48119" cy="61.573" r="0.602283" fill="white" fill-opacity="0.28"/>
<circle cx="19.114" cy="61.573" r="0.602283" fill="white" fill-opacity="0.28"/>
<circle cx="28.7507" cy="61.573" r="0.602283" fill="white" fill-opacity="0.28"/>
<circle cx="38.3874" cy="61.573" r="0.602283" fill="white" fill-opacity="0.28"/>
<circle cx="48.0242" cy="61.573" r="0.602283" fill="white" fill-opacity="0.28"/>
<circle cx="57.6609" cy="61.573" r="0.602283" fill="white" fill-opacity="0.28"/>
<circle cx="67.2976" cy="61.573" r="0.602283" fill="white" fill-opacity="0.28"/>
<circle cx="76.9343" cy="61.573" r="0.602283" fill="white" fill-opacity="0.28"/>
<circle cx="86.571" cy="61.573" r="0.602283" fill="white" fill-opacity="0.28"/>
<circle cx="96.2077" cy="61.573" r="0.602283" fill="white" fill-opacity="0.28"/>
<circle cx="105.844" cy="61.573" r="0.602283" fill="white" fill-opacity="0.28"/>
<circle cx="115.481" cy="61.573" r="0.602283" fill="white" fill-opacity="0.28"/>
<circle cx="125.118" cy="61.573" r="0.602283" fill="white" fill-opacity="0.28"/>
<circle cx="134.755" cy="61.573" r="0.602283" fill="white" fill-opacity="0.28"/>
<circle cx="144.391" cy="61.573" r="0.602283" fill="white" fill-opacity="0.28"/>
<circle cx="154.028" cy="61.573" r="0.602283" fill="white" fill-opacity="0.28"/>
<circle cx="163.665" cy="61.573" r="0.602283" fill="white" fill-opacity="0.28"/>
<circle cx="173.301" cy="61.573" r="0.602283" fill="white" fill-opacity="0.28"/>
<circle cx="182.938" cy="61.573" r="0.602283" fill="white" fill-opacity="0.28"/>
<circle cx="192.575" cy="61.573" r="0.602283" fill="white" fill-opacity="0.28"/>
<circle cx="202.212" cy="61.573" r="0.602283" fill="white" fill-opacity="0.28"/>
<circle cx="211.844" cy="61.573" r="0.602283" fill="white" fill-opacity="0.28"/>
<circle cx="221.481" cy="61.573" r="0.602283" fill="white" fill-opacity="0.28"/>
<circle cx="231.118" cy="61.573" r="0.602283" fill="white" fill-opacity="0.28"/>
<circle cx="240.755" cy="61.573" r="0.602283" fill="white" fill-opacity="0.28"/>
<circle cx="250.391" cy="61.573" r="0.602283" fill="white" fill-opacity="0.28"/>
<circle cx="260.028" cy="61.573" r="0.602283" fill="white" fill-opacity="0.28"/>
<circle cx="9.48119" cy="71.2097" r="0.602283" fill="white" fill-opacity="0.28"/>
<circle cx="19.114" cy="71.2097" r="0.602283" fill="white" fill-opacity="0.28"/>
<circle cx="28.7507" cy="71.2097" r="0.602283" fill="white" fill-opacity="0.28"/>
<circle cx="38.3874" cy="71.2097" r="0.602283" fill="white" fill-opacity="0.28"/>
<circle cx="48.0242" cy="71.2097" r="0.602283" fill="white" fill-opacity="0.28"/>
<circle cx="57.6609" cy="71.2097" r="0.602283" fill="white" fill-opacity="0.28"/>
<circle cx="67.2976" cy="71.2097" r="0.602283" fill="white" fill-opacity="0.28"/>
<circle cx="76.9343" cy="71.2097" r="0.602283" fill="white" fill-opacity="0.28"/>
<circle cx="86.571" cy="71.2097" r="0.602283" fill="white" fill-opacity="0.28"/>
<circle cx="96.2077" cy="71.2097" r="0.602283" fill="white" fill-opacity="0.28"/>
<circle cx="105.844" cy="71.2097" r="0.602283" fill="white" fill-opacity="0.28"/>
<circle cx="115.481" cy="71.2097" r="0.602283" fill="white" fill-opacity="0.28"/>
<circle cx="125.118" cy="71.2097" r="0.602283" fill="white" fill-opacity="0.28"/>
<circle cx="134.755" cy="71.2097" r="0.602283" fill="white" fill-opacity="0.28"/>
<circle cx="144.391" cy="71.2097" r="0.602283" fill="white" fill-opacity="0.28"/>
<circle cx="154.028" cy="71.2097" r="0.602283" fill="white" fill-opacity="0.28"/>
<circle cx="163.665" cy="71.2097" r="0.602283" fill="white" fill-opacity="0.28"/>
<circle cx="173.301" cy="71.2097" r="0.602283" fill="white" fill-opacity="0.28"/>
<circle cx="182.938" cy="71.2097" r="0.602283" fill="white" fill-opacity="0.28"/>
<circle cx="192.575" cy="71.2097" r="0.602283" fill="white" fill-opacity="0.28"/>
<circle cx="202.212" cy="71.2097" r="0.602283" fill="white" fill-opacity="0.28"/>
<circle cx="211.844" cy="71.2097" r="0.602283" fill="white" fill-opacity="0.28"/>
<circle cx="221.481" cy="71.2097" r="0.602283" fill="white" fill-opacity="0.28"/>
<circle cx="231.118" cy="71.2097" r="0.602283" fill="white" fill-opacity="0.28"/>
<circle cx="240.755" cy="71.2097" r="0.602283" fill="white" fill-opacity="0.28"/>
<circle cx="250.391" cy="71.2097" r="0.602283" fill="white" fill-opacity="0.28"/>
<circle cx="260.028" cy="71.2097" r="0.602283" fill="white" fill-opacity="0.28"/>
<circle cx="9.48119" cy="80.8464" r="0.602283" fill="white" fill-opacity="0.28"/>
<circle cx="19.114" cy="80.8464" r="0.602283" fill="white" fill-opacity="0.28"/>
<circle cx="28.7507" cy="80.8464" r="0.602283" fill="white" fill-opacity="0.28"/>
<circle cx="38.3874" cy="80.8464" r="0.602283" fill="white" fill-opacity="0.28"/>
<circle cx="48.0242" cy="80.8464" r="0.602283" fill="white" fill-opacity="0.28"/>
<circle cx="57.6609" cy="80.8464" r="0.602283" fill="white" fill-opacity="0.28"/>
<circle cx="67.2976" cy="80.8464" r="0.602283" fill="white" fill-opacity="0.28"/>
<circle cx="76.9343" cy="80.8464" r="0.602283" fill="white" fill-opacity="0.28"/>
<circle cx="86.571" cy="80.8464" r="0.602283" fill="white" fill-opacity="0.28"/>
<circle cx="96.2077" cy="80.8464" r="0.602283" fill="white" fill-opacity="0.28"/>
<circle cx="105.844" cy="80.8464" r="0.602283" fill="white" fill-opacity="0.28"/>
<circle cx="115.481" cy="80.8464" r="0.602283" fill="white" fill-opacity="0.28"/>
<circle cx="125.118" cy="80.8464" r="0.602283" fill="white" fill-opacity="0.28"/>
<circle cx="134.755" cy="80.8464" r="0.602283" fill="white" fill-opacity="0.28"/>
<circle cx="144.391" cy="80.8464" r="0.602283" fill="white" fill-opacity="0.28"/>
<circle cx="154.028" cy="80.8464" r="0.602283" fill="white" fill-opacity="0.28"/>
<circle cx="163.665" cy="80.8464" r="0.602283" fill="white" fill-opacity="0.28"/>
<circle cx="173.301" cy="80.8464" r="0.602283" fill="white" fill-opacity="0.28"/>
<circle cx="182.938" cy="80.8464" r="0.602283" fill="white" fill-opacity="0.28"/>
<circle cx="192.575" cy="80.8464" r="0.602283" fill="white" fill-opacity="0.28"/>
<circle cx="202.212" cy="80.8464" r="0.602283" fill="white" fill-opacity="0.28"/>
<circle cx="211.844" cy="80.8464" r="0.602283" fill="white" fill-opacity="0.28"/>
<circle cx="221.481" cy="80.8464" r="0.602283" fill="white" fill-opacity="0.28"/>
<circle cx="231.118" cy="80.8464" r="0.602283" fill="white" fill-opacity="0.28"/>
<circle cx="240.755" cy="80.8464" r="0.602283" fill="white" fill-opacity="0.28"/>
<circle cx="250.391" cy="80.8464" r="0.602283" fill="white" fill-opacity="0.28"/>
<circle cx="260.028" cy="80.8464" r="0.602283" fill="white" fill-opacity="0.28"/>
<circle cx="9.48119" cy="90.4831" r="0.602283" fill="white" fill-opacity="0.28"/>
<circle cx="19.114" cy="90.4831" r="0.602283" fill="white" fill-opacity="0.28"/>
<circle cx="28.7507" cy="90.4831" r="0.602283" fill="white" fill-opacity="0.28"/>
<circle cx="38.3874" cy="90.4831" r="0.602283" fill="white" fill-opacity="0.28"/>
<circle cx="48.0242" cy="90.4831" r="0.602283" fill="white" fill-opacity="0.28"/>
<circle cx="57.6609" cy="90.4831" r="0.602283" fill="white" fill-opacity="0.28"/>
<circle cx="67.2976" cy="90.4831" r="0.602283" fill="white" fill-opacity="0.28"/>
<circle cx="76.9343" cy="90.4831" r="0.602283" fill="white" fill-opacity="0.28"/>
<circle cx="86.571" cy="90.4831" r="0.602283" fill="white" fill-opacity="0.28"/>
<circle cx="96.2077" cy="90.4831" r="0.602283" fill="white" fill-opacity="0.28"/>
<circle cx="105.844" cy="90.4831" r="0.602283" fill="white" fill-opacity="0.28"/>
<circle cx="115.481" cy="90.4831" r="0.602283" fill="white" fill-opacity="0.28"/>
<circle cx="125.118" cy="90.4831" r="0.602283" fill="white" fill-opacity="0.28"/>
<circle cx="134.755" cy="90.4831" r="0.602283" fill="white" fill-opacity="0.28"/>
<circle cx="144.391" cy="90.4831" r="0.602283" fill="white" fill-opacity="0.28"/>
<circle cx="154.028" cy="90.4831" r="0.602283" fill="white" fill-opacity="0.28"/>
<circle cx="163.665" cy="90.4831" r="0.602283" fill="white" fill-opacity="0.28"/>
<circle cx="173.301" cy="90.4831" r="0.602283" fill="white" fill-opacity="0.28"/>
<circle cx="182.938" cy="90.4831" r="0.602283" fill="white" fill-opacity="0.28"/>
<circle cx="192.575" cy="90.4831" r="0.602283" fill="white" fill-opacity="0.28"/>
<circle cx="202.212" cy="90.4831" r="0.602283" fill="white" fill-opacity="0.28"/>
<circle cx="211.844" cy="90.4831" r="0.602283" fill="white" fill-opacity="0.28"/>
<circle cx="221.481" cy="90.4831" r="0.602283" fill="white" fill-opacity="0.28"/>
<circle cx="231.118" cy="90.4831" r="0.602283" fill="white" fill-opacity="0.28"/>
<circle cx="240.755" cy="90.4831" r="0.602283" fill="white" fill-opacity="0.28"/>
<circle cx="250.391" cy="90.4831" r="0.602283" fill="white" fill-opacity="0.28"/>
<circle cx="260.028" cy="90.4831" r="0.602283" fill="white" fill-opacity="0.28"/>
<circle cx="9.48119" cy="100.118" r="0.602283" fill="white" fill-opacity="0.28"/>
<circle cx="19.114" cy="100.118" r="0.602283" fill="white" fill-opacity="0.28"/>
<circle cx="28.7507" cy="100.118" r="0.602283" fill="white" fill-opacity="0.28"/>
<circle cx="38.3874" cy="100.118" r="0.602283" fill="white" fill-opacity="0.28"/>
<circle cx="48.0242" cy="100.118" r="0.602283" fill="white" fill-opacity="0.28"/>
<circle cx="57.6609" cy="100.118" r="0.602283" fill="white" fill-opacity="0.28"/>
<circle cx="67.2976" cy="100.118" r="0.602283" fill="white" fill-opacity="0.28"/>
<circle cx="76.9343" cy="100.118" r="0.602283" fill="white" fill-opacity="0.28"/>
<circle cx="86.571" cy="100.118" r="0.602283" fill="white" fill-opacity="0.28"/>
<circle cx="96.2077" cy="100.118" r="0.602283" fill="white" fill-opacity="0.28"/>
<circle cx="105.844" cy="100.118" r="0.602283" fill="white" fill-opacity="0.28"/>
<circle cx="115.481" cy="100.118" r="0.602283" fill="white" fill-opacity="0.28"/>
<circle cx="125.118" cy="100.118" r="0.602283" fill="white" fill-opacity="0.28"/>
<circle cx="134.755" cy="100.118" r="0.602283" fill="white" fill-opacity="0.28"/>
<circle cx="144.391" cy="100.118" r="0.602283" fill="white" fill-opacity="0.28"/>
<circle cx="154.028" cy="100.118" r="0.602283" fill="white" fill-opacity="0.28"/>
<circle cx="163.665" cy="100.118" r="0.602283" fill="white" fill-opacity="0.28"/>
<circle cx="173.301" cy="100.118" r="0.602283" fill="white" fill-opacity="0.28"/>
<circle cx="182.938" cy="100.118" r="0.602283" fill="white" fill-opacity="0.28"/>
<circle cx="192.575" cy="100.118" r="0.602283" fill="white" fill-opacity="0.28"/>
<circle cx="202.212" cy="100.118" r="0.602283" fill="white" fill-opacity="0.28"/>
<circle cx="211.844" cy="100.118" r="0.602283" fill="white" fill-opacity="0.28"/>
<circle cx="221.481" cy="100.118" r="0.602283" fill="white" fill-opacity="0.28"/>
<circle cx="231.118" cy="100.118" r="0.602283" fill="white" fill-opacity="0.28"/>
<circle cx="240.755" cy="100.118" r="0.602283" fill="white" fill-opacity="0.28"/>
<circle cx="250.391" cy="100.118" r="0.602283" fill="white" fill-opacity="0.28"/>
<circle cx="260.028" cy="100.118" r="0.602283" fill="white" fill-opacity="0.28"/>
<circle cx="9.48119" cy="109.755" r="0.602283" fill="white" fill-opacity="0.28"/>
<circle cx="19.114" cy="109.755" r="0.602283" fill="white" fill-opacity="0.28"/>
<circle cx="28.7507" cy="109.755" r="0.602283" fill="white" fill-opacity="0.28"/>
<circle cx="38.3874" cy="109.755" r="0.602283" fill="white" fill-opacity="0.28"/>
<circle cx="48.0242" cy="109.755" r="0.602283" fill="white" fill-opacity="0.28"/>
<circle cx="57.6609" cy="109.755" r="0.602283" fill="white" fill-opacity="0.28"/>
<circle cx="67.2976" cy="109.755" r="0.602283" fill="white" fill-opacity="0.28"/>
<circle cx="76.9343" cy="109.755" r="0.602283" fill="white" fill-opacity="0.28"/>
<circle cx="86.571" cy="109.755" r="0.602283" fill="white" fill-opacity="0.28"/>
<circle cx="96.2077" cy="109.755" r="0.602283" fill="white" fill-opacity="0.28"/>
<circle cx="105.844" cy="109.755" r="0.602283" fill="white" fill-opacity="0.28"/>
<circle cx="115.481" cy="109.755" r="0.602283" fill="white" fill-opacity="0.28"/>
<circle cx="125.118" cy="109.755" r="0.602283" fill="white" fill-opacity="0.28"/>
<circle cx="134.755" cy="109.755" r="0.602283" fill="white" fill-opacity="0.28"/>
<circle cx="144.391" cy="109.755" r="0.602283" fill="white" fill-opacity="0.28"/>
<circle cx="154.028" cy="109.755" r="0.602283" fill="white" fill-opacity="0.28"/>
<circle cx="163.665" cy="109.755" r="0.602283" fill="white" fill-opacity="0.28"/>
<circle cx="173.301" cy="109.755" r="0.602283" fill="white" fill-opacity="0.28"/>
<circle cx="182.938" cy="109.755" r="0.602283" fill="white" fill-opacity="0.28"/>
<circle cx="192.575" cy="109.755" r="0.602283" fill="white" fill-opacity="0.28"/>
<circle cx="202.212" cy="109.755" r="0.602283" fill="white" fill-opacity="0.28"/>
<circle cx="211.844" cy="109.755" r="0.602283" fill="white" fill-opacity="0.28"/>
<circle cx="221.481" cy="109.755" r="0.602283" fill="white" fill-opacity="0.28"/>
<circle cx="231.118" cy="109.755" r="0.602283" fill="white" fill-opacity="0.28"/>
<circle cx="240.755" cy="109.755" r="0.602283" fill="white" fill-opacity="0.28"/>
<circle cx="250.391" cy="109.755" r="0.602283" fill="white" fill-opacity="0.28"/>
<circle cx="260.028" cy="109.755" r="0.602283" fill="white" fill-opacity="0.28"/>
<circle cx="9.48119" cy="119.391" r="0.602283" fill="white" fill-opacity="0.28"/>
<circle cx="19.114" cy="119.391" r="0.602283" fill="white" fill-opacity="0.28"/>
<circle cx="28.7507" cy="119.391" r="0.602283" fill="white" fill-opacity="0.28"/>
<circle cx="38.3874" cy="119.391" r="0.602283" fill="white" fill-opacity="0.28"/>
<circle cx="48.0242" cy="119.391" r="0.602283" fill="white" fill-opacity="0.28"/>
<circle cx="57.6609" cy="119.391" r="0.602283" fill="white" fill-opacity="0.28"/>
<circle cx="67.2976" cy="119.391" r="0.602283" fill="white" fill-opacity="0.28"/>
<circle cx="76.9343" cy="119.391" r="0.602283" fill="white" fill-opacity="0.28"/>
<circle cx="86.571" cy="119.391" r="0.602283" fill="white" fill-opacity="0.28"/>
<circle cx="96.2077" cy="119.391" r="0.602283" fill="white" fill-opacity="0.28"/>
<circle cx="105.844" cy="119.391" r="0.602283" fill="white" fill-opacity="0.28"/>
<circle cx="115.481" cy="119.391" r="0.602283" fill="white" fill-opacity="0.28"/>
<circle cx="125.118" cy="119.391" r="0.602283" fill="white" fill-opacity="0.28"/>
<circle cx="134.755" cy="119.391" r="0.602283" fill="white" fill-opacity="0.28"/>
<circle cx="144.391" cy="119.391" r="0.602283" fill="white" fill-opacity="0.28"/>
<circle cx="154.028" cy="119.391" r="0.602283" fill="white" fill-opacity="0.28"/>
<circle cx="163.665" cy="119.391" r="0.602283" fill="white" fill-opacity="0.28"/>
<circle cx="173.301" cy="119.391" r="0.602283" fill="white" fill-opacity="0.28"/>
<circle cx="182.938" cy="119.391" r="0.602283" fill="white" fill-opacity="0.28"/>
<circle cx="192.575" cy="119.391" r="0.602283" fill="white" fill-opacity="0.28"/>
<circle cx="202.212" cy="119.391" r="0.602283" fill="white" fill-opacity="0.28"/>
<circle cx="211.844" cy="119.391" r="0.602283" fill="white" fill-opacity="0.28"/>
<circle cx="221.481" cy="119.391" r="0.602283" fill="white" fill-opacity="0.28"/>
<circle cx="231.118" cy="119.391" r="0.602283" fill="white" fill-opacity="0.28"/>
<circle cx="240.755" cy="119.391" r="0.602283" fill="white" fill-opacity="0.28"/>
<circle cx="250.391" cy="119.391" r="0.602283" fill="white" fill-opacity="0.28"/>
<circle cx="260.028" cy="119.391" r="0.602283" fill="white" fill-opacity="0.28"/>
</g>
</g>
<defs>
<radialGradient id="paint0_radial_955_148556" cx="0" cy="0" r="1" gradientUnits="userSpaceOnUse" gradientTransform="translate(206.827 37.4815) rotate(90) scale(197.95 205.78)">
<stop stop-color="white"/>
<stop offset="1" stop-color="white" stop-opacity="0"/>
</radialGradient>
</defs>
</svg>
