<svg width="350" height="448" viewBox="0 0 350 448" fill="none" xmlns="http://www.w3.org/2000/svg">
<g clip-path="url(#clip0_955_217573)">
<g opacity="0.45">
<mask id="mask0_955_217573" style="mask-type:alpha" maskUnits="userSpaceOnUse" x="-32" y="-207" width="413" height="396">
<rect width="411.56" height="395.9" transform="matrix(1 0 0 -1 -31.0586 188.938)" fill="url(#paint0_radial_955_217573)"/>
</mask>
<g mask="url(#mask0_955_217573)">
<circle cx="0.602283" cy="0.602283" r="0.602283" transform="matrix(1 0 0 -1 5.67969 189.141)" fill="black" fill-opacity="0.46"/>
<circle cx="0.602283" cy="0.602283" r="0.602283" transform="matrix(1 0 0 -1 15.3164 189.141)" fill="black" fill-opacity="0.46"/>
<circle cx="0.602283" cy="0.602283" r="0.602283" transform="matrix(1 0 0 -1 24.9531 189.141)" fill="black" fill-opacity="0.46"/>
<circle cx="0.602283" cy="0.602283" r="0.602283" transform="matrix(1 0 0 -1 34.5898 189.141)" fill="black" fill-opacity="0.46"/>
<circle cx="0.602283" cy="0.602283" r="0.602283" transform="matrix(1 0 0 -1 44.2266 189.141)" fill="black" fill-opacity="0.46"/>
<circle cx="0.602283" cy="0.602283" r="0.602283" transform="matrix(1 0 0 -1 53.8633 189.141)" fill="black" fill-opacity="0.46"/>
<circle cx="0.602283" cy="0.602283" r="0.602283" transform="matrix(1 0 0 -1 63.5 189.141)" fill="black" fill-opacity="0.46"/>
<circle cx="0.602283" cy="0.602283" r="0.602283" transform="matrix(1 0 0 -1 73.1367 189.141)" fill="black" fill-opacity="0.46"/>
<circle cx="0.602283" cy="0.602283" r="0.602283" transform="matrix(1 0 0 -1 82.7734 189.141)" fill="black" fill-opacity="0.46"/>
<circle cx="0.602283" cy="0.602283" r="0.602283" transform="matrix(1 0 0 -1 92.4102 189.141)" fill="black" fill-opacity="0.46"/>
<circle cx="0.602283" cy="0.602283" r="0.602283" transform="matrix(1 0 0 -1 102.047 189.141)" fill="black" fill-opacity="0.46"/>
<circle cx="0.602283" cy="0.602283" r="0.602283" transform="matrix(1 0 0 -1 111.684 189.141)" fill="black" fill-opacity="0.46"/>
<circle cx="0.602283" cy="0.602283" r="0.602283" transform="matrix(1 0 0 -1 121.32 189.141)" fill="black" fill-opacity="0.46"/>
<circle cx="0.602283" cy="0.602283" r="0.602283" transform="matrix(1 0 0 -1 130.957 189.141)" fill="black" fill-opacity="0.46"/>
<circle cx="0.602283" cy="0.602283" r="0.602283" transform="matrix(1 0 0 -1 140.594 189.141)" fill="black" fill-opacity="0.46"/>
<circle cx="0.602283" cy="0.602283" r="0.602283" transform="matrix(1 0 0 -1 150.23 189.141)" fill="black" fill-opacity="0.46"/>
<circle cx="0.602283" cy="0.602283" r="0.602283" transform="matrix(1 0 0 -1 159.867 189.141)" fill="black" fill-opacity="0.46"/>
<circle cx="0.602283" cy="0.602283" r="0.602283" transform="matrix(1 0 0 -1 169.504 189.141)" fill="black" fill-opacity="0.46"/>
<circle cx="0.602283" cy="0.602283" r="0.602283" transform="matrix(1 0 0 -1 179.137 189.141)" fill="black" fill-opacity="0.46"/>
<circle cx="0.602283" cy="0.602283" r="0.602283" transform="matrix(1 0 0 -1 188.773 189.141)" fill="black" fill-opacity="0.46"/>
<circle cx="0.602283" cy="0.602283" r="0.602283" transform="matrix(1 0 0 -1 198.41 189.141)" fill="black" fill-opacity="0.46"/>
<circle cx="0.602283" cy="0.602283" r="0.602283" transform="matrix(1 0 0 -1 208.047 189.141)" fill="black" fill-opacity="0.46"/>
<circle cx="0.602283" cy="0.602283" r="0.602283" transform="matrix(1 0 0 -1 217.684 189.141)" fill="black" fill-opacity="0.46"/>
<circle cx="0.602283" cy="0.602283" r="0.602283" transform="matrix(1 0 0 -1 227.32 189.141)" fill="black" fill-opacity="0.46"/>
<circle cx="0.602283" cy="0.602283" r="0.602283" transform="matrix(1 0 0 -1 236.957 189.141)" fill="black" fill-opacity="0.46"/>
<circle cx="0.602283" cy="0.602283" r="0.602283" transform="matrix(1 0 0 -1 246.594 189.141)" fill="black" fill-opacity="0.46"/>
<circle cx="0.602283" cy="0.602283" r="0.602283" transform="matrix(1 0 0 -1 256.23 189.141)" fill="black" fill-opacity="0.46"/>
<circle cx="0.602283" cy="0.602283" r="0.602283" transform="matrix(1 0 0 -1 265.867 189.141)" fill="black" fill-opacity="0.46"/>
<circle cx="0.602283" cy="0.602283" r="0.602283" transform="matrix(1 0 0 -1 275.504 189.141)" fill="black" fill-opacity="0.46"/>
<circle cx="0.602283" cy="0.602283" r="0.602283" transform="matrix(1 0 0 -1 285.141 189.141)" fill="black" fill-opacity="0.46"/>
<circle cx="0.602283" cy="0.602283" r="0.602283" transform="matrix(1 0 0 -1 294.777 189.141)" fill="black" fill-opacity="0.46"/>
<circle cx="0.602283" cy="0.602283" r="0.602283" transform="matrix(1 0 0 -1 304.414 189.141)" fill="black" fill-opacity="0.46"/>
<circle cx="0.602283" cy="0.602283" r="0.602283" transform="matrix(1 0 0 -1 314.051 189.141)" fill="black" fill-opacity="0.46"/>
<circle cx="0.602283" cy="0.602283" r="0.602283" transform="matrix(1 0 0 -1 323.688 189.141)" fill="black" fill-opacity="0.46"/>
<circle cx="0.602283" cy="0.602283" r="0.602283" transform="matrix(1 0 0 -1 333.324 189.141)" fill="black" fill-opacity="0.46"/>
<circle cx="0.602283" cy="0.602283" r="0.602283" transform="matrix(1 0 0 -1 342.961 189.141)" fill="black" fill-opacity="0.46"/>
<circle cx="0.602283" cy="0.602283" r="0.602283" transform="matrix(1 0 0 -1 5.67969 179.504)" fill="black" fill-opacity="0.46"/>
<circle cx="0.602283" cy="0.602283" r="0.602283" transform="matrix(1 0 0 -1 15.3164 179.504)" fill="black" fill-opacity="0.46"/>
<circle cx="0.602283" cy="0.602283" r="0.602283" transform="matrix(1 0 0 -1 24.9531 179.504)" fill="black" fill-opacity="0.46"/>
<circle cx="0.602283" cy="0.602283" r="0.602283" transform="matrix(1 0 0 -1 34.5898 179.504)" fill="black" fill-opacity="0.46"/>
<circle cx="0.602283" cy="0.602283" r="0.602283" transform="matrix(1 0 0 -1 44.2266 179.504)" fill="black" fill-opacity="0.46"/>
<circle cx="0.602283" cy="0.602283" r="0.602283" transform="matrix(1 0 0 -1 53.8633 179.504)" fill="black" fill-opacity="0.46"/>
<circle cx="0.602283" cy="0.602283" r="0.602283" transform="matrix(1 0 0 -1 63.5 179.504)" fill="black" fill-opacity="0.46"/>
<circle cx="0.602283" cy="0.602283" r="0.602283" transform="matrix(1 0 0 -1 73.1367 179.504)" fill="black" fill-opacity="0.46"/>
<circle cx="0.602283" cy="0.602283" r="0.602283" transform="matrix(1 0 0 -1 82.7734 179.504)" fill="black" fill-opacity="0.46"/>
<circle cx="0.602283" cy="0.602283" r="0.602283" transform="matrix(1 0 0 -1 92.4102 179.504)" fill="black" fill-opacity="0.46"/>
<circle cx="0.602283" cy="0.602283" r="0.602283" transform="matrix(1 0 0 -1 102.047 179.504)" fill="black" fill-opacity="0.46"/>
<circle cx="0.602283" cy="0.602283" r="0.602283" transform="matrix(1 0 0 -1 111.684 179.504)" fill="black" fill-opacity="0.46"/>
<circle cx="0.602283" cy="0.602283" r="0.602283" transform="matrix(1 0 0 -1 121.32 179.504)" fill="black" fill-opacity="0.46"/>
<circle cx="0.602283" cy="0.602283" r="0.602283" transform="matrix(1 0 0 -1 130.957 179.504)" fill="black" fill-opacity="0.46"/>
<circle cx="0.602283" cy="0.602283" r="0.602283" transform="matrix(1 0 0 -1 140.594 179.504)" fill="black" fill-opacity="0.46"/>
<circle cx="0.602283" cy="0.602283" r="0.602283" transform="matrix(1 0 0 -1 150.23 179.504)" fill="black" fill-opacity="0.46"/>
<circle cx="0.602283" cy="0.602283" r="0.602283" transform="matrix(1 0 0 -1 159.867 179.504)" fill="black" fill-opacity="0.46"/>
<circle cx="0.602283" cy="0.602283" r="0.602283" transform="matrix(1 0 0 -1 169.504 179.504)" fill="black" fill-opacity="0.46"/>
<circle cx="0.602283" cy="0.602283" r="0.602283" transform="matrix(1 0 0 -1 179.137 179.504)" fill="black" fill-opacity="0.46"/>
<circle cx="0.602283" cy="0.602283" r="0.602283" transform="matrix(1 0 0 -1 188.773 179.504)" fill="black" fill-opacity="0.46"/>
<circle cx="0.602283" cy="0.602283" r="0.602283" transform="matrix(1 0 0 -1 198.41 179.504)" fill="black" fill-opacity="0.46"/>
<circle cx="0.602283" cy="0.602283" r="0.602283" transform="matrix(1 0 0 -1 208.047 179.504)" fill="black" fill-opacity="0.46"/>
<circle cx="0.602283" cy="0.602283" r="0.602283" transform="matrix(1 0 0 -1 217.684 179.504)" fill="black" fill-opacity="0.46"/>
<circle cx="0.602283" cy="0.602283" r="0.602283" transform="matrix(1 0 0 -1 227.32 179.504)" fill="black" fill-opacity="0.46"/>
<circle cx="0.602283" cy="0.602283" r="0.602283" transform="matrix(1 0 0 -1 236.957 179.504)" fill="black" fill-opacity="0.46"/>
<circle cx="0.602283" cy="0.602283" r="0.602283" transform="matrix(1 0 0 -1 246.594 179.504)" fill="black" fill-opacity="0.46"/>
<circle cx="0.602283" cy="0.602283" r="0.602283" transform="matrix(1 0 0 -1 256.23 179.504)" fill="black" fill-opacity="0.46"/>
<circle cx="0.602283" cy="0.602283" r="0.602283" transform="matrix(1 0 0 -1 265.867 179.504)" fill="black" fill-opacity="0.46"/>
<circle cx="0.602283" cy="0.602283" r="0.602283" transform="matrix(1 0 0 -1 275.504 179.504)" fill="black" fill-opacity="0.46"/>
<circle cx="0.602283" cy="0.602283" r="0.602283" transform="matrix(1 0 0 -1 285.141 179.504)" fill="black" fill-opacity="0.46"/>
<circle cx="0.602283" cy="0.602283" r="0.602283" transform="matrix(1 0 0 -1 294.777 179.504)" fill="black" fill-opacity="0.46"/>
<circle cx="0.602283" cy="0.602283" r="0.602283" transform="matrix(1 0 0 -1 304.414 179.504)" fill="black" fill-opacity="0.46"/>
<circle cx="0.602283" cy="0.602283" r="0.602283" transform="matrix(1 0 0 -1 314.051 179.504)" fill="black" fill-opacity="0.46"/>
<circle cx="0.602283" cy="0.602283" r="0.602283" transform="matrix(1 0 0 -1 323.688 179.504)" fill="black" fill-opacity="0.46"/>
<circle cx="0.602283" cy="0.602283" r="0.602283" transform="matrix(1 0 0 -1 333.324 179.504)" fill="black" fill-opacity="0.46"/>
<circle cx="0.602283" cy="0.602283" r="0.602283" transform="matrix(1 0 0 -1 342.961 179.504)" fill="black" fill-opacity="0.46"/>
<circle cx="0.602283" cy="0.602283" r="0.602283" transform="matrix(1 0 0 -1 5.67969 169.867)" fill="black" fill-opacity="0.46"/>
<circle cx="0.602283" cy="0.602283" r="0.602283" transform="matrix(1 0 0 -1 15.3164 169.867)" fill="black" fill-opacity="0.46"/>
<circle cx="0.602283" cy="0.602283" r="0.602283" transform="matrix(1 0 0 -1 24.9531 169.867)" fill="black" fill-opacity="0.46"/>
<circle cx="0.602283" cy="0.602283" r="0.602283" transform="matrix(1 0 0 -1 34.5898 169.867)" fill="black" fill-opacity="0.46"/>
<circle cx="0.602283" cy="0.602283" r="0.602283" transform="matrix(1 0 0 -1 44.2266 169.867)" fill="black" fill-opacity="0.46"/>
<circle cx="0.602283" cy="0.602283" r="0.602283" transform="matrix(1 0 0 -1 53.8633 169.867)" fill="black" fill-opacity="0.46"/>
<circle cx="0.602283" cy="0.602283" r="0.602283" transform="matrix(1 0 0 -1 63.5 169.867)" fill="black" fill-opacity="0.46"/>
<circle cx="0.602283" cy="0.602283" r="0.602283" transform="matrix(1 0 0 -1 73.1367 169.867)" fill="black" fill-opacity="0.46"/>
<circle cx="0.602283" cy="0.602283" r="0.602283" transform="matrix(1 0 0 -1 82.7734 169.867)" fill="black" fill-opacity="0.46"/>
<circle cx="0.602283" cy="0.602283" r="0.602283" transform="matrix(1 0 0 -1 92.4102 169.867)" fill="black" fill-opacity="0.46"/>
<circle cx="0.602283" cy="0.602283" r="0.602283" transform="matrix(1 0 0 -1 102.047 169.867)" fill="black" fill-opacity="0.46"/>
<circle cx="0.602283" cy="0.602283" r="0.602283" transform="matrix(1 0 0 -1 111.684 169.867)" fill="black" fill-opacity="0.46"/>
<circle cx="0.602283" cy="0.602283" r="0.602283" transform="matrix(1 0 0 -1 121.32 169.867)" fill="black" fill-opacity="0.46"/>
<circle cx="0.602283" cy="0.602283" r="0.602283" transform="matrix(1 0 0 -1 130.957 169.867)" fill="black" fill-opacity="0.46"/>
<circle cx="0.602283" cy="0.602283" r="0.602283" transform="matrix(1 0 0 -1 140.594 169.867)" fill="black" fill-opacity="0.46"/>
<circle cx="0.602283" cy="0.602283" r="0.602283" transform="matrix(1 0 0 -1 150.23 169.867)" fill="black" fill-opacity="0.46"/>
<circle cx="0.602283" cy="0.602283" r="0.602283" transform="matrix(1 0 0 -1 159.867 169.867)" fill="black" fill-opacity="0.46"/>
<circle cx="0.602283" cy="0.602283" r="0.602283" transform="matrix(1 0 0 -1 169.504 169.867)" fill="black" fill-opacity="0.46"/>
<circle cx="0.602283" cy="0.602283" r="0.602283" transform="matrix(1 0 0 -1 179.137 169.867)" fill="black" fill-opacity="0.46"/>
<circle cx="0.602283" cy="0.602283" r="0.602283" transform="matrix(1 0 0 -1 188.773 169.867)" fill="black" fill-opacity="0.46"/>
<circle cx="0.602283" cy="0.602283" r="0.602283" transform="matrix(1 0 0 -1 198.41 169.867)" fill="black" fill-opacity="0.46"/>
<circle cx="0.602283" cy="0.602283" r="0.602283" transform="matrix(1 0 0 -1 208.047 169.867)" fill="black" fill-opacity="0.46"/>
<circle cx="0.602283" cy="0.602283" r="0.602283" transform="matrix(1 0 0 -1 217.684 169.867)" fill="black" fill-opacity="0.46"/>
<circle cx="0.602283" cy="0.602283" r="0.602283" transform="matrix(1 0 0 -1 227.32 169.867)" fill="black" fill-opacity="0.46"/>
<circle cx="0.602283" cy="0.602283" r="0.602283" transform="matrix(1 0 0 -1 236.957 169.867)" fill="black" fill-opacity="0.46"/>
<circle cx="0.602283" cy="0.602283" r="0.602283" transform="matrix(1 0 0 -1 246.594 169.867)" fill="black" fill-opacity="0.46"/>
<circle cx="0.602283" cy="0.602283" r="0.602283" transform="matrix(1 0 0 -1 256.23 169.867)" fill="black" fill-opacity="0.46"/>
<circle cx="0.602283" cy="0.602283" r="0.602283" transform="matrix(1 0 0 -1 265.867 169.867)" fill="black" fill-opacity="0.46"/>
<circle cx="0.602283" cy="0.602283" r="0.602283" transform="matrix(1 0 0 -1 275.504 169.867)" fill="black" fill-opacity="0.46"/>
<circle cx="0.602283" cy="0.602283" r="0.602283" transform="matrix(1 0 0 -1 285.141 169.867)" fill="black" fill-opacity="0.46"/>
<circle cx="0.602283" cy="0.602283" r="0.602283" transform="matrix(1 0 0 -1 294.777 169.867)" fill="black" fill-opacity="0.46"/>
<circle cx="0.602283" cy="0.602283" r="0.602283" transform="matrix(1 0 0 -1 304.414 169.867)" fill="black" fill-opacity="0.46"/>
<circle cx="0.602283" cy="0.602283" r="0.602283" transform="matrix(1 0 0 -1 314.051 169.867)" fill="black" fill-opacity="0.46"/>
<circle cx="0.602283" cy="0.602283" r="0.602283" transform="matrix(1 0 0 -1 323.688 169.867)" fill="black" fill-opacity="0.46"/>
<circle cx="0.602283" cy="0.602283" r="0.602283" transform="matrix(1 0 0 -1 333.324 169.867)" fill="black" fill-opacity="0.46"/>
<circle cx="0.602283" cy="0.602283" r="0.602283" transform="matrix(1 0 0 -1 342.961 169.867)" fill="black" fill-opacity="0.46"/>
<circle cx="0.602283" cy="0.602283" r="0.602283" transform="matrix(1 0 0 -1 5.67969 160.23)" fill="black" fill-opacity="0.46"/>
<circle cx="0.602283" cy="0.602283" r="0.602283" transform="matrix(1 0 0 -1 15.3164 160.23)" fill="black" fill-opacity="0.46"/>
<circle cx="0.602283" cy="0.602283" r="0.602283" transform="matrix(1 0 0 -1 24.9531 160.23)" fill="black" fill-opacity="0.46"/>
<circle cx="0.602283" cy="0.602283" r="0.602283" transform="matrix(1 0 0 -1 34.5898 160.23)" fill="black" fill-opacity="0.46"/>
<circle cx="0.602283" cy="0.602283" r="0.602283" transform="matrix(1 0 0 -1 44.2266 160.23)" fill="black" fill-opacity="0.46"/>
<circle cx="0.602283" cy="0.602283" r="0.602283" transform="matrix(1 0 0 -1 53.8633 160.23)" fill="black" fill-opacity="0.46"/>
<circle cx="0.602283" cy="0.602283" r="0.602283" transform="matrix(1 0 0 -1 63.5 160.23)" fill="black" fill-opacity="0.46"/>
<circle cx="0.602283" cy="0.602283" r="0.602283" transform="matrix(1 0 0 -1 73.1367 160.23)" fill="black" fill-opacity="0.46"/>
<circle cx="0.602283" cy="0.602283" r="0.602283" transform="matrix(1 0 0 -1 82.7734 160.23)" fill="black" fill-opacity="0.46"/>
<circle cx="0.602283" cy="0.602283" r="0.602283" transform="matrix(1 0 0 -1 92.4102 160.23)" fill="black" fill-opacity="0.46"/>
<circle cx="0.602283" cy="0.602283" r="0.602283" transform="matrix(1 0 0 -1 102.047 160.23)" fill="black" fill-opacity="0.46"/>
<circle cx="0.602283" cy="0.602283" r="0.602283" transform="matrix(1 0 0 -1 111.684 160.23)" fill="black" fill-opacity="0.46"/>
<circle cx="0.602283" cy="0.602283" r="0.602283" transform="matrix(1 0 0 -1 121.32 160.23)" fill="black" fill-opacity="0.46"/>
<circle cx="0.602283" cy="0.602283" r="0.602283" transform="matrix(1 0 0 -1 130.957 160.23)" fill="black" fill-opacity="0.46"/>
<circle cx="0.602283" cy="0.602283" r="0.602283" transform="matrix(1 0 0 -1 140.594 160.23)" fill="black" fill-opacity="0.46"/>
<circle cx="0.602283" cy="0.602283" r="0.602283" transform="matrix(1 0 0 -1 150.23 160.23)" fill="black" fill-opacity="0.46"/>
<circle cx="0.602283" cy="0.602283" r="0.602283" transform="matrix(1 0 0 -1 159.867 160.23)" fill="black" fill-opacity="0.46"/>
<circle cx="0.602283" cy="0.602283" r="0.602283" transform="matrix(1 0 0 -1 169.504 160.23)" fill="black" fill-opacity="0.46"/>
<circle cx="0.602283" cy="0.602283" r="0.602283" transform="matrix(1 0 0 -1 179.137 160.23)" fill="black" fill-opacity="0.46"/>
<circle cx="0.602283" cy="0.602283" r="0.602283" transform="matrix(1 0 0 -1 188.773 160.23)" fill="black" fill-opacity="0.46"/>
<circle cx="0.602283" cy="0.602283" r="0.602283" transform="matrix(1 0 0 -1 198.41 160.23)" fill="black" fill-opacity="0.46"/>
<circle cx="0.602283" cy="0.602283" r="0.602283" transform="matrix(1 0 0 -1 208.047 160.23)" fill="black" fill-opacity="0.46"/>
<circle cx="0.602283" cy="0.602283" r="0.602283" transform="matrix(1 0 0 -1 217.684 160.23)" fill="black" fill-opacity="0.46"/>
<circle cx="0.602283" cy="0.602283" r="0.602283" transform="matrix(1 0 0 -1 227.32 160.23)" fill="black" fill-opacity="0.46"/>
<circle cx="0.602283" cy="0.602283" r="0.602283" transform="matrix(1 0 0 -1 236.957 160.23)" fill="black" fill-opacity="0.46"/>
<circle cx="0.602283" cy="0.602283" r="0.602283" transform="matrix(1 0 0 -1 246.594 160.23)" fill="black" fill-opacity="0.46"/>
<circle cx="0.602283" cy="0.602283" r="0.602283" transform="matrix(1 0 0 -1 256.23 160.23)" fill="black" fill-opacity="0.46"/>
<circle cx="0.602283" cy="0.602283" r="0.602283" transform="matrix(1 0 0 -1 265.867 160.23)" fill="black" fill-opacity="0.46"/>
<circle cx="0.602283" cy="0.602283" r="0.602283" transform="matrix(1 0 0 -1 275.504 160.23)" fill="black" fill-opacity="0.46"/>
<circle cx="0.602283" cy="0.602283" r="0.602283" transform="matrix(1 0 0 -1 285.141 160.23)" fill="black" fill-opacity="0.46"/>
<circle cx="0.602283" cy="0.602283" r="0.602283" transform="matrix(1 0 0 -1 294.777 160.23)" fill="black" fill-opacity="0.46"/>
<circle cx="0.602283" cy="0.602283" r="0.602283" transform="matrix(1 0 0 -1 304.414 160.23)" fill="black" fill-opacity="0.46"/>
<circle cx="0.602283" cy="0.602283" r="0.602283" transform="matrix(1 0 0 -1 314.051 160.23)" fill="black" fill-opacity="0.46"/>
<circle cx="0.602283" cy="0.602283" r="0.602283" transform="matrix(1 0 0 -1 323.688 160.23)" fill="black" fill-opacity="0.46"/>
<circle cx="0.602283" cy="0.602283" r="0.602283" transform="matrix(1 0 0 -1 333.324 160.23)" fill="black" fill-opacity="0.46"/>
<circle cx="0.602283" cy="0.602283" r="0.602283" transform="matrix(1 0 0 -1 342.961 160.23)" fill="black" fill-opacity="0.46"/>
<circle cx="0.602283" cy="0.602283" r="0.602283" transform="matrix(1 0 0 -1 5.67969 150.594)" fill="black" fill-opacity="0.46"/>
<circle cx="0.602283" cy="0.602283" r="0.602283" transform="matrix(1 0 0 -1 15.3164 150.594)" fill="black" fill-opacity="0.46"/>
<circle cx="0.602283" cy="0.602283" r="0.602283" transform="matrix(1 0 0 -1 24.9531 150.594)" fill="black" fill-opacity="0.46"/>
<circle cx="0.602283" cy="0.602283" r="0.602283" transform="matrix(1 0 0 -1 34.5898 150.594)" fill="black" fill-opacity="0.46"/>
<circle cx="0.602283" cy="0.602283" r="0.602283" transform="matrix(1 0 0 -1 44.2266 150.594)" fill="black" fill-opacity="0.46"/>
<circle cx="0.602283" cy="0.602283" r="0.602283" transform="matrix(1 0 0 -1 53.8633 150.594)" fill="black" fill-opacity="0.46"/>
<circle cx="0.602283" cy="0.602283" r="0.602283" transform="matrix(1 0 0 -1 63.5 150.594)" fill="black" fill-opacity="0.46"/>
<circle cx="0.602283" cy="0.602283" r="0.602283" transform="matrix(1 0 0 -1 73.1367 150.594)" fill="black" fill-opacity="0.46"/>
<circle cx="0.602283" cy="0.602283" r="0.602283" transform="matrix(1 0 0 -1 82.7734 150.594)" fill="black" fill-opacity="0.46"/>
<circle cx="0.602283" cy="0.602283" r="0.602283" transform="matrix(1 0 0 -1 92.4102 150.594)" fill="black" fill-opacity="0.46"/>
<circle cx="0.602283" cy="0.602283" r="0.602283" transform="matrix(1 0 0 -1 102.047 150.594)" fill="black" fill-opacity="0.46"/>
<circle cx="0.602283" cy="0.602283" r="0.602283" transform="matrix(1 0 0 -1 111.684 150.594)" fill="black" fill-opacity="0.46"/>
<circle cx="0.602283" cy="0.602283" r="0.602283" transform="matrix(1 0 0 -1 121.32 150.594)" fill="black" fill-opacity="0.46"/>
<circle cx="0.602283" cy="0.602283" r="0.602283" transform="matrix(1 0 0 -1 130.957 150.594)" fill="black" fill-opacity="0.46"/>
<circle cx="0.602283" cy="0.602283" r="0.602283" transform="matrix(1 0 0 -1 140.594 150.594)" fill="black" fill-opacity="0.46"/>
<circle cx="0.602283" cy="0.602283" r="0.602283" transform="matrix(1 0 0 -1 150.23 150.594)" fill="black" fill-opacity="0.46"/>
<circle cx="0.602283" cy="0.602283" r="0.602283" transform="matrix(1 0 0 -1 159.867 150.594)" fill="black" fill-opacity="0.46"/>
<circle cx="0.602283" cy="0.602283" r="0.602283" transform="matrix(1 0 0 -1 169.504 150.594)" fill="black" fill-opacity="0.46"/>
<circle cx="0.602283" cy="0.602283" r="0.602283" transform="matrix(1 0 0 -1 179.137 150.594)" fill="black" fill-opacity="0.46"/>
<circle cx="0.602283" cy="0.602283" r="0.602283" transform="matrix(1 0 0 -1 188.773 150.594)" fill="black" fill-opacity="0.46"/>
<circle cx="0.602283" cy="0.602283" r="0.602283" transform="matrix(1 0 0 -1 198.41 150.594)" fill="black" fill-opacity="0.46"/>
<circle cx="0.602283" cy="0.602283" r="0.602283" transform="matrix(1 0 0 -1 208.047 150.594)" fill="black" fill-opacity="0.46"/>
<circle cx="0.602283" cy="0.602283" r="0.602283" transform="matrix(1 0 0 -1 217.684 150.594)" fill="black" fill-opacity="0.46"/>
<circle cx="0.602283" cy="0.602283" r="0.602283" transform="matrix(1 0 0 -1 227.32 150.594)" fill="black" fill-opacity="0.46"/>
<circle cx="0.602283" cy="0.602283" r="0.602283" transform="matrix(1 0 0 -1 236.957 150.594)" fill="black" fill-opacity="0.46"/>
<circle cx="0.602283" cy="0.602283" r="0.602283" transform="matrix(1 0 0 -1 246.594 150.594)" fill="black" fill-opacity="0.46"/>
<circle cx="0.602283" cy="0.602283" r="0.602283" transform="matrix(1 0 0 -1 256.23 150.594)" fill="black" fill-opacity="0.46"/>
<circle cx="0.602283" cy="0.602283" r="0.602283" transform="matrix(1 0 0 -1 265.867 150.594)" fill="black" fill-opacity="0.46"/>
<circle cx="0.602283" cy="0.602283" r="0.602283" transform="matrix(1 0 0 -1 275.504 150.594)" fill="black" fill-opacity="0.46"/>
<circle cx="0.602283" cy="0.602283" r="0.602283" transform="matrix(1 0 0 -1 285.141 150.594)" fill="black" fill-opacity="0.46"/>
<circle cx="0.602283" cy="0.602283" r="0.602283" transform="matrix(1 0 0 -1 294.777 150.594)" fill="black" fill-opacity="0.46"/>
<circle cx="0.602283" cy="0.602283" r="0.602283" transform="matrix(1 0 0 -1 304.414 150.594)" fill="black" fill-opacity="0.46"/>
<circle cx="0.602283" cy="0.602283" r="0.602283" transform="matrix(1 0 0 -1 314.051 150.594)" fill="black" fill-opacity="0.46"/>
<circle cx="0.602283" cy="0.602283" r="0.602283" transform="matrix(1 0 0 -1 323.688 150.594)" fill="black" fill-opacity="0.46"/>
<circle cx="0.602283" cy="0.602283" r="0.602283" transform="matrix(1 0 0 -1 333.324 150.594)" fill="black" fill-opacity="0.46"/>
<circle cx="0.602283" cy="0.602283" r="0.602283" transform="matrix(1 0 0 -1 342.961 150.594)" fill="black" fill-opacity="0.46"/>
<circle cx="0.602283" cy="0.602283" r="0.602283" transform="matrix(1 0 0 -1 5.67969 140.957)" fill="black" fill-opacity="0.46"/>
<circle cx="0.602283" cy="0.602283" r="0.602283" transform="matrix(1 0 0 -1 15.3164 140.957)" fill="black" fill-opacity="0.46"/>
<circle cx="0.602283" cy="0.602283" r="0.602283" transform="matrix(1 0 0 -1 24.9531 140.957)" fill="black" fill-opacity="0.46"/>
<circle cx="0.602283" cy="0.602283" r="0.602283" transform="matrix(1 0 0 -1 34.5898 140.957)" fill="black" fill-opacity="0.46"/>
<circle cx="0.602283" cy="0.602283" r="0.602283" transform="matrix(1 0 0 -1 44.2266 140.957)" fill="black" fill-opacity="0.46"/>
<circle cx="0.602283" cy="0.602283" r="0.602283" transform="matrix(1 0 0 -1 53.8633 140.957)" fill="black" fill-opacity="0.46"/>
<circle cx="0.602283" cy="0.602283" r="0.602283" transform="matrix(1 0 0 -1 63.5 140.957)" fill="black" fill-opacity="0.46"/>
<circle cx="0.602283" cy="0.602283" r="0.602283" transform="matrix(1 0 0 -1 73.1367 140.957)" fill="black" fill-opacity="0.46"/>
<circle cx="0.602283" cy="0.602283" r="0.602283" transform="matrix(1 0 0 -1 82.7734 140.957)" fill="black" fill-opacity="0.46"/>
<circle cx="0.602283" cy="0.602283" r="0.602283" transform="matrix(1 0 0 -1 92.4102 140.957)" fill="black" fill-opacity="0.46"/>
<circle cx="0.602283" cy="0.602283" r="0.602283" transform="matrix(1 0 0 -1 102.047 140.957)" fill="black" fill-opacity="0.46"/>
<circle cx="0.602283" cy="0.602283" r="0.602283" transform="matrix(1 0 0 -1 111.684 140.957)" fill="black" fill-opacity="0.46"/>
<circle cx="0.602283" cy="0.602283" r="0.602283" transform="matrix(1 0 0 -1 121.32 140.957)" fill="black" fill-opacity="0.46"/>
<circle cx="0.602283" cy="0.602283" r="0.602283" transform="matrix(1 0 0 -1 130.957 140.957)" fill="black" fill-opacity="0.46"/>
<circle cx="0.602283" cy="0.602283" r="0.602283" transform="matrix(1 0 0 -1 140.594 140.957)" fill="black" fill-opacity="0.46"/>
<circle cx="0.602283" cy="0.602283" r="0.602283" transform="matrix(1 0 0 -1 150.23 140.957)" fill="black" fill-opacity="0.46"/>
<circle cx="0.602283" cy="0.602283" r="0.602283" transform="matrix(1 0 0 -1 159.867 140.957)" fill="black" fill-opacity="0.46"/>
<circle cx="0.602283" cy="0.602283" r="0.602283" transform="matrix(1 0 0 -1 169.504 140.957)" fill="black" fill-opacity="0.46"/>
<circle cx="0.602283" cy="0.602283" r="0.602283" transform="matrix(1 0 0 -1 179.137 140.957)" fill="black" fill-opacity="0.46"/>
<circle cx="0.602283" cy="0.602283" r="0.602283" transform="matrix(1 0 0 -1 188.773 140.957)" fill="black" fill-opacity="0.46"/>
<circle cx="0.602283" cy="0.602283" r="0.602283" transform="matrix(1 0 0 -1 198.41 140.957)" fill="black" fill-opacity="0.46"/>
<circle cx="0.602283" cy="0.602283" r="0.602283" transform="matrix(1 0 0 -1 208.047 140.957)" fill="black" fill-opacity="0.46"/>
<circle cx="0.602283" cy="0.602283" r="0.602283" transform="matrix(1 0 0 -1 217.684 140.957)" fill="black" fill-opacity="0.46"/>
<circle cx="0.602283" cy="0.602283" r="0.602283" transform="matrix(1 0 0 -1 227.32 140.957)" fill="black" fill-opacity="0.46"/>
<circle cx="0.602283" cy="0.602283" r="0.602283" transform="matrix(1 0 0 -1 236.957 140.957)" fill="black" fill-opacity="0.46"/>
<circle cx="0.602283" cy="0.602283" r="0.602283" transform="matrix(1 0 0 -1 246.594 140.957)" fill="black" fill-opacity="0.46"/>
<circle cx="0.602283" cy="0.602283" r="0.602283" transform="matrix(1 0 0 -1 256.23 140.957)" fill="black" fill-opacity="0.46"/>
<circle cx="0.602283" cy="0.602283" r="0.602283" transform="matrix(1 0 0 -1 265.867 140.957)" fill="black" fill-opacity="0.46"/>
<circle cx="0.602283" cy="0.602283" r="0.602283" transform="matrix(1 0 0 -1 275.504 140.957)" fill="black" fill-opacity="0.46"/>
<circle cx="0.602283" cy="0.602283" r="0.602283" transform="matrix(1 0 0 -1 285.141 140.957)" fill="black" fill-opacity="0.46"/>
<circle cx="0.602283" cy="0.602283" r="0.602283" transform="matrix(1 0 0 -1 294.777 140.957)" fill="black" fill-opacity="0.46"/>
<circle cx="0.602283" cy="0.602283" r="0.602283" transform="matrix(1 0 0 -1 304.414 140.957)" fill="black" fill-opacity="0.46"/>
<circle cx="0.602283" cy="0.602283" r="0.602283" transform="matrix(1 0 0 -1 314.051 140.957)" fill="black" fill-opacity="0.46"/>
<circle cx="0.602283" cy="0.602283" r="0.602283" transform="matrix(1 0 0 -1 323.688 140.957)" fill="black" fill-opacity="0.46"/>
<circle cx="0.602283" cy="0.602283" r="0.602283" transform="matrix(1 0 0 -1 333.324 140.957)" fill="black" fill-opacity="0.46"/>
<circle cx="0.602283" cy="0.602283" r="0.602283" transform="matrix(1 0 0 -1 342.961 140.957)" fill="black" fill-opacity="0.46"/>
<circle cx="0.602283" cy="0.602283" r="0.602283" transform="matrix(1 0 0 -1 5.67969 131.322)" fill="black" fill-opacity="0.46"/>
<circle cx="0.602283" cy="0.602283" r="0.602283" transform="matrix(1 0 0 -1 15.3164 131.322)" fill="black" fill-opacity="0.46"/>
<circle cx="0.602283" cy="0.602283" r="0.602283" transform="matrix(1 0 0 -1 24.9531 131.322)" fill="black" fill-opacity="0.46"/>
<circle cx="0.602283" cy="0.602283" r="0.602283" transform="matrix(1 0 0 -1 34.5898 131.322)" fill="black" fill-opacity="0.46"/>
<circle cx="0.602283" cy="0.602283" r="0.602283" transform="matrix(1 0 0 -1 44.2266 131.322)" fill="black" fill-opacity="0.46"/>
<circle cx="0.602283" cy="0.602283" r="0.602283" transform="matrix(1 0 0 -1 53.8633 131.322)" fill="black" fill-opacity="0.46"/>
<circle cx="0.602283" cy="0.602283" r="0.602283" transform="matrix(1 0 0 -1 63.5 131.322)" fill="black" fill-opacity="0.46"/>
<circle cx="0.602283" cy="0.602283" r="0.602283" transform="matrix(1 0 0 -1 73.1367 131.322)" fill="black" fill-opacity="0.46"/>
<circle cx="0.602283" cy="0.602283" r="0.602283" transform="matrix(1 0 0 -1 82.7734 131.322)" fill="black" fill-opacity="0.46"/>
<circle cx="0.602283" cy="0.602283" r="0.602283" transform="matrix(1 0 0 -1 92.4102 131.322)" fill="black" fill-opacity="0.46"/>
<circle cx="0.602283" cy="0.602283" r="0.602283" transform="matrix(1 0 0 -1 102.047 131.322)" fill="black" fill-opacity="0.46"/>
<circle cx="0.602283" cy="0.602283" r="0.602283" transform="matrix(1 0 0 -1 111.684 131.322)" fill="black" fill-opacity="0.46"/>
<circle cx="0.602283" cy="0.602283" r="0.602283" transform="matrix(1 0 0 -1 121.32 131.322)" fill="black" fill-opacity="0.46"/>
<circle cx="0.602283" cy="0.602283" r="0.602283" transform="matrix(1 0 0 -1 130.957 131.322)" fill="black" fill-opacity="0.46"/>
<circle cx="0.602283" cy="0.602283" r="0.602283" transform="matrix(1 0 0 -1 140.594 131.322)" fill="black" fill-opacity="0.46"/>
<circle cx="0.602283" cy="0.602283" r="0.602283" transform="matrix(1 0 0 -1 150.23 131.322)" fill="black" fill-opacity="0.46"/>
<circle cx="0.602283" cy="0.602283" r="0.602283" transform="matrix(1 0 0 -1 159.867 131.322)" fill="black" fill-opacity="0.46"/>
<circle cx="0.602283" cy="0.602283" r="0.602283" transform="matrix(1 0 0 -1 169.504 131.322)" fill="black" fill-opacity="0.46"/>
<circle cx="0.602283" cy="0.602283" r="0.602283" transform="matrix(1 0 0 -1 179.137 131.322)" fill="black" fill-opacity="0.46"/>
<circle cx="0.602283" cy="0.602283" r="0.602283" transform="matrix(1 0 0 -1 188.773 131.322)" fill="black" fill-opacity="0.46"/>
<circle cx="0.602283" cy="0.602283" r="0.602283" transform="matrix(1 0 0 -1 198.41 131.322)" fill="black" fill-opacity="0.46"/>
<circle cx="0.602283" cy="0.602283" r="0.602283" transform="matrix(1 0 0 -1 208.047 131.322)" fill="black" fill-opacity="0.46"/>
<circle cx="0.602283" cy="0.602283" r="0.602283" transform="matrix(1 0 0 -1 217.684 131.322)" fill="black" fill-opacity="0.46"/>
<circle cx="0.602283" cy="0.602283" r="0.602283" transform="matrix(1 0 0 -1 227.32 131.322)" fill="black" fill-opacity="0.46"/>
<circle cx="0.602283" cy="0.602283" r="0.602283" transform="matrix(1 0 0 -1 236.957 131.322)" fill="black" fill-opacity="0.46"/>
<circle cx="0.602283" cy="0.602283" r="0.602283" transform="matrix(1 0 0 -1 246.594 131.322)" fill="black" fill-opacity="0.46"/>
<circle cx="0.602283" cy="0.602283" r="0.602283" transform="matrix(1 0 0 -1 256.23 131.322)" fill="black" fill-opacity="0.46"/>
<circle cx="0.602283" cy="0.602283" r="0.602283" transform="matrix(1 0 0 -1 265.867 131.322)" fill="black" fill-opacity="0.46"/>
<circle cx="0.602283" cy="0.602283" r="0.602283" transform="matrix(1 0 0 -1 275.504 131.322)" fill="black" fill-opacity="0.46"/>
<circle cx="0.602283" cy="0.602283" r="0.602283" transform="matrix(1 0 0 -1 285.141 131.322)" fill="black" fill-opacity="0.46"/>
<circle cx="0.602283" cy="0.602283" r="0.602283" transform="matrix(1 0 0 -1 294.777 131.322)" fill="black" fill-opacity="0.46"/>
<circle cx="0.602283" cy="0.602283" r="0.602283" transform="matrix(1 0 0 -1 304.414 131.322)" fill="black" fill-opacity="0.46"/>
<circle cx="0.602283" cy="0.602283" r="0.602283" transform="matrix(1 0 0 -1 314.051 131.322)" fill="black" fill-opacity="0.46"/>
<circle cx="0.602283" cy="0.602283" r="0.602283" transform="matrix(1 0 0 -1 323.688 131.322)" fill="black" fill-opacity="0.46"/>
<circle cx="0.602283" cy="0.602283" r="0.602283" transform="matrix(1 0 0 -1 333.324 131.322)" fill="black" fill-opacity="0.46"/>
<circle cx="0.602283" cy="0.602283" r="0.602283" transform="matrix(1 0 0 -1 342.961 131.322)" fill="black" fill-opacity="0.46"/>
<circle cx="0.602283" cy="0.602283" r="0.602283" transform="matrix(1 0 0 -1 5.67969 121.686)" fill="black" fill-opacity="0.46"/>
<circle cx="0.602283" cy="0.602283" r="0.602283" transform="matrix(1 0 0 -1 15.3164 121.686)" fill="black" fill-opacity="0.46"/>
<circle cx="0.602283" cy="0.602283" r="0.602283" transform="matrix(1 0 0 -1 24.9531 121.686)" fill="black" fill-opacity="0.46"/>
<circle cx="0.602283" cy="0.602283" r="0.602283" transform="matrix(1 0 0 -1 34.5898 121.686)" fill="black" fill-opacity="0.46"/>
<circle cx="0.602283" cy="0.602283" r="0.602283" transform="matrix(1 0 0 -1 44.2266 121.686)" fill="black" fill-opacity="0.46"/>
<circle cx="0.602283" cy="0.602283" r="0.602283" transform="matrix(1 0 0 -1 53.8633 121.686)" fill="black" fill-opacity="0.46"/>
<circle cx="0.602283" cy="0.602283" r="0.602283" transform="matrix(1 0 0 -1 63.5 121.686)" fill="black" fill-opacity="0.46"/>
<circle cx="0.602283" cy="0.602283" r="0.602283" transform="matrix(1 0 0 -1 73.1367 121.686)" fill="black" fill-opacity="0.46"/>
<circle cx="0.602283" cy="0.602283" r="0.602283" transform="matrix(1 0 0 -1 82.7734 121.686)" fill="black" fill-opacity="0.46"/>
<circle cx="0.602283" cy="0.602283" r="0.602283" transform="matrix(1 0 0 -1 92.4102 121.686)" fill="black" fill-opacity="0.46"/>
<circle cx="0.602283" cy="0.602283" r="0.602283" transform="matrix(1 0 0 -1 102.047 121.686)" fill="black" fill-opacity="0.46"/>
<circle cx="0.602283" cy="0.602283" r="0.602283" transform="matrix(1 0 0 -1 111.684 121.686)" fill="black" fill-opacity="0.46"/>
<circle cx="0.602283" cy="0.602283" r="0.602283" transform="matrix(1 0 0 -1 121.32 121.686)" fill="black" fill-opacity="0.46"/>
<circle cx="0.602283" cy="0.602283" r="0.602283" transform="matrix(1 0 0 -1 130.957 121.686)" fill="black" fill-opacity="0.46"/>
<circle cx="0.602283" cy="0.602283" r="0.602283" transform="matrix(1 0 0 -1 140.594 121.686)" fill="black" fill-opacity="0.46"/>
<circle cx="0.602283" cy="0.602283" r="0.602283" transform="matrix(1 0 0 -1 150.23 121.686)" fill="black" fill-opacity="0.46"/>
<circle cx="0.602283" cy="0.602283" r="0.602283" transform="matrix(1 0 0 -1 159.867 121.686)" fill="black" fill-opacity="0.46"/>
<circle cx="0.602283" cy="0.602283" r="0.602283" transform="matrix(1 0 0 -1 169.504 121.686)" fill="black" fill-opacity="0.46"/>
<circle cx="0.602283" cy="0.602283" r="0.602283" transform="matrix(1 0 0 -1 179.137 121.686)" fill="black" fill-opacity="0.46"/>
<circle cx="0.602283" cy="0.602283" r="0.602283" transform="matrix(1 0 0 -1 188.773 121.686)" fill="black" fill-opacity="0.46"/>
<circle cx="0.602283" cy="0.602283" r="0.602283" transform="matrix(1 0 0 -1 198.41 121.686)" fill="black" fill-opacity="0.46"/>
<circle cx="0.602283" cy="0.602283" r="0.602283" transform="matrix(1 0 0 -1 208.047 121.686)" fill="black" fill-opacity="0.46"/>
<circle cx="0.602283" cy="0.602283" r="0.602283" transform="matrix(1 0 0 -1 217.684 121.686)" fill="black" fill-opacity="0.46"/>
<circle cx="0.602283" cy="0.602283" r="0.602283" transform="matrix(1 0 0 -1 227.32 121.686)" fill="black" fill-opacity="0.46"/>
<circle cx="0.602283" cy="0.602283" r="0.602283" transform="matrix(1 0 0 -1 236.957 121.686)" fill="black" fill-opacity="0.46"/>
<circle cx="0.602283" cy="0.602283" r="0.602283" transform="matrix(1 0 0 -1 246.594 121.686)" fill="black" fill-opacity="0.46"/>
<circle cx="0.602283" cy="0.602283" r="0.602283" transform="matrix(1 0 0 -1 256.23 121.686)" fill="black" fill-opacity="0.46"/>
<circle cx="0.602283" cy="0.602283" r="0.602283" transform="matrix(1 0 0 -1 265.867 121.686)" fill="black" fill-opacity="0.46"/>
<circle cx="0.602283" cy="0.602283" r="0.602283" transform="matrix(1 0 0 -1 275.504 121.686)" fill="black" fill-opacity="0.46"/>
<circle cx="0.602283" cy="0.602283" r="0.602283" transform="matrix(1 0 0 -1 285.141 121.686)" fill="black" fill-opacity="0.46"/>
<circle cx="0.602283" cy="0.602283" r="0.602283" transform="matrix(1 0 0 -1 294.777 121.686)" fill="black" fill-opacity="0.46"/>
<circle cx="0.602283" cy="0.602283" r="0.602283" transform="matrix(1 0 0 -1 304.414 121.686)" fill="black" fill-opacity="0.46"/>
<circle cx="0.602283" cy="0.602283" r="0.602283" transform="matrix(1 0 0 -1 314.051 121.686)" fill="black" fill-opacity="0.46"/>
<circle cx="0.602283" cy="0.602283" r="0.602283" transform="matrix(1 0 0 -1 323.688 121.686)" fill="black" fill-opacity="0.46"/>
<circle cx="0.602283" cy="0.602283" r="0.602283" transform="matrix(1 0 0 -1 333.324 121.686)" fill="black" fill-opacity="0.46"/>
<circle cx="0.602283" cy="0.602283" r="0.602283" transform="matrix(1 0 0 -1 342.961 121.686)" fill="black" fill-opacity="0.46"/>
<circle cx="0.602283" cy="0.602283" r="0.602283" transform="matrix(1 0 0 -1 5.67969 112.049)" fill="black" fill-opacity="0.46"/>
<circle cx="0.602283" cy="0.602283" r="0.602283" transform="matrix(1 0 0 -1 15.3164 112.049)" fill="black" fill-opacity="0.46"/>
<circle cx="0.602283" cy="0.602283" r="0.602283" transform="matrix(1 0 0 -1 24.9531 112.049)" fill="black" fill-opacity="0.46"/>
<circle cx="0.602283" cy="0.602283" r="0.602283" transform="matrix(1 0 0 -1 34.5898 112.049)" fill="black" fill-opacity="0.46"/>
<circle cx="0.602283" cy="0.602283" r="0.602283" transform="matrix(1 0 0 -1 44.2266 112.049)" fill="black" fill-opacity="0.46"/>
<circle cx="0.602283" cy="0.602283" r="0.602283" transform="matrix(1 0 0 -1 53.8633 112.049)" fill="black" fill-opacity="0.46"/>
<circle cx="0.602283" cy="0.602283" r="0.602283" transform="matrix(1 0 0 -1 63.5 112.049)" fill="black" fill-opacity="0.46"/>
<circle cx="0.602283" cy="0.602283" r="0.602283" transform="matrix(1 0 0 -1 73.1367 112.049)" fill="black" fill-opacity="0.46"/>
<circle cx="0.602283" cy="0.602283" r="0.602283" transform="matrix(1 0 0 -1 82.7734 112.049)" fill="black" fill-opacity="0.46"/>
<circle cx="0.602283" cy="0.602283" r="0.602283" transform="matrix(1 0 0 -1 92.4102 112.049)" fill="black" fill-opacity="0.46"/>
<circle cx="0.602283" cy="0.602283" r="0.602283" transform="matrix(1 0 0 -1 102.047 112.049)" fill="black" fill-opacity="0.46"/>
<circle cx="0.602283" cy="0.602283" r="0.602283" transform="matrix(1 0 0 -1 111.684 112.049)" fill="black" fill-opacity="0.46"/>
<circle cx="0.602283" cy="0.602283" r="0.602283" transform="matrix(1 0 0 -1 121.32 112.049)" fill="black" fill-opacity="0.46"/>
<circle cx="0.602283" cy="0.602283" r="0.602283" transform="matrix(1 0 0 -1 130.957 112.049)" fill="black" fill-opacity="0.46"/>
<circle cx="0.602283" cy="0.602283" r="0.602283" transform="matrix(1 0 0 -1 140.594 112.049)" fill="black" fill-opacity="0.46"/>
<circle cx="0.602283" cy="0.602283" r="0.602283" transform="matrix(1 0 0 -1 150.23 112.049)" fill="black" fill-opacity="0.46"/>
<circle cx="0.602283" cy="0.602283" r="0.602283" transform="matrix(1 0 0 -1 159.867 112.049)" fill="black" fill-opacity="0.46"/>
<circle cx="0.602283" cy="0.602283" r="0.602283" transform="matrix(1 0 0 -1 169.504 112.049)" fill="black" fill-opacity="0.46"/>
<circle cx="0.602283" cy="0.602283" r="0.602283" transform="matrix(1 0 0 -1 179.137 112.049)" fill="black" fill-opacity="0.46"/>
<circle cx="0.602283" cy="0.602283" r="0.602283" transform="matrix(1 0 0 -1 188.773 112.049)" fill="black" fill-opacity="0.46"/>
<circle cx="0.602283" cy="0.602283" r="0.602283" transform="matrix(1 0 0 -1 198.41 112.049)" fill="black" fill-opacity="0.46"/>
<circle cx="0.602283" cy="0.602283" r="0.602283" transform="matrix(1 0 0 -1 208.047 112.049)" fill="black" fill-opacity="0.46"/>
<circle cx="0.602283" cy="0.602283" r="0.602283" transform="matrix(1 0 0 -1 217.684 112.049)" fill="black" fill-opacity="0.46"/>
<circle cx="0.602283" cy="0.602283" r="0.602283" transform="matrix(1 0 0 -1 227.32 112.049)" fill="black" fill-opacity="0.46"/>
<circle cx="0.602283" cy="0.602283" r="0.602283" transform="matrix(1 0 0 -1 236.957 112.049)" fill="black" fill-opacity="0.46"/>
<circle cx="0.602283" cy="0.602283" r="0.602283" transform="matrix(1 0 0 -1 246.594 112.049)" fill="black" fill-opacity="0.46"/>
<circle cx="0.602283" cy="0.602283" r="0.602283" transform="matrix(1 0 0 -1 256.23 112.049)" fill="black" fill-opacity="0.46"/>
<circle cx="0.602283" cy="0.602283" r="0.602283" transform="matrix(1 0 0 -1 265.867 112.049)" fill="black" fill-opacity="0.46"/>
<circle cx="0.602283" cy="0.602283" r="0.602283" transform="matrix(1 0 0 -1 275.504 112.049)" fill="black" fill-opacity="0.46"/>
<circle cx="0.602283" cy="0.602283" r="0.602283" transform="matrix(1 0 0 -1 285.141 112.049)" fill="black" fill-opacity="0.46"/>
<circle cx="0.602283" cy="0.602283" r="0.602283" transform="matrix(1 0 0 -1 294.777 112.049)" fill="black" fill-opacity="0.46"/>
<circle cx="0.602283" cy="0.602283" r="0.602283" transform="matrix(1 0 0 -1 304.414 112.049)" fill="black" fill-opacity="0.46"/>
<circle cx="0.602283" cy="0.602283" r="0.602283" transform="matrix(1 0 0 -1 314.051 112.049)" fill="black" fill-opacity="0.46"/>
<circle cx="0.602283" cy="0.602283" r="0.602283" transform="matrix(1 0 0 -1 323.688 112.049)" fill="black" fill-opacity="0.46"/>
<circle cx="0.602283" cy="0.602283" r="0.602283" transform="matrix(1 0 0 -1 333.324 112.049)" fill="black" fill-opacity="0.46"/>
<circle cx="0.602283" cy="0.602283" r="0.602283" transform="matrix(1 0 0 -1 342.961 112.049)" fill="black" fill-opacity="0.46"/>
<circle cx="0.602283" cy="0.602283" r="0.602283" transform="matrix(1 0 0 -1 5.67969 102.412)" fill="black" fill-opacity="0.46"/>
<circle cx="0.602283" cy="0.602283" r="0.602283" transform="matrix(1 0 0 -1 15.3164 102.412)" fill="black" fill-opacity="0.46"/>
<circle cx="0.602283" cy="0.602283" r="0.602283" transform="matrix(1 0 0 -1 24.9531 102.412)" fill="black" fill-opacity="0.46"/>
<circle cx="0.602283" cy="0.602283" r="0.602283" transform="matrix(1 0 0 -1 34.5898 102.412)" fill="black" fill-opacity="0.46"/>
<circle cx="0.602283" cy="0.602283" r="0.602283" transform="matrix(1 0 0 -1 44.2266 102.412)" fill="black" fill-opacity="0.46"/>
<circle cx="0.602283" cy="0.602283" r="0.602283" transform="matrix(1 0 0 -1 53.8633 102.412)" fill="black" fill-opacity="0.46"/>
<circle cx="0.602283" cy="0.602283" r="0.602283" transform="matrix(1 0 0 -1 63.5 102.412)" fill="black" fill-opacity="0.46"/>
<circle cx="0.602283" cy="0.602283" r="0.602283" transform="matrix(1 0 0 -1 73.1367 102.412)" fill="black" fill-opacity="0.46"/>
<circle cx="0.602283" cy="0.602283" r="0.602283" transform="matrix(1 0 0 -1 82.7734 102.412)" fill="black" fill-opacity="0.46"/>
<circle cx="0.602283" cy="0.602283" r="0.602283" transform="matrix(1 0 0 -1 92.4102 102.412)" fill="black" fill-opacity="0.46"/>
<circle cx="0.602283" cy="0.602283" r="0.602283" transform="matrix(1 0 0 -1 102.047 102.412)" fill="black" fill-opacity="0.46"/>
<circle cx="0.602283" cy="0.602283" r="0.602283" transform="matrix(1 0 0 -1 111.684 102.412)" fill="black" fill-opacity="0.46"/>
<circle cx="0.602283" cy="0.602283" r="0.602283" transform="matrix(1 0 0 -1 121.32 102.412)" fill="black" fill-opacity="0.46"/>
<circle cx="0.602283" cy="0.602283" r="0.602283" transform="matrix(1 0 0 -1 130.957 102.412)" fill="black" fill-opacity="0.46"/>
<circle cx="0.602283" cy="0.602283" r="0.602283" transform="matrix(1 0 0 -1 140.594 102.412)" fill="black" fill-opacity="0.46"/>
<circle cx="0.602283" cy="0.602283" r="0.602283" transform="matrix(1 0 0 -1 150.23 102.412)" fill="black" fill-opacity="0.46"/>
<circle cx="0.602283" cy="0.602283" r="0.602283" transform="matrix(1 0 0 -1 159.867 102.412)" fill="black" fill-opacity="0.46"/>
<circle cx="0.602283" cy="0.602283" r="0.602283" transform="matrix(1 0 0 -1 169.504 102.412)" fill="black" fill-opacity="0.46"/>
<circle cx="0.602283" cy="0.602283" r="0.602283" transform="matrix(1 0 0 -1 179.137 102.412)" fill="black" fill-opacity="0.46"/>
<circle cx="0.602283" cy="0.602283" r="0.602283" transform="matrix(1 0 0 -1 188.773 102.412)" fill="black" fill-opacity="0.46"/>
<circle cx="0.602283" cy="0.602283" r="0.602283" transform="matrix(1 0 0 -1 198.41 102.412)" fill="black" fill-opacity="0.46"/>
<circle cx="0.602283" cy="0.602283" r="0.602283" transform="matrix(1 0 0 -1 208.047 102.412)" fill="black" fill-opacity="0.46"/>
<circle cx="0.602283" cy="0.602283" r="0.602283" transform="matrix(1 0 0 -1 217.684 102.412)" fill="black" fill-opacity="0.46"/>
<circle cx="0.602283" cy="0.602283" r="0.602283" transform="matrix(1 0 0 -1 227.32 102.412)" fill="black" fill-opacity="0.46"/>
<circle cx="0.602283" cy="0.602283" r="0.602283" transform="matrix(1 0 0 -1 236.957 102.412)" fill="black" fill-opacity="0.46"/>
<circle cx="0.602283" cy="0.602283" r="0.602283" transform="matrix(1 0 0 -1 246.594 102.412)" fill="black" fill-opacity="0.46"/>
<circle cx="0.602283" cy="0.602283" r="0.602283" transform="matrix(1 0 0 -1 256.23 102.412)" fill="black" fill-opacity="0.46"/>
<circle cx="0.602283" cy="0.602283" r="0.602283" transform="matrix(1 0 0 -1 265.867 102.412)" fill="black" fill-opacity="0.46"/>
<circle cx="0.602283" cy="0.602283" r="0.602283" transform="matrix(1 0 0 -1 275.504 102.412)" fill="black" fill-opacity="0.46"/>
<circle cx="0.602283" cy="0.602283" r="0.602283" transform="matrix(1 0 0 -1 285.141 102.412)" fill="black" fill-opacity="0.46"/>
<circle cx="0.602283" cy="0.602283" r="0.602283" transform="matrix(1 0 0 -1 294.777 102.412)" fill="black" fill-opacity="0.46"/>
<circle cx="0.602283" cy="0.602283" r="0.602283" transform="matrix(1 0 0 -1 304.414 102.412)" fill="black" fill-opacity="0.46"/>
<circle cx="0.602283" cy="0.602283" r="0.602283" transform="matrix(1 0 0 -1 314.051 102.412)" fill="black" fill-opacity="0.46"/>
<circle cx="0.602283" cy="0.602283" r="0.602283" transform="matrix(1 0 0 -1 323.688 102.412)" fill="black" fill-opacity="0.46"/>
<circle cx="0.602283" cy="0.602283" r="0.602283" transform="matrix(1 0 0 -1 333.324 102.412)" fill="black" fill-opacity="0.46"/>
<circle cx="0.602283" cy="0.602283" r="0.602283" transform="matrix(1 0 0 -1 342.961 102.412)" fill="black" fill-opacity="0.46"/>
<circle cx="0.602283" cy="0.602283" r="0.602283" transform="matrix(1 0 0 -1 5.67969 92.7754)" fill="black" fill-opacity="0.46"/>
<circle cx="0.602283" cy="0.602283" r="0.602283" transform="matrix(1 0 0 -1 15.3164 92.7754)" fill="black" fill-opacity="0.46"/>
<circle cx="0.602283" cy="0.602283" r="0.602283" transform="matrix(1 0 0 -1 24.9531 92.7754)" fill="black" fill-opacity="0.46"/>
<circle cx="0.602283" cy="0.602283" r="0.602283" transform="matrix(1 0 0 -1 34.5898 92.7754)" fill="black" fill-opacity="0.46"/>
<circle cx="0.602283" cy="0.602283" r="0.602283" transform="matrix(1 0 0 -1 44.2266 92.7754)" fill="black" fill-opacity="0.46"/>
<circle cx="0.602283" cy="0.602283" r="0.602283" transform="matrix(1 0 0 -1 53.8633 92.7754)" fill="black" fill-opacity="0.46"/>
<circle cx="0.602283" cy="0.602283" r="0.602283" transform="matrix(1 0 0 -1 63.5 92.7754)" fill="black" fill-opacity="0.46"/>
<circle cx="0.602283" cy="0.602283" r="0.602283" transform="matrix(1 0 0 -1 73.1367 92.7754)" fill="black" fill-opacity="0.46"/>
<circle cx="0.602283" cy="0.602283" r="0.602283" transform="matrix(1 0 0 -1 82.7734 92.7754)" fill="black" fill-opacity="0.46"/>
<circle cx="0.602283" cy="0.602283" r="0.602283" transform="matrix(1 0 0 -1 92.4102 92.7754)" fill="black" fill-opacity="0.46"/>
<circle cx="0.602283" cy="0.602283" r="0.602283" transform="matrix(1 0 0 -1 102.047 92.7754)" fill="black" fill-opacity="0.46"/>
<circle cx="0.602283" cy="0.602283" r="0.602283" transform="matrix(1 0 0 -1 111.684 92.7754)" fill="black" fill-opacity="0.46"/>
<circle cx="0.602283" cy="0.602283" r="0.602283" transform="matrix(1 0 0 -1 121.32 92.7754)" fill="black" fill-opacity="0.46"/>
<circle cx="0.602283" cy="0.602283" r="0.602283" transform="matrix(1 0 0 -1 130.957 92.7754)" fill="black" fill-opacity="0.46"/>
<circle cx="0.602283" cy="0.602283" r="0.602283" transform="matrix(1 0 0 -1 140.594 92.7754)" fill="black" fill-opacity="0.46"/>
<circle cx="0.602283" cy="0.602283" r="0.602283" transform="matrix(1 0 0 -1 150.23 92.7754)" fill="black" fill-opacity="0.46"/>
<circle cx="0.602283" cy="0.602283" r="0.602283" transform="matrix(1 0 0 -1 159.867 92.7754)" fill="black" fill-opacity="0.46"/>
<circle cx="0.602283" cy="0.602283" r="0.602283" transform="matrix(1 0 0 -1 169.504 92.7754)" fill="black" fill-opacity="0.46"/>
<circle cx="0.602283" cy="0.602283" r="0.602283" transform="matrix(1 0 0 -1 179.137 92.7754)" fill="black" fill-opacity="0.46"/>
<circle cx="0.602283" cy="0.602283" r="0.602283" transform="matrix(1 0 0 -1 188.773 92.7754)" fill="black" fill-opacity="0.46"/>
<circle cx="0.602283" cy="0.602283" r="0.602283" transform="matrix(1 0 0 -1 198.41 92.7754)" fill="black" fill-opacity="0.46"/>
<circle cx="0.602283" cy="0.602283" r="0.602283" transform="matrix(1 0 0 -1 208.047 92.7754)" fill="black" fill-opacity="0.46"/>
<circle cx="0.602283" cy="0.602283" r="0.602283" transform="matrix(1 0 0 -1 217.684 92.7754)" fill="black" fill-opacity="0.46"/>
<circle cx="0.602283" cy="0.602283" r="0.602283" transform="matrix(1 0 0 -1 227.32 92.7754)" fill="black" fill-opacity="0.46"/>
<circle cx="0.602283" cy="0.602283" r="0.602283" transform="matrix(1 0 0 -1 236.957 92.7754)" fill="black" fill-opacity="0.46"/>
<circle cx="0.602283" cy="0.602283" r="0.602283" transform="matrix(1 0 0 -1 246.594 92.7754)" fill="black" fill-opacity="0.46"/>
<circle cx="0.602283" cy="0.602283" r="0.602283" transform="matrix(1 0 0 -1 256.23 92.7754)" fill="black" fill-opacity="0.46"/>
<circle cx="0.602283" cy="0.602283" r="0.602283" transform="matrix(1 0 0 -1 265.867 92.7754)" fill="black" fill-opacity="0.46"/>
<circle cx="0.602283" cy="0.602283" r="0.602283" transform="matrix(1 0 0 -1 275.504 92.7754)" fill="black" fill-opacity="0.46"/>
<circle cx="0.602283" cy="0.602283" r="0.602283" transform="matrix(1 0 0 -1 285.141 92.7754)" fill="black" fill-opacity="0.46"/>
<circle cx="0.602283" cy="0.602283" r="0.602283" transform="matrix(1 0 0 -1 294.777 92.7754)" fill="black" fill-opacity="0.46"/>
<circle cx="0.602283" cy="0.602283" r="0.602283" transform="matrix(1 0 0 -1 304.414 92.7754)" fill="black" fill-opacity="0.46"/>
<circle cx="0.602283" cy="0.602283" r="0.602283" transform="matrix(1 0 0 -1 314.051 92.7754)" fill="black" fill-opacity="0.46"/>
<circle cx="0.602283" cy="0.602283" r="0.602283" transform="matrix(1 0 0 -1 323.688 92.7754)" fill="black" fill-opacity="0.46"/>
<circle cx="0.602283" cy="0.602283" r="0.602283" transform="matrix(1 0 0 -1 333.324 92.7754)" fill="black" fill-opacity="0.46"/>
<circle cx="0.602283" cy="0.602283" r="0.602283" transform="matrix(1 0 0 -1 342.961 92.7754)" fill="black" fill-opacity="0.46"/>
<circle cx="0.602283" cy="0.602283" r="0.602283" transform="matrix(1 0 0 -1 5.67969 83.1387)" fill="black" fill-opacity="0.46"/>
<circle cx="0.602283" cy="0.602283" r="0.602283" transform="matrix(1 0 0 -1 15.3164 83.1387)" fill="black" fill-opacity="0.46"/>
<circle cx="0.602283" cy="0.602283" r="0.602283" transform="matrix(1 0 0 -1 24.9531 83.1387)" fill="black" fill-opacity="0.46"/>
<circle cx="0.602283" cy="0.602283" r="0.602283" transform="matrix(1 0 0 -1 34.5898 83.1387)" fill="black" fill-opacity="0.46"/>
<circle cx="0.602283" cy="0.602283" r="0.602283" transform="matrix(1 0 0 -1 44.2266 83.1387)" fill="black" fill-opacity="0.46"/>
<circle cx="0.602283" cy="0.602283" r="0.602283" transform="matrix(1 0 0 -1 53.8633 83.1387)" fill="black" fill-opacity="0.46"/>
<circle cx="0.602283" cy="0.602283" r="0.602283" transform="matrix(1 0 0 -1 63.5 83.1387)" fill="black" fill-opacity="0.46"/>
<circle cx="0.602283" cy="0.602283" r="0.602283" transform="matrix(1 0 0 -1 73.1367 83.1387)" fill="black" fill-opacity="0.46"/>
<circle cx="0.602283" cy="0.602283" r="0.602283" transform="matrix(1 0 0 -1 82.7734 83.1387)" fill="black" fill-opacity="0.46"/>
<circle cx="0.602283" cy="0.602283" r="0.602283" transform="matrix(1 0 0 -1 92.4102 83.1387)" fill="black" fill-opacity="0.46"/>
<circle cx="0.602283" cy="0.602283" r="0.602283" transform="matrix(1 0 0 -1 102.047 83.1387)" fill="black" fill-opacity="0.46"/>
<circle cx="0.602283" cy="0.602283" r="0.602283" transform="matrix(1 0 0 -1 111.684 83.1387)" fill="black" fill-opacity="0.46"/>
<circle cx="0.602283" cy="0.602283" r="0.602283" transform="matrix(1 0 0 -1 121.32 83.1387)" fill="black" fill-opacity="0.46"/>
<circle cx="0.602283" cy="0.602283" r="0.602283" transform="matrix(1 0 0 -1 130.957 83.1387)" fill="black" fill-opacity="0.46"/>
<circle cx="0.602283" cy="0.602283" r="0.602283" transform="matrix(1 0 0 -1 140.594 83.1387)" fill="black" fill-opacity="0.46"/>
<circle cx="0.602283" cy="0.602283" r="0.602283" transform="matrix(1 0 0 -1 150.23 83.1387)" fill="black" fill-opacity="0.46"/>
<circle cx="0.602283" cy="0.602283" r="0.602283" transform="matrix(1 0 0 -1 159.867 83.1387)" fill="black" fill-opacity="0.46"/>
<circle cx="0.602283" cy="0.602283" r="0.602283" transform="matrix(1 0 0 -1 169.504 83.1387)" fill="black" fill-opacity="0.46"/>
<circle cx="0.602283" cy="0.602283" r="0.602283" transform="matrix(1 0 0 -1 179.137 83.1387)" fill="black" fill-opacity="0.46"/>
<circle cx="0.602283" cy="0.602283" r="0.602283" transform="matrix(1 0 0 -1 188.773 83.1387)" fill="black" fill-opacity="0.46"/>
<circle cx="0.602283" cy="0.602283" r="0.602283" transform="matrix(1 0 0 -1 198.41 83.1387)" fill="black" fill-opacity="0.46"/>
<circle cx="0.602283" cy="0.602283" r="0.602283" transform="matrix(1 0 0 -1 208.047 83.1387)" fill="black" fill-opacity="0.46"/>
<circle cx="0.602283" cy="0.602283" r="0.602283" transform="matrix(1 0 0 -1 217.684 83.1387)" fill="black" fill-opacity="0.46"/>
<circle cx="0.602283" cy="0.602283" r="0.602283" transform="matrix(1 0 0 -1 227.32 83.1387)" fill="black" fill-opacity="0.46"/>
<circle cx="0.602283" cy="0.602283" r="0.602283" transform="matrix(1 0 0 -1 236.957 83.1387)" fill="black" fill-opacity="0.46"/>
<circle cx="0.602283" cy="0.602283" r="0.602283" transform="matrix(1 0 0 -1 246.594 83.1387)" fill="black" fill-opacity="0.46"/>
<circle cx="0.602283" cy="0.602283" r="0.602283" transform="matrix(1 0 0 -1 256.23 83.1387)" fill="black" fill-opacity="0.46"/>
<circle cx="0.602283" cy="0.602283" r="0.602283" transform="matrix(1 0 0 -1 265.867 83.1387)" fill="black" fill-opacity="0.46"/>
<circle cx="0.602283" cy="0.602283" r="0.602283" transform="matrix(1 0 0 -1 275.504 83.1387)" fill="black" fill-opacity="0.46"/>
<circle cx="0.602283" cy="0.602283" r="0.602283" transform="matrix(1 0 0 -1 285.141 83.1387)" fill="black" fill-opacity="0.46"/>
<circle cx="0.602283" cy="0.602283" r="0.602283" transform="matrix(1 0 0 -1 294.777 83.1387)" fill="black" fill-opacity="0.46"/>
<circle cx="0.602283" cy="0.602283" r="0.602283" transform="matrix(1 0 0 -1 304.414 83.1387)" fill="black" fill-opacity="0.46"/>
<circle cx="0.602283" cy="0.602283" r="0.602283" transform="matrix(1 0 0 -1 314.051 83.1387)" fill="black" fill-opacity="0.46"/>
<circle cx="0.602283" cy="0.602283" r="0.602283" transform="matrix(1 0 0 -1 323.688 83.1387)" fill="black" fill-opacity="0.46"/>
<circle cx="0.602283" cy="0.602283" r="0.602283" transform="matrix(1 0 0 -1 333.324 83.1387)" fill="black" fill-opacity="0.46"/>
<circle cx="0.602283" cy="0.602283" r="0.602283" transform="matrix(1 0 0 -1 342.961 83.1387)" fill="black" fill-opacity="0.46"/>
<circle cx="0.602283" cy="0.602283" r="0.602283" transform="matrix(1 0 0 -1 5.67969 73.502)" fill="black" fill-opacity="0.46"/>
<circle cx="0.602283" cy="0.602283" r="0.602283" transform="matrix(1 0 0 -1 15.3164 73.502)" fill="black" fill-opacity="0.46"/>
<circle cx="0.602283" cy="0.602283" r="0.602283" transform="matrix(1 0 0 -1 24.9531 73.502)" fill="black" fill-opacity="0.46"/>
<circle cx="0.602283" cy="0.602283" r="0.602283" transform="matrix(1 0 0 -1 34.5898 73.502)" fill="black" fill-opacity="0.46"/>
<circle cx="0.602283" cy="0.602283" r="0.602283" transform="matrix(1 0 0 -1 44.2266 73.502)" fill="black" fill-opacity="0.46"/>
<circle cx="0.602283" cy="0.602283" r="0.602283" transform="matrix(1 0 0 -1 53.8633 73.502)" fill="black" fill-opacity="0.46"/>
<circle cx="0.602283" cy="0.602283" r="0.602283" transform="matrix(1 0 0 -1 63.5 73.502)" fill="black" fill-opacity="0.46"/>
<circle cx="0.602283" cy="0.602283" r="0.602283" transform="matrix(1 0 0 -1 73.1367 73.502)" fill="black" fill-opacity="0.46"/>
<circle cx="0.602283" cy="0.602283" r="0.602283" transform="matrix(1 0 0 -1 82.7734 73.502)" fill="black" fill-opacity="0.46"/>
<circle cx="0.602283" cy="0.602283" r="0.602283" transform="matrix(1 0 0 -1 92.4102 73.502)" fill="black" fill-opacity="0.46"/>
<circle cx="0.602283" cy="0.602283" r="0.602283" transform="matrix(1 0 0 -1 102.047 73.502)" fill="black" fill-opacity="0.46"/>
<circle cx="0.602283" cy="0.602283" r="0.602283" transform="matrix(1 0 0 -1 111.684 73.502)" fill="black" fill-opacity="0.46"/>
<circle cx="0.602283" cy="0.602283" r="0.602283" transform="matrix(1 0 0 -1 121.32 73.502)" fill="black" fill-opacity="0.46"/>
<circle cx="0.602283" cy="0.602283" r="0.602283" transform="matrix(1 0 0 -1 130.957 73.502)" fill="black" fill-opacity="0.46"/>
<circle cx="0.602283" cy="0.602283" r="0.602283" transform="matrix(1 0 0 -1 140.594 73.502)" fill="black" fill-opacity="0.46"/>
<circle cx="0.602283" cy="0.602283" r="0.602283" transform="matrix(1 0 0 -1 150.23 73.502)" fill="black" fill-opacity="0.46"/>
<circle cx="0.602283" cy="0.602283" r="0.602283" transform="matrix(1 0 0 -1 159.867 73.502)" fill="black" fill-opacity="0.46"/>
<circle cx="0.602283" cy="0.602283" r="0.602283" transform="matrix(1 0 0 -1 169.504 73.502)" fill="black" fill-opacity="0.46"/>
<circle cx="0.602283" cy="0.602283" r="0.602283" transform="matrix(1 0 0 -1 179.137 73.502)" fill="black" fill-opacity="0.46"/>
<circle cx="0.602283" cy="0.602283" r="0.602283" transform="matrix(1 0 0 -1 188.773 73.502)" fill="black" fill-opacity="0.46"/>
<circle cx="0.602283" cy="0.602283" r="0.602283" transform="matrix(1 0 0 -1 198.41 73.502)" fill="black" fill-opacity="0.46"/>
<circle cx="0.602283" cy="0.602283" r="0.602283" transform="matrix(1 0 0 -1 208.047 73.502)" fill="black" fill-opacity="0.46"/>
<circle cx="0.602283" cy="0.602283" r="0.602283" transform="matrix(1 0 0 -1 217.684 73.502)" fill="black" fill-opacity="0.46"/>
<circle cx="0.602283" cy="0.602283" r="0.602283" transform="matrix(1 0 0 -1 227.32 73.502)" fill="black" fill-opacity="0.46"/>
<circle cx="0.602283" cy="0.602283" r="0.602283" transform="matrix(1 0 0 -1 236.957 73.502)" fill="black" fill-opacity="0.46"/>
<circle cx="0.602283" cy="0.602283" r="0.602283" transform="matrix(1 0 0 -1 246.594 73.502)" fill="black" fill-opacity="0.46"/>
<circle cx="0.602283" cy="0.602283" r="0.602283" transform="matrix(1 0 0 -1 256.23 73.502)" fill="black" fill-opacity="0.46"/>
<circle cx="0.602283" cy="0.602283" r="0.602283" transform="matrix(1 0 0 -1 265.867 73.502)" fill="black" fill-opacity="0.46"/>
<circle cx="0.602283" cy="0.602283" r="0.602283" transform="matrix(1 0 0 -1 275.504 73.502)" fill="black" fill-opacity="0.46"/>
<circle cx="0.602283" cy="0.602283" r="0.602283" transform="matrix(1 0 0 -1 285.141 73.502)" fill="black" fill-opacity="0.46"/>
<circle cx="0.602283" cy="0.602283" r="0.602283" transform="matrix(1 0 0 -1 294.777 73.502)" fill="black" fill-opacity="0.46"/>
<circle cx="0.602283" cy="0.602283" r="0.602283" transform="matrix(1 0 0 -1 304.414 73.502)" fill="black" fill-opacity="0.46"/>
<circle cx="0.602283" cy="0.602283" r="0.602283" transform="matrix(1 0 0 -1 314.051 73.502)" fill="black" fill-opacity="0.46"/>
<circle cx="0.602283" cy="0.602283" r="0.602283" transform="matrix(1 0 0 -1 323.688 73.502)" fill="black" fill-opacity="0.46"/>
<circle cx="0.602283" cy="0.602283" r="0.602283" transform="matrix(1 0 0 -1 333.324 73.502)" fill="black" fill-opacity="0.46"/>
<circle cx="0.602283" cy="0.602283" r="0.602283" transform="matrix(1 0 0 -1 342.961 73.502)" fill="black" fill-opacity="0.46"/>
<circle cx="0.602283" cy="0.602283" r="0.602283" transform="matrix(1 0 0 -1 5.67969 63.8652)" fill="black" fill-opacity="0.46"/>
<circle cx="0.602283" cy="0.602283" r="0.602283" transform="matrix(1 0 0 -1 15.3164 63.8652)" fill="black" fill-opacity="0.46"/>
<circle cx="0.602283" cy="0.602283" r="0.602283" transform="matrix(1 0 0 -1 24.9531 63.8652)" fill="black" fill-opacity="0.46"/>
<circle cx="0.602283" cy="0.602283" r="0.602283" transform="matrix(1 0 0 -1 34.5898 63.8652)" fill="black" fill-opacity="0.46"/>
<circle cx="0.602283" cy="0.602283" r="0.602283" transform="matrix(1 0 0 -1 44.2266 63.8652)" fill="black" fill-opacity="0.46"/>
<circle cx="0.602283" cy="0.602283" r="0.602283" transform="matrix(1 0 0 -1 53.8633 63.8652)" fill="black" fill-opacity="0.46"/>
<circle cx="0.602283" cy="0.602283" r="0.602283" transform="matrix(1 0 0 -1 63.5 63.8652)" fill="black" fill-opacity="0.46"/>
<circle cx="0.602283" cy="0.602283" r="0.602283" transform="matrix(1 0 0 -1 73.1367 63.8652)" fill="black" fill-opacity="0.46"/>
<circle cx="0.602283" cy="0.602283" r="0.602283" transform="matrix(1 0 0 -1 82.7734 63.8652)" fill="black" fill-opacity="0.46"/>
<circle cx="0.602283" cy="0.602283" r="0.602283" transform="matrix(1 0 0 -1 92.4102 63.8652)" fill="black" fill-opacity="0.46"/>
<circle cx="0.602283" cy="0.602283" r="0.602283" transform="matrix(1 0 0 -1 102.047 63.8652)" fill="black" fill-opacity="0.46"/>
<circle cx="0.602283" cy="0.602283" r="0.602283" transform="matrix(1 0 0 -1 111.684 63.8652)" fill="black" fill-opacity="0.46"/>
<circle cx="0.602283" cy="0.602283" r="0.602283" transform="matrix(1 0 0 -1 121.32 63.8652)" fill="black" fill-opacity="0.46"/>
<circle cx="0.602283" cy="0.602283" r="0.602283" transform="matrix(1 0 0 -1 130.957 63.8652)" fill="black" fill-opacity="0.46"/>
<circle cx="0.602283" cy="0.602283" r="0.602283" transform="matrix(1 0 0 -1 140.594 63.8652)" fill="black" fill-opacity="0.46"/>
<circle cx="0.602283" cy="0.602283" r="0.602283" transform="matrix(1 0 0 -1 150.23 63.8652)" fill="black" fill-opacity="0.46"/>
<circle cx="0.602283" cy="0.602283" r="0.602283" transform="matrix(1 0 0 -1 159.867 63.8652)" fill="black" fill-opacity="0.46"/>
<circle cx="0.602283" cy="0.602283" r="0.602283" transform="matrix(1 0 0 -1 169.504 63.8652)" fill="black" fill-opacity="0.46"/>
<circle cx="0.602283" cy="0.602283" r="0.602283" transform="matrix(1 0 0 -1 179.137 63.8652)" fill="black" fill-opacity="0.46"/>
<circle cx="0.602283" cy="0.602283" r="0.602283" transform="matrix(1 0 0 -1 188.773 63.8652)" fill="black" fill-opacity="0.46"/>
<circle cx="0.602283" cy="0.602283" r="0.602283" transform="matrix(1 0 0 -1 198.41 63.8652)" fill="black" fill-opacity="0.46"/>
<circle cx="0.602283" cy="0.602283" r="0.602283" transform="matrix(1 0 0 -1 208.047 63.8652)" fill="black" fill-opacity="0.46"/>
<circle cx="0.602283" cy="0.602283" r="0.602283" transform="matrix(1 0 0 -1 217.684 63.8652)" fill="black" fill-opacity="0.46"/>
<circle cx="0.602283" cy="0.602283" r="0.602283" transform="matrix(1 0 0 -1 227.32 63.8652)" fill="black" fill-opacity="0.46"/>
<circle cx="0.602283" cy="0.602283" r="0.602283" transform="matrix(1 0 0 -1 236.957 63.8652)" fill="black" fill-opacity="0.46"/>
<circle cx="0.602283" cy="0.602283" r="0.602283" transform="matrix(1 0 0 -1 246.594 63.8652)" fill="black" fill-opacity="0.46"/>
<circle cx="0.602283" cy="0.602283" r="0.602283" transform="matrix(1 0 0 -1 256.23 63.8652)" fill="black" fill-opacity="0.46"/>
<circle cx="0.602283" cy="0.602283" r="0.602283" transform="matrix(1 0 0 -1 265.867 63.8652)" fill="black" fill-opacity="0.46"/>
<circle cx="0.602283" cy="0.602283" r="0.602283" transform="matrix(1 0 0 -1 275.504 63.8652)" fill="black" fill-opacity="0.46"/>
<circle cx="0.602283" cy="0.602283" r="0.602283" transform="matrix(1 0 0 -1 285.141 63.8652)" fill="black" fill-opacity="0.46"/>
<circle cx="0.602283" cy="0.602283" r="0.602283" transform="matrix(1 0 0 -1 294.777 63.8652)" fill="black" fill-opacity="0.46"/>
<circle cx="0.602283" cy="0.602283" r="0.602283" transform="matrix(1 0 0 -1 304.414 63.8652)" fill="black" fill-opacity="0.46"/>
<circle cx="0.602283" cy="0.602283" r="0.602283" transform="matrix(1 0 0 -1 314.051 63.8652)" fill="black" fill-opacity="0.46"/>
<circle cx="0.602283" cy="0.602283" r="0.602283" transform="matrix(1 0 0 -1 323.688 63.8652)" fill="black" fill-opacity="0.46"/>
<circle cx="0.602283" cy="0.602283" r="0.602283" transform="matrix(1 0 0 -1 333.324 63.8652)" fill="black" fill-opacity="0.46"/>
<circle cx="0.602283" cy="0.602283" r="0.602283" transform="matrix(1 0 0 -1 342.961 63.8652)" fill="black" fill-opacity="0.46"/>
<circle cx="0.602283" cy="0.602283" r="0.602283" transform="matrix(1 0 0 -1 5.67969 54.2285)" fill="black" fill-opacity="0.46"/>
<circle cx="0.602283" cy="0.602283" r="0.602283" transform="matrix(1 0 0 -1 15.3164 54.2285)" fill="black" fill-opacity="0.46"/>
<circle cx="0.602283" cy="0.602283" r="0.602283" transform="matrix(1 0 0 -1 24.9531 54.2285)" fill="black" fill-opacity="0.46"/>
<circle cx="0.602283" cy="0.602283" r="0.602283" transform="matrix(1 0 0 -1 34.5898 54.2285)" fill="black" fill-opacity="0.46"/>
<circle cx="0.602283" cy="0.602283" r="0.602283" transform="matrix(1 0 0 -1 44.2266 54.2285)" fill="black" fill-opacity="0.46"/>
<circle cx="0.602283" cy="0.602283" r="0.602283" transform="matrix(1 0 0 -1 53.8633 54.2285)" fill="black" fill-opacity="0.46"/>
<circle cx="0.602283" cy="0.602283" r="0.602283" transform="matrix(1 0 0 -1 63.5 54.2285)" fill="black" fill-opacity="0.46"/>
<circle cx="0.602283" cy="0.602283" r="0.602283" transform="matrix(1 0 0 -1 73.1367 54.2285)" fill="black" fill-opacity="0.46"/>
<circle cx="0.602283" cy="0.602283" r="0.602283" transform="matrix(1 0 0 -1 82.7734 54.2285)" fill="black" fill-opacity="0.46"/>
<circle cx="0.602283" cy="0.602283" r="0.602283" transform="matrix(1 0 0 -1 92.4102 54.2285)" fill="black" fill-opacity="0.46"/>
<circle cx="0.602283" cy="0.602283" r="0.602283" transform="matrix(1 0 0 -1 102.047 54.2285)" fill="black" fill-opacity="0.46"/>
<circle cx="0.602283" cy="0.602283" r="0.602283" transform="matrix(1 0 0 -1 111.684 54.2285)" fill="black" fill-opacity="0.46"/>
<circle cx="0.602283" cy="0.602283" r="0.602283" transform="matrix(1 0 0 -1 121.32 54.2285)" fill="black" fill-opacity="0.46"/>
<circle cx="0.602283" cy="0.602283" r="0.602283" transform="matrix(1 0 0 -1 130.957 54.2285)" fill="black" fill-opacity="0.46"/>
<circle cx="0.602283" cy="0.602283" r="0.602283" transform="matrix(1 0 0 -1 140.594 54.2285)" fill="black" fill-opacity="0.46"/>
<circle cx="0.602283" cy="0.602283" r="0.602283" transform="matrix(1 0 0 -1 150.23 54.2285)" fill="black" fill-opacity="0.46"/>
<circle cx="0.602283" cy="0.602283" r="0.602283" transform="matrix(1 0 0 -1 159.867 54.2285)" fill="black" fill-opacity="0.46"/>
<circle cx="0.602283" cy="0.602283" r="0.602283" transform="matrix(1 0 0 -1 169.504 54.2285)" fill="black" fill-opacity="0.46"/>
<circle cx="0.602283" cy="0.602283" r="0.602283" transform="matrix(1 0 0 -1 179.137 54.2285)" fill="black" fill-opacity="0.46"/>
<circle cx="0.602283" cy="0.602283" r="0.602283" transform="matrix(1 0 0 -1 188.773 54.2285)" fill="black" fill-opacity="0.46"/>
<circle cx="0.602283" cy="0.602283" r="0.602283" transform="matrix(1 0 0 -1 198.41 54.2285)" fill="black" fill-opacity="0.46"/>
<circle cx="0.602283" cy="0.602283" r="0.602283" transform="matrix(1 0 0 -1 208.047 54.2285)" fill="black" fill-opacity="0.46"/>
<circle cx="0.602283" cy="0.602283" r="0.602283" transform="matrix(1 0 0 -1 217.684 54.2285)" fill="black" fill-opacity="0.46"/>
<circle cx="0.602283" cy="0.602283" r="0.602283" transform="matrix(1 0 0 -1 227.32 54.2285)" fill="black" fill-opacity="0.46"/>
<circle cx="0.602283" cy="0.602283" r="0.602283" transform="matrix(1 0 0 -1 236.957 54.2285)" fill="black" fill-opacity="0.46"/>
<circle cx="0.602283" cy="0.602283" r="0.602283" transform="matrix(1 0 0 -1 246.594 54.2285)" fill="black" fill-opacity="0.46"/>
<circle cx="0.602283" cy="0.602283" r="0.602283" transform="matrix(1 0 0 -1 256.23 54.2285)" fill="black" fill-opacity="0.46"/>
<circle cx="0.602283" cy="0.602283" r="0.602283" transform="matrix(1 0 0 -1 265.867 54.2285)" fill="black" fill-opacity="0.46"/>
<circle cx="0.602283" cy="0.602283" r="0.602283" transform="matrix(1 0 0 -1 275.504 54.2285)" fill="black" fill-opacity="0.46"/>
<circle cx="0.602283" cy="0.602283" r="0.602283" transform="matrix(1 0 0 -1 285.141 54.2285)" fill="black" fill-opacity="0.46"/>
<circle cx="0.602283" cy="0.602283" r="0.602283" transform="matrix(1 0 0 -1 294.777 54.2285)" fill="black" fill-opacity="0.46"/>
<circle cx="0.602283" cy="0.602283" r="0.602283" transform="matrix(1 0 0 -1 304.414 54.2285)" fill="black" fill-opacity="0.46"/>
<circle cx="0.602283" cy="0.602283" r="0.602283" transform="matrix(1 0 0 -1 314.051 54.2285)" fill="black" fill-opacity="0.46"/>
<circle cx="0.602283" cy="0.602283" r="0.602283" transform="matrix(1 0 0 -1 323.688 54.2285)" fill="black" fill-opacity="0.46"/>
<circle cx="0.602283" cy="0.602283" r="0.602283" transform="matrix(1 0 0 -1 333.324 54.2285)" fill="black" fill-opacity="0.46"/>
<circle cx="0.602283" cy="0.602283" r="0.602283" transform="matrix(1 0 0 -1 342.961 54.2285)" fill="black" fill-opacity="0.46"/>
<circle cx="0.602283" cy="0.602283" r="0.602283" transform="matrix(1 0 0 -1 5.67969 44.5918)" fill="black" fill-opacity="0.46"/>
<circle cx="0.602283" cy="0.602283" r="0.602283" transform="matrix(1 0 0 -1 15.3164 44.5918)" fill="black" fill-opacity="0.46"/>
<circle cx="0.602283" cy="0.602283" r="0.602283" transform="matrix(1 0 0 -1 24.9531 44.5918)" fill="black" fill-opacity="0.46"/>
<circle cx="0.602283" cy="0.602283" r="0.602283" transform="matrix(1 0 0 -1 34.5898 44.5918)" fill="black" fill-opacity="0.46"/>
<circle cx="0.602283" cy="0.602283" r="0.602283" transform="matrix(1 0 0 -1 44.2266 44.5918)" fill="black" fill-opacity="0.46"/>
<circle cx="0.602283" cy="0.602283" r="0.602283" transform="matrix(1 0 0 -1 53.8633 44.5918)" fill="black" fill-opacity="0.46"/>
<circle cx="0.602283" cy="0.602283" r="0.602283" transform="matrix(1 0 0 -1 63.5 44.5918)" fill="black" fill-opacity="0.46"/>
<circle cx="0.602283" cy="0.602283" r="0.602283" transform="matrix(1 0 0 -1 73.1367 44.5918)" fill="black" fill-opacity="0.46"/>
<circle cx="0.602283" cy="0.602283" r="0.602283" transform="matrix(1 0 0 -1 82.7734 44.5918)" fill="black" fill-opacity="0.46"/>
<circle cx="0.602283" cy="0.602283" r="0.602283" transform="matrix(1 0 0 -1 92.4102 44.5918)" fill="black" fill-opacity="0.46"/>
<circle cx="0.602283" cy="0.602283" r="0.602283" transform="matrix(1 0 0 -1 102.047 44.5918)" fill="black" fill-opacity="0.46"/>
<circle cx="0.602283" cy="0.602283" r="0.602283" transform="matrix(1 0 0 -1 111.684 44.5918)" fill="black" fill-opacity="0.46"/>
<circle cx="0.602283" cy="0.602283" r="0.602283" transform="matrix(1 0 0 -1 121.32 44.5918)" fill="black" fill-opacity="0.46"/>
<circle cx="0.602283" cy="0.602283" r="0.602283" transform="matrix(1 0 0 -1 130.957 44.5918)" fill="black" fill-opacity="0.46"/>
<circle cx="0.602283" cy="0.602283" r="0.602283" transform="matrix(1 0 0 -1 140.594 44.5918)" fill="black" fill-opacity="0.46"/>
<circle cx="0.602283" cy="0.602283" r="0.602283" transform="matrix(1 0 0 -1 150.23 44.5918)" fill="black" fill-opacity="0.46"/>
<circle cx="0.602283" cy="0.602283" r="0.602283" transform="matrix(1 0 0 -1 159.867 44.5918)" fill="black" fill-opacity="0.46"/>
<circle cx="0.602283" cy="0.602283" r="0.602283" transform="matrix(1 0 0 -1 169.504 44.5918)" fill="black" fill-opacity="0.46"/>
<circle cx="0.602283" cy="0.602283" r="0.602283" transform="matrix(1 0 0 -1 179.137 44.5918)" fill="black" fill-opacity="0.46"/>
<circle cx="0.602283" cy="0.602283" r="0.602283" transform="matrix(1 0 0 -1 188.773 44.5918)" fill="black" fill-opacity="0.46"/>
<circle cx="0.602283" cy="0.602283" r="0.602283" transform="matrix(1 0 0 -1 198.41 44.5918)" fill="black" fill-opacity="0.46"/>
<circle cx="0.602283" cy="0.602283" r="0.602283" transform="matrix(1 0 0 -1 208.047 44.5918)" fill="black" fill-opacity="0.46"/>
<circle cx="0.602283" cy="0.602283" r="0.602283" transform="matrix(1 0 0 -1 217.684 44.5918)" fill="black" fill-opacity="0.46"/>
<circle cx="0.602283" cy="0.602283" r="0.602283" transform="matrix(1 0 0 -1 227.32 44.5918)" fill="black" fill-opacity="0.46"/>
<circle cx="0.602283" cy="0.602283" r="0.602283" transform="matrix(1 0 0 -1 236.957 44.5918)" fill="black" fill-opacity="0.46"/>
<circle cx="0.602283" cy="0.602283" r="0.602283" transform="matrix(1 0 0 -1 246.594 44.5918)" fill="black" fill-opacity="0.46"/>
<circle cx="0.602283" cy="0.602283" r="0.602283" transform="matrix(1 0 0 -1 256.23 44.5918)" fill="black" fill-opacity="0.46"/>
<circle cx="0.602283" cy="0.602283" r="0.602283" transform="matrix(1 0 0 -1 265.867 44.5918)" fill="black" fill-opacity="0.46"/>
<circle cx="0.602283" cy="0.602283" r="0.602283" transform="matrix(1 0 0 -1 275.504 44.5918)" fill="black" fill-opacity="0.46"/>
<circle cx="0.602283" cy="0.602283" r="0.602283" transform="matrix(1 0 0 -1 285.141 44.5918)" fill="black" fill-opacity="0.46"/>
<circle cx="0.602283" cy="0.602283" r="0.602283" transform="matrix(1 0 0 -1 294.777 44.5918)" fill="black" fill-opacity="0.46"/>
<circle cx="0.602283" cy="0.602283" r="0.602283" transform="matrix(1 0 0 -1 304.414 44.5918)" fill="black" fill-opacity="0.46"/>
<circle cx="0.602283" cy="0.602283" r="0.602283" transform="matrix(1 0 0 -1 314.051 44.5918)" fill="black" fill-opacity="0.46"/>
<circle cx="0.602283" cy="0.602283" r="0.602283" transform="matrix(1 0 0 -1 323.688 44.5918)" fill="black" fill-opacity="0.46"/>
<circle cx="0.602283" cy="0.602283" r="0.602283" transform="matrix(1 0 0 -1 333.324 44.5918)" fill="black" fill-opacity="0.46"/>
<circle cx="0.602283" cy="0.602283" r="0.602283" transform="matrix(1 0 0 -1 342.961 44.5918)" fill="black" fill-opacity="0.46"/>
<circle cx="0.602283" cy="0.602283" r="0.602283" transform="matrix(1 0 0 -1 5.67969 34.9551)" fill="black" fill-opacity="0.46"/>
<circle cx="0.602283" cy="0.602283" r="0.602283" transform="matrix(1 0 0 -1 15.3164 34.9551)" fill="black" fill-opacity="0.46"/>
<circle cx="0.602283" cy="0.602283" r="0.602283" transform="matrix(1 0 0 -1 24.9531 34.9551)" fill="black" fill-opacity="0.46"/>
<circle cx="0.602283" cy="0.602283" r="0.602283" transform="matrix(1 0 0 -1 34.5898 34.9551)" fill="black" fill-opacity="0.46"/>
<circle cx="0.602283" cy="0.602283" r="0.602283" transform="matrix(1 0 0 -1 44.2266 34.9551)" fill="black" fill-opacity="0.46"/>
<circle cx="0.602283" cy="0.602283" r="0.602283" transform="matrix(1 0 0 -1 53.8633 34.9551)" fill="black" fill-opacity="0.46"/>
<circle cx="0.602283" cy="0.602283" r="0.602283" transform="matrix(1 0 0 -1 63.5 34.9551)" fill="black" fill-opacity="0.46"/>
<circle cx="0.602283" cy="0.602283" r="0.602283" transform="matrix(1 0 0 -1 73.1367 34.9551)" fill="black" fill-opacity="0.46"/>
<circle cx="0.602283" cy="0.602283" r="0.602283" transform="matrix(1 0 0 -1 82.7734 34.9551)" fill="black" fill-opacity="0.46"/>
<circle cx="0.602283" cy="0.602283" r="0.602283" transform="matrix(1 0 0 -1 92.4102 34.9551)" fill="black" fill-opacity="0.46"/>
<circle cx="0.602283" cy="0.602283" r="0.602283" transform="matrix(1 0 0 -1 102.047 34.9551)" fill="black" fill-opacity="0.46"/>
<circle cx="0.602283" cy="0.602283" r="0.602283" transform="matrix(1 0 0 -1 111.684 34.9551)" fill="black" fill-opacity="0.46"/>
<circle cx="0.602283" cy="0.602283" r="0.602283" transform="matrix(1 0 0 -1 121.32 34.9551)" fill="black" fill-opacity="0.46"/>
<circle cx="0.602283" cy="0.602283" r="0.602283" transform="matrix(1 0 0 -1 130.957 34.9551)" fill="black" fill-opacity="0.46"/>
<circle cx="0.602283" cy="0.602283" r="0.602283" transform="matrix(1 0 0 -1 140.594 34.9551)" fill="black" fill-opacity="0.46"/>
<circle cx="0.602283" cy="0.602283" r="0.602283" transform="matrix(1 0 0 -1 150.23 34.9551)" fill="black" fill-opacity="0.46"/>
<circle cx="0.602283" cy="0.602283" r="0.602283" transform="matrix(1 0 0 -1 159.867 34.9551)" fill="black" fill-opacity="0.46"/>
<circle cx="0.602283" cy="0.602283" r="0.602283" transform="matrix(1 0 0 -1 169.504 34.9551)" fill="black" fill-opacity="0.46"/>
<circle cx="0.602283" cy="0.602283" r="0.602283" transform="matrix(1 0 0 -1 179.137 34.9551)" fill="black" fill-opacity="0.46"/>
<circle cx="0.602283" cy="0.602283" r="0.602283" transform="matrix(1 0 0 -1 188.773 34.9551)" fill="black" fill-opacity="0.46"/>
<circle cx="0.602283" cy="0.602283" r="0.602283" transform="matrix(1 0 0 -1 198.41 34.9551)" fill="black" fill-opacity="0.46"/>
<circle cx="0.602283" cy="0.602283" r="0.602283" transform="matrix(1 0 0 -1 208.047 34.9551)" fill="black" fill-opacity="0.46"/>
<circle cx="0.602283" cy="0.602283" r="0.602283" transform="matrix(1 0 0 -1 217.684 34.9551)" fill="black" fill-opacity="0.46"/>
<circle cx="0.602283" cy="0.602283" r="0.602283" transform="matrix(1 0 0 -1 227.32 34.9551)" fill="black" fill-opacity="0.46"/>
<circle cx="0.602283" cy="0.602283" r="0.602283" transform="matrix(1 0 0 -1 236.957 34.9551)" fill="black" fill-opacity="0.46"/>
<circle cx="0.602283" cy="0.602283" r="0.602283" transform="matrix(1 0 0 -1 246.594 34.9551)" fill="black" fill-opacity="0.46"/>
<circle cx="0.602283" cy="0.602283" r="0.602283" transform="matrix(1 0 0 -1 256.23 34.9551)" fill="black" fill-opacity="0.46"/>
<circle cx="0.602283" cy="0.602283" r="0.602283" transform="matrix(1 0 0 -1 265.867 34.9551)" fill="black" fill-opacity="0.46"/>
<circle cx="0.602283" cy="0.602283" r="0.602283" transform="matrix(1 0 0 -1 275.504 34.9551)" fill="black" fill-opacity="0.46"/>
<circle cx="0.602283" cy="0.602283" r="0.602283" transform="matrix(1 0 0 -1 285.141 34.9551)" fill="black" fill-opacity="0.46"/>
<circle cx="0.602283" cy="0.602283" r="0.602283" transform="matrix(1 0 0 -1 294.777 34.9551)" fill="black" fill-opacity="0.46"/>
<circle cx="0.602283" cy="0.602283" r="0.602283" transform="matrix(1 0 0 -1 304.414 34.9551)" fill="black" fill-opacity="0.46"/>
<circle cx="0.602283" cy="0.602283" r="0.602283" transform="matrix(1 0 0 -1 314.051 34.9551)" fill="black" fill-opacity="0.46"/>
<circle cx="0.602283" cy="0.602283" r="0.602283" transform="matrix(1 0 0 -1 323.688 34.9551)" fill="black" fill-opacity="0.46"/>
<circle cx="0.602283" cy="0.602283" r="0.602283" transform="matrix(1 0 0 -1 333.324 34.9551)" fill="black" fill-opacity="0.46"/>
<circle cx="0.602283" cy="0.602283" r="0.602283" transform="matrix(1 0 0 -1 342.961 34.9551)" fill="black" fill-opacity="0.46"/>
<circle cx="0.602283" cy="0.602283" r="0.602283" transform="matrix(1 0 0 -1 5.67969 25.3203)" fill="black" fill-opacity="0.46"/>
<circle cx="0.602283" cy="0.602283" r="0.602283" transform="matrix(1 0 0 -1 15.3164 25.3203)" fill="black" fill-opacity="0.46"/>
<circle cx="0.602283" cy="0.602283" r="0.602283" transform="matrix(1 0 0 -1 24.9531 25.3203)" fill="black" fill-opacity="0.46"/>
<circle cx="0.602283" cy="0.602283" r="0.602283" transform="matrix(1 0 0 -1 34.5898 25.3203)" fill="black" fill-opacity="0.46"/>
<circle cx="0.602283" cy="0.602283" r="0.602283" transform="matrix(1 0 0 -1 44.2266 25.3203)" fill="black" fill-opacity="0.46"/>
<circle cx="0.602283" cy="0.602283" r="0.602283" transform="matrix(1 0 0 -1 53.8633 25.3203)" fill="black" fill-opacity="0.46"/>
<circle cx="0.602283" cy="0.602283" r="0.602283" transform="matrix(1 0 0 -1 63.5 25.3203)" fill="black" fill-opacity="0.46"/>
<circle cx="0.602283" cy="0.602283" r="0.602283" transform="matrix(1 0 0 -1 73.1367 25.3203)" fill="black" fill-opacity="0.46"/>
<circle cx="0.602283" cy="0.602283" r="0.602283" transform="matrix(1 0 0 -1 82.7734 25.3203)" fill="black" fill-opacity="0.46"/>
<circle cx="0.602283" cy="0.602283" r="0.602283" transform="matrix(1 0 0 -1 92.4102 25.3203)" fill="black" fill-opacity="0.46"/>
<circle cx="0.602283" cy="0.602283" r="0.602283" transform="matrix(1 0 0 -1 102.047 25.3203)" fill="black" fill-opacity="0.46"/>
<circle cx="0.602283" cy="0.602283" r="0.602283" transform="matrix(1 0 0 -1 111.684 25.3203)" fill="black" fill-opacity="0.46"/>
<circle cx="0.602283" cy="0.602283" r="0.602283" transform="matrix(1 0 0 -1 121.32 25.3203)" fill="black" fill-opacity="0.46"/>
<circle cx="0.602283" cy="0.602283" r="0.602283" transform="matrix(1 0 0 -1 130.957 25.3203)" fill="black" fill-opacity="0.46"/>
<circle cx="0.602283" cy="0.602283" r="0.602283" transform="matrix(1 0 0 -1 140.594 25.3203)" fill="black" fill-opacity="0.46"/>
<circle cx="0.602283" cy="0.602283" r="0.602283" transform="matrix(1 0 0 -1 150.23 25.3203)" fill="black" fill-opacity="0.46"/>
<circle cx="0.602283" cy="0.602283" r="0.602283" transform="matrix(1 0 0 -1 159.867 25.3203)" fill="black" fill-opacity="0.46"/>
<circle cx="0.602283" cy="0.602283" r="0.602283" transform="matrix(1 0 0 -1 169.504 25.3203)" fill="black" fill-opacity="0.46"/>
<circle cx="0.602283" cy="0.602283" r="0.602283" transform="matrix(1 0 0 -1 179.137 25.3203)" fill="black" fill-opacity="0.46"/>
<circle cx="0.602283" cy="0.602283" r="0.602283" transform="matrix(1 0 0 -1 188.773 25.3203)" fill="black" fill-opacity="0.46"/>
<circle cx="0.602283" cy="0.602283" r="0.602283" transform="matrix(1 0 0 -1 198.41 25.3203)" fill="black" fill-opacity="0.46"/>
<circle cx="0.602283" cy="0.602283" r="0.602283" transform="matrix(1 0 0 -1 208.047 25.3203)" fill="black" fill-opacity="0.46"/>
<circle cx="0.602283" cy="0.602283" r="0.602283" transform="matrix(1 0 0 -1 217.684 25.3203)" fill="black" fill-opacity="0.46"/>
<circle cx="0.602283" cy="0.602283" r="0.602283" transform="matrix(1 0 0 -1 227.32 25.3203)" fill="black" fill-opacity="0.46"/>
<circle cx="0.602283" cy="0.602283" r="0.602283" transform="matrix(1 0 0 -1 236.957 25.3203)" fill="black" fill-opacity="0.46"/>
<circle cx="0.602283" cy="0.602283" r="0.602283" transform="matrix(1 0 0 -1 246.594 25.3203)" fill="black" fill-opacity="0.46"/>
<circle cx="0.602283" cy="0.602283" r="0.602283" transform="matrix(1 0 0 -1 256.23 25.3203)" fill="black" fill-opacity="0.46"/>
<circle cx="0.602283" cy="0.602283" r="0.602283" transform="matrix(1 0 0 -1 265.867 25.3203)" fill="black" fill-opacity="0.46"/>
<circle cx="0.602283" cy="0.602283" r="0.602283" transform="matrix(1 0 0 -1 275.504 25.3203)" fill="black" fill-opacity="0.46"/>
<circle cx="0.602283" cy="0.602283" r="0.602283" transform="matrix(1 0 0 -1 285.141 25.3203)" fill="black" fill-opacity="0.46"/>
<circle cx="0.602283" cy="0.602283" r="0.602283" transform="matrix(1 0 0 -1 294.777 25.3203)" fill="black" fill-opacity="0.46"/>
<circle cx="0.602283" cy="0.602283" r="0.602283" transform="matrix(1 0 0 -1 304.414 25.3203)" fill="black" fill-opacity="0.46"/>
<circle cx="0.602283" cy="0.602283" r="0.602283" transform="matrix(1 0 0 -1 314.051 25.3203)" fill="black" fill-opacity="0.46"/>
<circle cx="0.602283" cy="0.602283" r="0.602283" transform="matrix(1 0 0 -1 323.688 25.3203)" fill="black" fill-opacity="0.46"/>
<circle cx="0.602283" cy="0.602283" r="0.602283" transform="matrix(1 0 0 -1 333.324 25.3203)" fill="black" fill-opacity="0.46"/>
<circle cx="0.602283" cy="0.602283" r="0.602283" transform="matrix(1 0 0 -1 342.961 25.3203)" fill="black" fill-opacity="0.46"/>
<circle cx="0.602283" cy="0.602283" r="0.602283" transform="matrix(1 0 0 -1 5.67969 15.6836)" fill="black" fill-opacity="0.46"/>
<circle cx="0.602283" cy="0.602283" r="0.602283" transform="matrix(1 0 0 -1 15.3164 15.6836)" fill="black" fill-opacity="0.46"/>
<circle cx="0.602283" cy="0.602283" r="0.602283" transform="matrix(1 0 0 -1 24.9531 15.6836)" fill="black" fill-opacity="0.46"/>
<circle cx="0.602283" cy="0.602283" r="0.602283" transform="matrix(1 0 0 -1 34.5898 15.6836)" fill="black" fill-opacity="0.46"/>
<circle cx="0.602283" cy="0.602283" r="0.602283" transform="matrix(1 0 0 -1 44.2266 15.6836)" fill="black" fill-opacity="0.46"/>
<circle cx="0.602283" cy="0.602283" r="0.602283" transform="matrix(1 0 0 -1 53.8633 15.6836)" fill="black" fill-opacity="0.46"/>
<circle cx="0.602283" cy="0.602283" r="0.602283" transform="matrix(1 0 0 -1 63.5 15.6836)" fill="black" fill-opacity="0.46"/>
<circle cx="0.602283" cy="0.602283" r="0.602283" transform="matrix(1 0 0 -1 73.1367 15.6836)" fill="black" fill-opacity="0.46"/>
<circle cx="0.602283" cy="0.602283" r="0.602283" transform="matrix(1 0 0 -1 82.7734 15.6836)" fill="black" fill-opacity="0.46"/>
<circle cx="0.602283" cy="0.602283" r="0.602283" transform="matrix(1 0 0 -1 92.4102 15.6836)" fill="black" fill-opacity="0.46"/>
<circle cx="0.602283" cy="0.602283" r="0.602283" transform="matrix(1 0 0 -1 102.047 15.6836)" fill="black" fill-opacity="0.46"/>
<circle cx="0.602283" cy="0.602283" r="0.602283" transform="matrix(1 0 0 -1 111.684 15.6836)" fill="black" fill-opacity="0.46"/>
<circle cx="0.602283" cy="0.602283" r="0.602283" transform="matrix(1 0 0 -1 121.32 15.6836)" fill="black" fill-opacity="0.46"/>
<circle cx="0.602283" cy="0.602283" r="0.602283" transform="matrix(1 0 0 -1 130.957 15.6836)" fill="black" fill-opacity="0.46"/>
<circle cx="0.602283" cy="0.602283" r="0.602283" transform="matrix(1 0 0 -1 140.594 15.6836)" fill="black" fill-opacity="0.46"/>
<circle cx="0.602283" cy="0.602283" r="0.602283" transform="matrix(1 0 0 -1 150.23 15.6836)" fill="black" fill-opacity="0.46"/>
<circle cx="0.602283" cy="0.602283" r="0.602283" transform="matrix(1 0 0 -1 159.867 15.6836)" fill="black" fill-opacity="0.46"/>
<circle cx="0.602283" cy="0.602283" r="0.602283" transform="matrix(1 0 0 -1 169.504 15.6836)" fill="black" fill-opacity="0.46"/>
<circle cx="0.602283" cy="0.602283" r="0.602283" transform="matrix(1 0 0 -1 179.137 15.6836)" fill="black" fill-opacity="0.46"/>
<circle cx="0.602283" cy="0.602283" r="0.602283" transform="matrix(1 0 0 -1 188.773 15.6836)" fill="black" fill-opacity="0.46"/>
<circle cx="0.602283" cy="0.602283" r="0.602283" transform="matrix(1 0 0 -1 198.41 15.6836)" fill="black" fill-opacity="0.46"/>
<circle cx="0.602283" cy="0.602283" r="0.602283" transform="matrix(1 0 0 -1 208.047 15.6836)" fill="black" fill-opacity="0.46"/>
<circle cx="0.602283" cy="0.602283" r="0.602283" transform="matrix(1 0 0 -1 217.684 15.6836)" fill="black" fill-opacity="0.46"/>
<circle cx="0.602283" cy="0.602283" r="0.602283" transform="matrix(1 0 0 -1 227.32 15.6836)" fill="black" fill-opacity="0.46"/>
<circle cx="0.602283" cy="0.602283" r="0.602283" transform="matrix(1 0 0 -1 236.957 15.6836)" fill="black" fill-opacity="0.46"/>
<circle cx="0.602283" cy="0.602283" r="0.602283" transform="matrix(1 0 0 -1 246.594 15.6836)" fill="black" fill-opacity="0.46"/>
<circle cx="0.602283" cy="0.602283" r="0.602283" transform="matrix(1 0 0 -1 256.23 15.6836)" fill="black" fill-opacity="0.46"/>
<circle cx="0.602283" cy="0.602283" r="0.602283" transform="matrix(1 0 0 -1 265.867 15.6836)" fill="black" fill-opacity="0.46"/>
<circle cx="0.602283" cy="0.602283" r="0.602283" transform="matrix(1 0 0 -1 275.504 15.6836)" fill="black" fill-opacity="0.46"/>
<circle cx="0.602283" cy="0.602283" r="0.602283" transform="matrix(1 0 0 -1 285.141 15.6836)" fill="black" fill-opacity="0.46"/>
<circle cx="0.602283" cy="0.602283" r="0.602283" transform="matrix(1 0 0 -1 294.777 15.6836)" fill="black" fill-opacity="0.46"/>
<circle cx="0.602283" cy="0.602283" r="0.602283" transform="matrix(1 0 0 -1 304.414 15.6836)" fill="black" fill-opacity="0.46"/>
<circle cx="0.602283" cy="0.602283" r="0.602283" transform="matrix(1 0 0 -1 314.051 15.6836)" fill="black" fill-opacity="0.46"/>
<circle cx="0.602283" cy="0.602283" r="0.602283" transform="matrix(1 0 0 -1 323.688 15.6836)" fill="black" fill-opacity="0.46"/>
<circle cx="0.602283" cy="0.602283" r="0.602283" transform="matrix(1 0 0 -1 333.324 15.6836)" fill="black" fill-opacity="0.46"/>
<circle cx="0.602283" cy="0.602283" r="0.602283" transform="matrix(1 0 0 -1 342.961 15.6836)" fill="black" fill-opacity="0.46"/>
<circle cx="0.602283" cy="0.602283" r="0.602283" transform="matrix(1 0 0 -1 5.67969 6.04688)" fill="black" fill-opacity="0.46"/>
<circle cx="0.602283" cy="0.602283" r="0.602283" transform="matrix(1 0 0 -1 15.3164 6.04688)" fill="black" fill-opacity="0.46"/>
<circle cx="0.602283" cy="0.602283" r="0.602283" transform="matrix(1 0 0 -1 24.9531 6.04688)" fill="black" fill-opacity="0.46"/>
<circle cx="0.602283" cy="0.602283" r="0.602283" transform="matrix(1 0 0 -1 34.5898 6.04688)" fill="black" fill-opacity="0.46"/>
<circle cx="0.602283" cy="0.602283" r="0.602283" transform="matrix(1 0 0 -1 44.2266 6.04688)" fill="black" fill-opacity="0.46"/>
<circle cx="0.602283" cy="0.602283" r="0.602283" transform="matrix(1 0 0 -1 53.8633 6.04688)" fill="black" fill-opacity="0.46"/>
<circle cx="0.602283" cy="0.602283" r="0.602283" transform="matrix(1 0 0 -1 63.5 6.04688)" fill="black" fill-opacity="0.46"/>
<circle cx="0.602283" cy="0.602283" r="0.602283" transform="matrix(1 0 0 -1 73.1367 6.04688)" fill="black" fill-opacity="0.46"/>
<circle cx="0.602283" cy="0.602283" r="0.602283" transform="matrix(1 0 0 -1 82.7734 6.04688)" fill="black" fill-opacity="0.46"/>
<circle cx="0.602283" cy="0.602283" r="0.602283" transform="matrix(1 0 0 -1 92.4102 6.04688)" fill="black" fill-opacity="0.46"/>
<circle cx="0.602283" cy="0.602283" r="0.602283" transform="matrix(1 0 0 -1 102.047 6.04688)" fill="black" fill-opacity="0.46"/>
<circle cx="0.602283" cy="0.602283" r="0.602283" transform="matrix(1 0 0 -1 111.684 6.04688)" fill="black" fill-opacity="0.46"/>
<circle cx="0.602283" cy="0.602283" r="0.602283" transform="matrix(1 0 0 -1 121.32 6.04688)" fill="black" fill-opacity="0.46"/>
<circle cx="0.602283" cy="0.602283" r="0.602283" transform="matrix(1 0 0 -1 130.957 6.04688)" fill="black" fill-opacity="0.46"/>
<circle cx="0.602283" cy="0.602283" r="0.602283" transform="matrix(1 0 0 -1 140.594 6.04688)" fill="black" fill-opacity="0.46"/>
<circle cx="0.602283" cy="0.602283" r="0.602283" transform="matrix(1 0 0 -1 150.23 6.04688)" fill="black" fill-opacity="0.46"/>
<circle cx="0.602283" cy="0.602283" r="0.602283" transform="matrix(1 0 0 -1 159.867 6.04688)" fill="black" fill-opacity="0.46"/>
<circle cx="0.602283" cy="0.602283" r="0.602283" transform="matrix(1 0 0 -1 169.504 6.04688)" fill="black" fill-opacity="0.46"/>
<circle cx="0.602283" cy="0.602283" r="0.602283" transform="matrix(1 0 0 -1 179.137 6.04688)" fill="black" fill-opacity="0.46"/>
<circle cx="0.602283" cy="0.602283" r="0.602283" transform="matrix(1 0 0 -1 188.773 6.04688)" fill="black" fill-opacity="0.46"/>
<circle cx="0.602283" cy="0.602283" r="0.602283" transform="matrix(1 0 0 -1 198.41 6.04688)" fill="black" fill-opacity="0.46"/>
<circle cx="0.602283" cy="0.602283" r="0.602283" transform="matrix(1 0 0 -1 208.047 6.04688)" fill="black" fill-opacity="0.46"/>
<circle cx="0.602283" cy="0.602283" r="0.602283" transform="matrix(1 0 0 -1 217.684 6.04688)" fill="black" fill-opacity="0.46"/>
<circle cx="0.602283" cy="0.602283" r="0.602283" transform="matrix(1 0 0 -1 227.32 6.04688)" fill="black" fill-opacity="0.46"/>
<circle cx="0.602283" cy="0.602283" r="0.602283" transform="matrix(1 0 0 -1 236.957 6.04688)" fill="black" fill-opacity="0.46"/>
<circle cx="0.602283" cy="0.602283" r="0.602283" transform="matrix(1 0 0 -1 246.594 6.04688)" fill="black" fill-opacity="0.46"/>
<circle cx="0.602283" cy="0.602283" r="0.602283" transform="matrix(1 0 0 -1 256.23 6.04688)" fill="black" fill-opacity="0.46"/>
<circle cx="0.602283" cy="0.602283" r="0.602283" transform="matrix(1 0 0 -1 265.867 6.04688)" fill="black" fill-opacity="0.46"/>
<circle cx="0.602283" cy="0.602283" r="0.602283" transform="matrix(1 0 0 -1 275.504 6.04688)" fill="black" fill-opacity="0.46"/>
<circle cx="0.602283" cy="0.602283" r="0.602283" transform="matrix(1 0 0 -1 285.141 6.04688)" fill="black" fill-opacity="0.46"/>
<circle cx="0.602283" cy="0.602283" r="0.602283" transform="matrix(1 0 0 -1 294.777 6.04688)" fill="black" fill-opacity="0.46"/>
<circle cx="0.602283" cy="0.602283" r="0.602283" transform="matrix(1 0 0 -1 304.414 6.04688)" fill="black" fill-opacity="0.46"/>
<circle cx="0.602283" cy="0.602283" r="0.602283" transform="matrix(1 0 0 -1 314.051 6.04688)" fill="black" fill-opacity="0.46"/>
<circle cx="0.602283" cy="0.602283" r="0.602283" transform="matrix(1 0 0 -1 323.688 6.04688)" fill="black" fill-opacity="0.46"/>
<circle cx="0.602283" cy="0.602283" r="0.602283" transform="matrix(1 0 0 -1 333.324 6.04688)" fill="black" fill-opacity="0.46"/>
<circle cx="0.602283" cy="0.602283" r="0.602283" transform="matrix(1 0 0 -1 342.961 6.04688)" fill="black" fill-opacity="0.46"/>
</g>
</g>
</g>
<defs>
<radialGradient id="paint0_radial_955_217573" cx="0" cy="0" r="1" gradientUnits="userSpaceOnUse" gradientTransform="translate(205.78 197.95) rotate(90) scale(197.95 205.78)">
<stop stop-color="white"/>
<stop offset="1" stop-color="white" stop-opacity="0"/>
</radialGradient>
<clipPath id="clip0_955_217573">
<rect width="349" height="447" fill="white" transform="translate(0.222656 0.9375)"/>
</clipPath>
</defs>
</svg>
