<svg width="25" height="25" viewBox="0 0 25 25" fill="none" xmlns="http://www.w3.org/2000/svg">
<circle cx="12.25" cy="12.9844" r="9.5" fill="#4260E3" fill-opacity="0.2"></circle>
<path d="M3.339 14.1854C3.287 13.7914 3.25 13.3924 3.25 12.9844C3.25 8.01337 7.279 3.98438 12.25 3.98438C15.625 3.98438 18.563 5.84538 20.103 8.59438" stroke="url(#paint0_linear_786_1606)" stroke-width="1.5" stroke-linecap="round" stroke-linejoin="round"></path>
<path d="M4.39844 17.3742C5.93844 20.1232 8.87644 21.9842 12.2514 21.9842C17.2224 21.9842 21.2514 17.9552 21.2514 12.9842C21.2514 12.5762 21.2144 12.1772 21.1624 11.7832" stroke="url(#paint1_linear_786_1606)" stroke-width="1.5" stroke-linecap="round" stroke-linejoin="round"></path>
<path d="M15.0631 17.9834C16.2707 17.9828 17.249 17.0041 17.249 15.7964C17.249 14.5882 16.2701 13.6094 15.062 13.6094C13.8537 13.6094 12.875 14.5894 12.875 15.7964V15.7964V15.7964V15.7965V15.7965V15.7965V15.7966V15.7966V15.7966V15.7966V15.7967V15.7967V15.7967V15.7968V15.7968V15.7968V15.7968V15.7969V15.7969V15.7969V15.797V15.797V15.797V15.797V15.7971V15.7971V15.7971V15.7972V15.7972V15.7972V15.7972V15.7973V15.7973V15.7973V15.7974V15.7974V15.7974V15.7974V15.7975V15.7975V15.7975V15.7976V15.7976V15.7976V15.7976V15.7977V15.7977V15.7977V15.7978V15.7978V15.7978V15.7978V15.7979V15.7979V15.7979V15.798V15.798V15.798V15.798V15.7981V15.7981V15.7981V15.7981V15.7982V15.7982V15.7982V15.7983V15.7983V15.7983V15.7983V15.7984V15.7984V15.7984V15.7985V15.7985V15.7985V15.7985V15.7986V15.7986V15.7986V15.7986V15.7987V15.7987V15.7987V15.7988V15.7988V15.7988V15.7988V15.7989V15.7989V15.7989V15.799V15.799V15.799V15.799V15.7991V15.7991V15.7991V15.7991V15.7992V15.7992V15.7992V15.7993V15.7993V15.7993V15.7993V15.7994V15.7994V15.7994V15.7994V15.7995V15.7995V15.7995V15.7996V15.7996V15.7996V15.7996V15.7997V15.7997V15.7997V15.7997V15.7998V15.7998V15.7998V15.7998V15.7999V15.7999V15.7999V15.8V15.8V15.8V15.8V15.8001V15.8001V15.8001V15.8001V15.8002V15.8002V15.8002V15.8002V15.8003V15.8003V15.8003V15.8004V15.8004V15.8004V15.8004V15.8005V15.8005V15.8005V15.8005V15.8006V15.8006V15.8006V15.8006V15.8007V15.8007V15.8007V15.8007V15.8008V15.8008V15.8008V15.8009V15.8009V15.8009V15.8009V15.801V15.801V15.801V15.801V15.8011V15.8011V15.8011V15.8011V15.8012V15.8012V15.8012V15.8012V15.8013V15.8013V15.8013V15.8013V15.8014V15.8014V15.8014V15.8015V15.8015V15.8015V15.8015V15.8016V15.8016V15.8016V15.8016V15.8017V15.8017V15.8017V15.8017V15.8018V15.8018V15.8018V15.8018V15.8019V15.8019V15.8019V15.8019V15.802V15.802V15.802V15.802V15.8021V15.8021V15.8021V15.8021V15.8022V15.8022V15.8022V15.8022V15.8023V15.8023V15.8023V15.8023V15.8024V15.8024V15.8024V15.8024V15.8025V15.8025V15.8025V15.8025V15.8026V15.8026V15.8026V15.8026V15.8027V15.8027V15.8027V15.8027V15.8028V15.8028V15.8028V15.8029V15.8029V15.8029V15.8029V15.803V15.803V15.803V15.803V15.8031V15.8031V15.8031V15.8031V15.8032V15.8032V15.8032V15.8032V15.8033V15.8033V15.8033V15.8033V15.8033V15.8034V15.8034V15.8034V15.8034V15.8035V15.8035V15.8035V15.8035V15.8036V15.8036V15.8036V15.8036V15.8037V15.8037V15.8037V15.8037V15.8038V15.8038V15.8038V15.8038V15.8039V15.8039V15.8039V15.8039V15.804V15.804V15.804V15.804V15.8041V15.8041V15.8041V15.8041V15.8042V15.8042V15.8042V15.8042V15.8043V15.8043V15.8043V15.8043V15.8044V15.8044V15.8044V15.8044V15.8045V15.8045V15.8045V15.8045V15.8046V15.8046V15.8046V15.8046V15.8047V15.8047V15.8047V15.8047V15.8047V15.8048V15.8048V15.8048V15.8048V15.8049V15.8049V15.8049V15.8049V15.805V15.805V15.805V15.805V15.8051V15.8051V15.8051V15.8051V15.8052V15.8052V15.8052V15.8052V15.8053V15.8053V15.8053V15.8053V15.8054V15.8054V15.8054V15.8054V15.8055V15.8055V15.8055V15.8055V15.8055V15.8056V15.8056V15.8056V15.8056V15.8057V15.8057V15.8057V15.8057V15.8058V15.8058V15.8058V15.8058V15.8059V15.8059V15.8059V15.8059V15.806V15.806V15.806V15.806V15.806V15.8061V15.8061V15.8061V15.8061V15.8062V15.8062V15.8062V15.8062V15.8063V15.8063V15.8063V15.8063V15.8064V15.8064V15.8064V15.8064V15.8065V15.8065V15.8065V15.8065V15.8065V15.8066V15.8066V15.8066V15.8066V15.8067V15.8067V15.8067V15.8067V15.8068V15.8068V15.8068V15.8068V15.8069V15.8069V15.8069V15.8069V15.807V15.807V15.807V15.807V15.807V15.8071V15.8071V15.8071V15.8071V15.8072V15.8072V15.8072V15.8072V15.8073V15.8073V15.8073V15.8073V15.8074V15.8074V15.8074V15.8074V15.8074V15.8075V15.8075V15.8075V15.8075V15.8076V15.8076V15.8076V15.8076V15.8077V15.8077V15.8077V15.8077V15.8078V15.8078V15.8078V15.8078V15.8078V15.8079V15.8079V15.8079V15.8079V15.808V15.808V15.808V15.808V15.8081V15.8081V15.8081V15.8081V15.8082V15.8082V15.8082V15.8082V15.8082V15.8083V15.8083V15.8083V15.8083V15.8084V15.8084V15.8084V15.8084V15.8085V15.8085V15.8085V15.8085V15.8086V15.8086V15.8086V15.8086V15.8086V15.8087V15.8087V15.8087V15.8087V15.8088V15.8088V15.8088V15.8088V15.8089V15.8089V15.8089V15.8089V15.809V15.809V15.809V15.809V15.809V15.8091V15.8091V15.8091V15.8091V15.8092V15.8092V15.8092V15.8092V15.8093V15.8093V15.8093V15.8093V15.8094V15.8094H12.875L12.875 15.811C12.8789 17.0161 13.8584 17.988 15.0631 17.9834ZM15.0631 17.9834C15.0635 17.9834 15.0638 17.9834 15.0642 17.9834L15.062 17.4834V17.9834C15.0624 17.9834 15.0627 17.9834 15.0631 17.9834Z" fill="url(#paint2_linear_786_1606)" stroke="#101631" stroke-linecap="round" stroke-linejoin="round"></path>
<path d="M20.6859 7.98634C19.4783 7.98692 18.5 8.96556 18.5 10.1733C18.5 11.3819 19.4802 12.3603 20.688 12.3603C21.8963 12.3603 22.875 11.3803 22.875 10.1733L22.8749 10.1629C22.8749 10.1573 22.8747 10.1482 22.874 10.1371C22.8739 10.1358 22.8739 10.1345 22.8738 10.1332C22.8562 8.93992 21.8821 7.98177 20.6859 7.98634ZM20.6859 7.98634C20.6856 7.98635 20.6852 7.98635 20.6848 7.98635L20.687 8.48634V7.98634C20.6866 7.98634 20.6863 7.98634 20.6859 7.98634Z" fill="url(#paint3_linear_786_1606)" stroke="#101631" stroke-linecap="round" stroke-linejoin="round"></path>
<path d="M9.43693 7.98439C8.22828 7.98497 7.25 8.96361 7.25 10.1724C7.25 11.3809 8.23024 12.3594 9.438 12.3594C10.6463 12.3594 11.625 11.3793 11.625 10.1724V10.1724V10.1723V10.1723V10.1723V10.1722V10.1722V10.1722V10.1722V10.1721V10.1721V10.1721V10.172V10.172V10.172V10.172V10.1719V10.1719V10.1719V10.1718V10.1718V10.1718V10.1718V10.1717V10.1717V10.1717V10.1716V10.1716V10.1716V10.1716V10.1715V10.1715V10.1715V10.1714V10.1714V10.1714V10.1714V10.1713V10.1713V10.1713V10.1712V10.1712V10.1712V10.1712V10.1711V10.1711V10.1711V10.171V10.171V10.171V10.171V10.1709V10.1709V10.1709V10.1708V10.1708V10.1708V10.1708V10.1707V10.1707V10.1707V10.1706V10.1706V10.1706V10.1706V10.1705V10.1705V10.1705V10.1704V10.1704V10.1704V10.1704V10.1703V10.1703V10.1703V10.1703V10.1702V10.1702V10.1702V10.1701V10.1701V10.1701V10.1701V10.17V10.17V10.17V10.1699V10.1699V10.1699V10.1699V10.1698V10.1698V10.1698V10.1698V10.1697V10.1697V10.1697V10.1696V10.1696V10.1696V10.1696V10.1695V10.1695V10.1695V10.1695V10.1694V10.1694V10.1694V10.1693V10.1693V10.1693V10.1693V10.1692V10.1692V10.1692V10.1692V10.1691V10.1691V10.1691V10.169V10.169V10.169V10.169V10.1689V10.1689V10.1689V10.1689V10.1688V10.1688V10.1688V10.1687V10.1687V10.1687V10.1687V10.1686V10.1686V10.1686V10.1686V10.1685V10.1685V10.1685V10.1684V10.1684V10.1684V10.1684V10.1683V10.1683V10.1683V10.1683V10.1682V10.1682V10.1682V10.1681V10.1681V10.1681V10.1681V10.168V10.168V10.168V10.168V10.1679V10.1679V10.1679V10.1679V10.1678V10.1678V10.1678V10.1677V10.1677V10.1677V10.1677V10.1676V10.1676V10.1676V10.1676V10.1675V10.1675V10.1675V10.1675V10.1674V10.1674V10.1674V10.1673V10.1673V10.1673V10.1673V10.1672V10.1672V10.1672V10.1672V10.1671V10.1671V10.1671V10.1671V10.167V10.167V10.167V10.1669V10.1669V10.1669V10.1669V10.1668V10.1668V10.1668V10.1668V10.1667V10.1667V10.1667V10.1667V10.1666V10.1666V10.1666V10.1666V10.1665V10.1665V10.1665V10.1664V10.1664V10.1664V10.1664V10.1663V10.1663V10.1663V10.1663V10.1662V10.1662V10.1662V10.1662V10.1661V10.1661V10.1661V10.1661V10.166V10.166V10.166V10.1659V10.1659V10.1659V10.1659V10.1658V10.1658V10.1658V10.1658V10.1657V10.1657V10.1657V10.1657V10.1656V10.1656V10.1656V10.1655V10.1655V10.1655V10.1655V10.1654V10.1654V10.1654V10.1654V10.1653V10.1653V10.1653V10.1653V10.1652V10.1652V10.1652V10.1652V10.1651V10.1651V10.1651V10.165V10.165V10.165V10.165V10.1649V10.1649V10.1649V10.1649V10.1648V10.1648V10.1648V10.1648V10.1647V10.1647V10.1647V10.1647V10.1646V10.1646V10.1646V10.1645V10.1645V10.1645V10.1645V10.1644V10.1644V10.1644V10.1644V10.1643V10.1643V10.1643V10.1643V10.1642V10.1642V10.1642V10.1642V10.1641V10.1641V10.1641V10.164V10.164V10.164V10.164V10.1639V10.1639V10.1639V10.1639V10.1638V10.1638V10.1638V10.1638V10.1637V10.1637V10.1637V10.1636V10.1636V10.1636V10.1636V10.1635V10.1635V10.1635V10.1635V10.1634V10.1634V10.1634V10.1634V10.1633V10.1633V10.1633V10.1632V10.1632V10.1632V10.1632V10.1631V10.1631V10.1631V10.1631V10.163V10.163V10.163V10.163V10.1629V10.1629V10.1629V10.1628V10.1628V10.1628V10.1628V10.1627V10.1627V10.1627V10.1627V10.1626V10.1626V10.1626V10.1626V10.1625V10.1625V10.1625V10.1624V10.1624V10.1624V10.1624V10.1623V10.1623V10.1623V10.1623V10.1622V10.1622V10.1622V10.1621V10.1621V10.1621V10.1621V10.162V10.162V10.162V10.162V10.1619V10.1619V10.1619V10.1618V10.1618V10.1618V10.1618V10.1617V10.1617V10.1617V10.1617V10.1616V10.1616V10.1616V10.1615V10.1615V10.1615V10.1615V10.1614V10.1614V10.1614V10.1614V10.1613V10.1613V10.1613V10.1612V10.1612V10.1612V10.1612V10.1611V10.1611V10.1611V10.1611V10.161V10.161V10.161V10.1609V10.1609V10.1609V10.1609V10.1608V10.1608V10.1608V10.1608V10.1607V10.1607V10.1607V10.1606V10.1606V10.1606V10.1606V10.1605V10.1605V10.1605V10.1604V10.1604V10.1604V10.1604V10.1603V10.1603V10.1603V10.1603V10.1602V10.1602V10.1602V10.1601V10.1601V10.1601V10.1601V10.16V10.16V10.16V10.1599V10.1599V10.1599V10.1599V10.1598V10.1598V10.1598V10.1597V10.1597V10.1597V10.1597V10.1596V10.1596V10.1596V10.1595V10.1595V10.1595V10.1595V10.1594V10.1594V10.1594V10.1593V10.1593V10.1593V10.1593V10.1592V10.1592V10.1592V10.1591V10.1591V10.1591V10.1591V10.159V10.159V10.159V10.1589V10.1589V10.1589V10.1589V10.1588V10.1588V10.1588V10.1587V10.1587V10.1587V10.1587V10.1586V10.1586V10.1586V10.1585V10.1585V10.1585V10.1584V10.1584L11.625 10.1584L11.625 10.1568C11.6211 8.95166 10.6417 7.97979 9.43693 7.98439ZM9.43693 7.98439C9.43657 7.98439 9.43621 7.98439 9.43585 7.9844L9.438 8.48439V7.98439C9.43764 7.98439 9.43729 7.98439 9.43693 7.98439Z" fill="url(#paint4_linear_786_1606)" stroke="#101631" stroke-linecap="round" stroke-linejoin="round"></path>
<path d="M3.81411 17.9834C5.02174 17.9828 6 17.0041 6 15.7964C6 14.5878 5.01976 13.6094 3.812 13.6094C2.60366 13.6094 1.625 14.5894 1.625 15.7964L1.62506 15.8068C1.62514 15.8124 1.62533 15.8215 1.62599 15.8326C1.62606 15.8339 1.62614 15.8352 1.62623 15.8365C1.64376 17.0298 2.61788 17.988 3.81411 17.9834ZM3.81411 17.9834C3.81446 17.9834 3.8148 17.9834 3.81515 17.9834L3.813 17.4834V17.9834C3.81337 17.9834 3.81374 17.9834 3.81411 17.9834Z" fill="url(#paint5_linear_786_1606)" stroke="#101631" stroke-linecap="round" stroke-linejoin="round"></path>
<path d="M17.0625 13.6074L18.3047 12.3613" stroke="url(#paint6_linear_786_1606)" stroke-width="1.1" stroke-linecap="round" stroke-linejoin="round"></path>
<path d="M6.03906 13.568L7.25955 12.3438" stroke="url(#paint7_linear_786_1606)" stroke-width="1.1" stroke-linecap="round" stroke-linejoin="round"></path>
<path d="M13.0593 13.5687L11.7344 12.4004" stroke="url(#paint8_linear_786_1606)" stroke-width="1.1" stroke-linecap="round" stroke-linejoin="round"></path>
<defs>
<linearGradient id="paint0_linear_786_1606" x1="3.25" y1="10.8284" x2="15.9031" y2="12.5527" gradientUnits="userSpaceOnUse">
<stop stop-color="#BBD2FF"></stop>
<stop offset="1" stop-color="#77A2F9"></stop>
</linearGradient>
<linearGradient id="paint1_linear_786_1606" x1="4.39844" y1="18.6272" x2="17.0515" y2="20.3515" gradientUnits="userSpaceOnUse">
<stop stop-color="#BBD2FF"></stop>
<stop offset="1" stop-color="#77A2F9"></stop>
</linearGradient>
<linearGradient id="paint2_linear_786_1606" x1="13.375" y1="16.3731" x2="15.9378" y2="16.5845" gradientUnits="userSpaceOnUse">
<stop stop-color="#BBD2FF"></stop>
<stop offset="1" stop-color="#77A2F9"></stop>
</linearGradient>
<linearGradient id="paint3_linear_786_1606" x1="19" y1="10.75" x2="21.5635" y2="10.9615" gradientUnits="userSpaceOnUse">
<stop stop-color="#BBD2FF"></stop>
<stop offset="1" stop-color="#77A2F9"></stop>
</linearGradient>
<linearGradient id="paint4_linear_786_1606" x1="7.75" y1="10.7487" x2="10.3135" y2="10.9602" gradientUnits="userSpaceOnUse">
<stop stop-color="#BBD2FF"></stop>
<stop offset="1" stop-color="#77A2F9"></stop>
</linearGradient>
<linearGradient id="paint5_linear_786_1606" x1="2.125" y1="16.3731" x2="4.68852" y2="16.5846" gradientUnits="userSpaceOnUse">
<stop stop-color="#BBD2FF"></stop>
<stop offset="1" stop-color="#77A2F9"></stop>
</linearGradient>
<linearGradient id="paint6_linear_786_1606" x1="15.401" y1="10.1629" x2="19.6508" y2="13.9486" gradientUnits="userSpaceOnUse">
<stop stop-color="#BBD2FF"></stop>
<stop offset="1" stop-color="#77A2F9"></stop>
</linearGradient>
<linearGradient id="paint7_linear_786_1606" x1="7.56441" y1="10.0276" x2="12.1254" y2="13.8661" gradientUnits="userSpaceOnUse">
<stop stop-color="#BBD2FF"></stop>
<stop offset="1" stop-color="#77A2F9"></stop>
</linearGradient>
<linearGradient id="paint8_linear_786_1606" x1="11.8214" y1="10.8972" x2="15.0807" y2="14.8063" gradientUnits="userSpaceOnUse">
<stop stop-color="#BBD2FF"></stop>
<stop offset="1" stop-color="#77A2F9"></stop>
</linearGradient>
</defs>
</svg>